<?xml version="1.0" encoding="utf-8"?>
<!-- Generator: Adobe Illustrator 27.9.1, SVG Export Plug-In . SVG Version: 6.00 Build 0)  -->
<svg version="1.1" id="Layer_1" xmlns="http://www.w3.org/2000/svg" xmlns:xlink="http://www.w3.org/1999/xlink" x="0px" y="0px"
	 viewBox="0 0 1417.32 1417.32" style="fill:rgb(190 255 61);enable-background:new 0 0 1417.32 1417.32;" xml:space="preserve">
<g>
	<path d="M1284.39,737.62c4.53,1.57,8.52,2.95,13.24,4.58c0.77,0.72,2.24,2,3.59,3.4c0.7,0.73,1.71,1.73,1.63,2.51
		c-0.26,2.53,1.44,4,2.93,5.11c2.09,1.57,2.94,3.68,4.18,5.79c-0.58,0.85-1.07,1.59-1.56,2.3c0.45,1.56,0.88,3.07,1.38,4.86
		c-1.66,0.76-3.09,1.41-4.28,1.95c-4.56-1.14-8.82-2.21-13.07-3.27c-0.94,2.28-0.64,4.47-0.37,7.11c0.17,1.65,0.85,3.16,0.94,4.67
		c0.36,6.45,3.03,12.34,4.16,18.58c0.79,4.36,1.41,8.77,2.53,13.04c1.45,5.54,3.45,10.94,4.95,16.47c1.1,4.06,1.79,8.24,2.7,12.54
		c-2.95,1.71-5.51,2.77-8.7,1.56c-3.19-1.22-6.5-2.12-9.77-3.13c-0.31-0.1-0.82,0.09-0.97-0.08c-2.18-2.5-4.98-4.73-6.32-7.63
		c-2.16-4.66-3.44-9.74-4.88-14.7c-0.41-1.42-1.4-3.19,0.39-4.09c-0.37-3.12-0.71-5.82-1.01-8.52c-0.37-3.38-0.61-6.77-1.13-10.13
		c-0.14-0.91-1.06-1.69-1.71-2.66c1.01-1.58,1.13-3.2,0.22-5.08c-0.68-1.4-0.63-3.13-0.99-4.7c-0.91-3.95-1.86-7.89-2.83-11.83
		c-0.16-0.66-0.61-1.27-0.68-1.92c-0.2-1.96-2.69-3.11-1.84-5.51c0.16-0.44-0.77-1.27-1.32-2.1c-0.28,0.81-0.46,1.34-0.69,2.01
		c-0.33-0.91-0.59-1.72-0.92-2.51c-0.66-1.58-1.81-2.65-3.49-3.08c-4.9-1.24-9.82-2.4-14.71-3.69c-5.32-1.41-10.62-2.91-15.91-4.43
		c-7.61-2.18-15.14-4.67-22.82-6.53c-4.7-1.14-9.54-1.94-14.07-3.55c-8.99-3.19-18.36-4.89-27.45-7.62
		c-5.5-1.65-11.02-3.23-16.55-4.76c-4.76-1.31-9.53-2.57-14.33-3.72c-1.17-0.28-2.47-0.04-3.67-0.17
		c-18.64-4.98-37.21-10.29-56.24-14.08c-0.28,0.74-0.68,1.25-0.56,1.56c1.76,4.82,1.29,9.99,2.4,14.92
		c0.82,3.68,0.95,7.55,2.1,11.11c1.1,3.4,3.17,6.48,4.75,9.73c0.8,1.63,1.52,3.29,2.19,4.98c1.54,3.86,3.24,7.68,4.45,11.65
		c0.95,3.12,1.38,6.41,1.83,9.66c0.44,3.16,0.58,6.35,0.92,9.52c0.07,0.67,0.24,1.49,0.68,1.93c2.19,2.16,1.76,5.13,2.41,7.73
		c0.31,1.25,1.16,2.87-0.35,4.13c-0.18,0.15-0.1,0.66-0.08,1c0.14,2.97,0.29,5.95,0.45,8.92c0.12,2.27,0.2,4.55,0.39,6.81
		c0.16,1.92,0.41,3.83,0.71,5.73c0.3,1.9,0.71,3.79,1.04,5.5c-3.75,4.84-8.26,3.3-12.72,1.93c-1.21-0.37-2.33-1.12-3.55-1.29
		c-3.22-0.44-5.52-2.41-7.4-4.69c-1.09-1.31-1.78-3.3-1.83-5.01c-0.06-1.93-0.42-3.59-1.27-5.27c-0.72-1.41-0.95-2.87-0.94-4.58
		c0-6.04-0.25-12.11-1.79-18.02c-0.08-0.32-0.3-0.6-0.55-1.07c-0.63,0.03-1.4-0.14-1.92,0.14c-2.82,1.5-5.87,0.63-8.8,0.96
		c-0.6,0.07-1.28-0.4-1.89-0.68c-0.73-0.34-1.38-0.87-2.14-1.11c-6.21-1.93-10.74-5.7-13.36-11.73c-0.39-0.9-1.18-1.74-1.99-2.32
		c-3.91-2.78-6.47-6.8-9.61-10.28c-3.91-4.31-7.18-9.11-10.58-13.81c-1.24-1.71-2.56-3.36-4.42-5.78c-2.72-1.32-3.74-3.73-2.75-8.31
		c0.73-0.47,1.52-0.94,2.27-1.46c0.72-0.51,1.41-1.08,2.52-1.93c-1.28-0.18-2-0.28-2.91-0.41c0.43-0.94,0.79-1.69,1.39-3
		c-1.33,0.44-2.09,0.69-3.31,1.1c0.48-1.32,0.79-2.2,1.21-3.35c-0.67,0.22-1.04,0.34-1.42,0.46c-3.44-2.22-3.43-5.66-3.18-9.41
		c-1.79-0.94-3.33-2.24-3.24-4.64c0.01-0.32-0.15-0.68-0.32-0.97c-2.23-3.73-4.5-7.44-6.72-11.18c-0.63-1.06-1.13-2.2-1.77-3.47
		c-2.55-1.53-5.19-1.61-8.16-0.16c-1.76,0.86-4.07,1.27-5.99,0.97c-2.59-0.41-5.01,0.34-7.5,0.36c-1.39,0.01-2.77,0.92-4.09,1.41
		c-1.68,0.16-3.35,0.26-5.01,0.48c-3.53,0.46-7.06,0.98-10.59,1.48c-3.29,0.47-6.59,0.85-9.85,1.48c-1.13,0.22-2.54,0.75-2.1,2.53
		c0.03,0.11,0.11,0.31,0.09,0.32c-3.25,1.71-2.72,5.56-4.57,8.05c-0.2,0.27-0.45,0.6-0.46,0.91c-0.21,4.02-3.23,6.85-4.37,10.5
		c-0.91,2.92-2.29,5.69-3.59,8.83c0.19,0.16,0.59,0.48,1.02,0.84c0.11,2.46-1.19,4.04-3.4,4.88c-0.11,1.11-0.03,2.09-0.34,2.91
		c-0.37,0.98-0.16,2.66-2.21,2.27c-0.4-0.08-1.23,1-1.51,1.68c-0.95,2.28-1.88,4.59-2.57,6.96c-0.67,2.29-1.89,5.25-2.92,6.26
		c0.09,4.43-2.68,7.65-4.91,11.01c-1.76,2.66-4.97,2.18-7.61,2.19c-2.69,0.01-5.48-0.2-7.95-1.86c-1.05-0.71-2.8-0.37-3.88-1.05
		c-2.96-1.85-5.29-4.39-6.64-7.67c-0.59-1.42-0.55-2.79,0.2-4.3c1.5-3.01,3.54-5.43,6.18-7.5c2.1-1.65,3.93-3.63,6.03-5.59
		c-0.02-0.28-0.07-0.82-0.11-1.35c0.17-0.19,0.29-0.41,0.47-0.52c3.61-2.07,6.6-4.5,6.38-9.27c-0.06-1.37,0.38-2.46,2.42-2.51
		c0.94-0.02,1.94-1.92,2.72-3.1c1.03-1.56,1.88-3.23,2.96-5.13c0-1.24,0-2.98,0-4.52c0.94-0.45,1.74-0.57,2.05-1.02
		c0.8-1.16,1.09-3.08,2.11-3.57c1.71-0.81,1.57-2.44,2.41-3.57c0.84-1.14,1.25-2.6,1.89-4.01c-1.4-0.94-2.49-1.08-3.83-0.66
		c-3.17,1-6.41,1.79-9.6,2.74c-1.82,0.54-3.86,0.2-5.51,1.67c-0.52,0.47-1.9-0.01-2.88-0.07c-2.98-0.18-5.95-0.49-8.93-0.52
		c-2.54-0.03-2.54,0.11-4.21,2.5c-2.05-0.67-4.11-0.95-5.86,1.01c-0.45,0.51-1.47,0.56-2.24,0.74c-2.91,0.69-5.87,1.23-8.74,2.05
		c-1.6,0.45-3.07,1.34-4.5,2.26c-1.56,0.03-3.43-0.77-4.06,1.62c-4.48-1.44-7.85,1.15-11.67,2.77c-0.94-0.12-2.18-0.55-3.29-0.32
		c-0.94,0.2-1.72,1.15-2.78,1.92c-0.24-0.16-0.79-0.54-1.57-1.08c-0.86,2.08-3.89-0.75-4.45,2.4c-0.58-0.39-1.01-0.9-1.28-0.83
		c-4.11,1.05-8.44,0.62-12.49,1.96c-0.84,0.28-1.55,0.92-2.15,1.3c-4.52,0.1-8.86,0.28-13,2.52c-3.7-1.29-7.09-0.27-10.16,2.4
		c-1.43-0.16-2.9-0.33-4.4-0.5c-0.12,0.31-0.27,0.72-0.43,1.14c-0.22,0.02-0.47,0.13-0.63,0.05c-1-0.53-1.84-0.86-3.18-0.65
		c-4.75,0.76-9.56,1.08-14.34,1.62c-1.14,0.13-2.51,0.14-3.32,0.78c-2.13,1.7-4.6,1.31-6.93,1.44c-5.71,0.3-11.44,0.6-17.15,0.42
		c-3.04-0.1-6.06-1.17-9.08-1.87c-0.5-0.12-1.05-0.52-1.33-0.95c-0.99-1.53-2.31-2.49-4.07-2.98c-1.92-0.54-2.96-2.16-3.84-3.76
		c-0.76-1.39-1.18-2.97-1.72-4.39c0.99-1.66,1.95-3.28,3.34-5.62c2.68-0.9,4.82-3.56,6.98-6.52c2.84-3.89,6.38-7.26,9.58-10.89
		c0.99-1.12,1.9-2.31,2.76-3.53c0.83-1.16,1.71-2.16,3.13-2.17c0.26-0.67,0.33-1.43,0.74-1.82c3.12-2.91,6.31-5.75,9.6-8.73
		c2.8-5.55,8.42-8.86,12.46-13.6c0.53,0.32,0.9,0.55,1.28,0.78c0.11-0.03,0.24-0.03,0.33-0.09c0.09-0.06,0.16-0.18,0.18-0.29
		c0.41-2.52,3.59-2.3,4.49-4.79c0.61-1.69,3.06-2.77,4.79-3.98c0.62-0.43,1.53-0.44,2.43-0.67c1.1-2.2,3.02-3.19,5.02-3.27
		c1.48-2.25,2.8-4.24,4.19-6.35c1.89,0.48,2.69-0.32,3.87-1.78c1.91-2.37,4.83-3.92,7.32-5.83c1.04-0.8,2.13-1.56,3.07-2.48
		c3.6-3.5,8.08-5.59,12.36-8.05c3.18-1.82,6.16-3.98,9.32-5.83c2.54-1.48,5.22-2.7,7.83-4.06c1.24-0.64,2.38-1.66,3.68-1.92
		c1.68-0.34,2.49-1.45,3.47-2.55c0.29-0.32,0.78-0.66,1.18-0.65c3.02,0.04,5.28-1.82,7.39-3.43c3.05-2.32,6.62-3.15,10.02-4.46
		c2.98-1.15,6.07-2.01,9.06-3.14c1.57-0.6,3.02-1.11,4.44,0.19c0.44-0.48,0.78-0.84,1.35-1.45c0.48,0.88,0.86,1.6,1.37,2.53
		c0.21-0.12,0.65-0.37,0.88-0.5c1.95,0.89,3.73,1.79,5.57,2.53c3.42,1.37,4.6,3.46,3.68,7.02c-0.4,1.55-1.05,3.04-1.7,4.87
		c-2.27,0.66-4.65,1.48-7.09,2.03c-4.64,1.04-8.68,3.51-13.06,5.17c-2.47,0.94-4.77,2.39-7.28,3.14c-2.63,0.78-5.12,1.71-7.54,3.01
		c-2.76,1.49-5.68,2.71-8.54,4.02c-2.06,0.94-4.18,1.78-6.21,2.78c-2.99,1.46-5.99,2.93-8.88,4.58c-1.46,0.83-2.68,2.09-4.05,3.11
		c-0.51,0.38-1.13,0.62-1.71,0.91c-1.52,0.79-3.18,1.38-4.54,2.39c-4.76,3.53-9.41,7.19-14.1,10.8c-0.18,0.14-0.43,0.22-0.57,0.39
		c-1.45,1.72-2.68,3.48-5.23,4.1c-1.48,0.36-2.65,2.06-3.9,3.23c-4.26,3.97-8.47,7.99-12.73,11.95c-3.01,2.79-6.15,5.44-9.09,8.3
		c-1.71,1.66-3.12,3.62-4.71,5.41c-2.14,2.4-4.35,4.74-6.45,7.18c-0.81,0.94-1.4,2.08-2.04,3.04c0.79,2.31,1.99,3.82,4.24,3.85
		c1.85,2.21-0.84,3.94-0.45,6.05c1.31-1.1,2.49-2.08,4.05-3.38c-0.01,0.17,0.02-0.31,0.11-1.43c0.85,1.27,1.33,1.98,1.79,2.67
		c0.39-0.28,0.66-0.47,1.12-0.8c0.16,0.82,0.3,1.53,0.42,2.15c0.37,0.13,0.58,0.28,0.8,0.28c5.92,0.01,11.85,0.07,17.77-0.03
		c2.55-0.04,5.15,0.22,7.65-0.83c0.89-0.38,2.06-0.28,3.07-0.17c2.7,0.28,5.4,0.68,8.02,1.02c1.11-1.4,2.1-2.66,3.16-3.99
		c2.3,0.41,4.65-1.33,7.02,0.04c1.53-1.4,3.47-0.61,5.14-1.03c1.17-0.3,2.08-1.64,3.29-2.67c1.88,0.16,4.14-0.23,6.32,0.71
		c0.59,0.26,1.58-0.12,2.28-0.44c2.55-1.15,5.46-1.64,7.98-1.64c2.96,0,4.9-1.25,7.13-2.52c1.87-1.06,3.86-1.91,5.83-2.87
		c0.33,0.85,0.52,1.33,0.7,1.8c4.9-1.35,10.02-1.73,14.5-4.82c0-0.36,0.09-0.94-0.01-1.48c-0.77-3.92,1.28-6.45,4.35-8.21
		c1.87-1.07,4.05-1.61,6.13-2.29c1.24-0.4,2.5-0.75,2.9-2.15c0.66-2.35,2.68-2.98,4.58-3.72c1.88-0.72,3.71-1.01,5.46,0.62
		c0.58,0.54,1.74,0.74,2.61,0.67c3.28-0.27,6.55-0.72,9.82-1.09c1.37-0.15,2.79-0.56,4.09-0.33c2.61,0.47,4.96-0.07,7.43-0.77
		c1.82-0.52,3.83-0.36,5.76-0.56c1.13-0.12,2.24-0.36,3.59-0.58c1.12-3.61,4.01-6.31,4.56-10.24c0.25-1.77,1.42-3.38,2-5.12
		c1.9-5.74,3.72-11.5,5.62-17.39c2.08,1.42,1.48,3.32,1,4.78c-1.13,3.46-2.64,6.79-3.97,10.18c-0.48,1.22-0.9,2.47-1.35,3.7
		c0.22,0.14,0.44,0.29,0.66,0.43c1-1.01,2.01-2.03,2.96-2.99c0.25-1.27,0.38-2.49,0.73-3.65c1.57-5.35,3.23-10.68,4.78-16.04
		c0.17-0.59-0.15-1.31-0.26-2.13c-2.71,0.52-1.2,4.01-3.99,4.71c0.15-1.5,0.12-2.84,0.43-4.09c1.23-5,2.79-9.93,3.82-14.97
		c1.27-6.17,2.05-12.44,3.22-18.63c0.67-3.57,0.47-7.25,1.74-10.75c0.53-1.46,0.56-3.16,0.56-4.75c-0.01-5.38,0.06-10.76-0.27-16.12
		c-0.34-5.49-1.33-10.94-1.65-16.43c-0.53-9.03-0.75-18.07-1.12-27.76c1.1,0.89,1.59,1.29,2.34,1.89c0.37-1.2,0.71-2.31,1.02-3.3
		c2.51-0.88,4.86-1.7,7.07-2.48c2.67,0.14,5.29,0.15,7.87,0.48c1.01,0.13,2.21,0.74,2.84,1.52c1.93,2.39,3.92,4.83,5.33,7.54
		c0.96,1.84,1.25,4.15,1.38,6.27c0.16,2.48-0.18,4.99-0.29,7.48c-0.02,0.45,0.11,0.94-0.01,1.36c-1.4,4.97-0.75,10.09-1.09,15.14
		c-0.08,1.14,0.15,2.29,0.17,3.44c0.02,1.46-0.13,2.93-0.04,4.39c0.24,4.02,0.51,8.04,0.89,12.05c0.24,2.6,0.75,5.17,1.01,7.76
		c0.75,7.45,2.7,14.64,4.56,21.85c2.05,7.9,4.12,15.8,6.3,23.67c0.6,2.17,1.63,4.2,2.24,6.42c1.27,4.65,2.9,9.22,4.78,13.67
		c1.63,3.88,3.8,7.53,5.85,11.52c2.32-0.33,4.37-0.49,6.35-0.93c2.82-0.63,5.23-0.07,7.32,1.92c1.24,1.17,2.51,1.83,4.35,1.06
		c0.87-0.37,2.06,0.11,3.07-0.04c0.78-0.12,1.51-0.61,2.55-1.06c4.62,6.29,11.39,6.24,18.34,5.46c1.6-3.01,0.24-5.6,0.13-8.17
		c-0.09-2.14-0.57-4.26-0.97-6.38c-0.96-5.06-2.14-10.09-2.9-15.17c-0.71-4.75-1-9.55-1.48-14.34c-0.08-0.78-0.2-1.55-0.34-2.6
		c-1.05,0.08-1.99-0.04-2.79,0.24c-2.9,1.02-5.8,1.83-8.9,2.12c-1.63,0.15-3.15,1.22-4.78,1.53c-1.04,0.2-2.22-0.17-3.31-0.39
		c-2.66-0.55-5.34-1.07-7.96-1.78c-2.86-0.77-5.81-1.46-7.78-3.98c-1.3-1.66-3.74-2.53-3.52-5.71c0.68-3.89,3.32-6.48,7.37-7.36
		c1.15-1.97,2.2-3.78,3.24-5.58c0.1,0.11,0.21,0.21,0.31,0.32c1.34-0.81,2.64-1.71,4.04-2.4c0.87-0.43,1.95-0.84,2.85-0.71
		c2.57,0.37,5.2-0.11,7.75,0.86c1.47,0.56,3.2,0.56,4.42-1c1.96,1.52,3.88,0.91,5.8,0.21c0-5.77,0.08-11.38-0.03-16.98
		c-0.08-4.15-0.48-8.28-0.62-12.43c-0.1-2.82,0.82-5.39,2.05-7.39c2.17,0.34,4.02,0.63,5.92,0.93c0.56-0.7,1.05-1.31,1.65-2.06
		c0.51,0.39,1.02,0.79,1.78,1.37c1.01-0.71,2.09-1.47,3.32-2.33c2.58,1.46,5.38,2.56,7.06,5.51c1.64,2.87,3.89,5.39,5.7,8.17
		c0.59,0.9,0.83,2.15,0.89,3.26c0.18,3.23-0.03,6.41-0.96,9.58c-0.62,2.12-1.34,4.54,1.43,6.22c-0.33,0.47-0.67,0.97-1.18,1.71
		c0.6,0.35,1.13,0.93,1.68,0.95c5.69,0.22,11.23,1.99,17.01,1.59c1.67-0.11,3.48,1.04,5.06,0.74c1.68-0.33,2.6,0.91,4.11,0.98
		c6.51,0.3,13.01,1.1,19.51,1.69c3.44,0.31,6.88,0.51,10.31,0.83c4.32,0.4,8.71,0.52,12.9,1.48c2.03,0.46,4.07,0.24,6.05,0.83
		c2.06,0.61,4.23,0.82,6.64,1.26c-0.04-0.31-0.09-0.75-0.15-1.23c1.99-0.82,2.12,1.03,2.44,1.59c6.02,1.56,11.5,3.23,17.1,4.29
		c1.94,0.37,4.02,0.42,6.02,0.85c1.11,0.24,2.3,0.05,3.41,0.3c1,0.22,1.92,0.75,3.21,1.28c0.67-0.2,1.62-0.49,2.62-0.79
		c-0.11-0.52-0.07-1.03-0.25-1.13c-0.7-0.38-1.53-0.52-2.18-0.95c-0.46-0.31-0.7-0.94-1.27-1.77c2.96,0.82,5.44,1.49,7.91,2.22
		c0.88,0.26,1.77,0.56,2.55,1.03c1.25,0.74,2.53,1.21,3.93,1.64c1.76,0.54,3.24,1.98,4.87,3.04c-1.32,1.63-1.32,1.63-3.83,1.35
		c0.44,0.71,0.63,1.46,1.07,1.67c3.67,1.73,4.7,5.39,6.42,8.55c0.27,0.49,0.42,1.23,0.83,1.42c2.03,0.96,2.24,3.09,3.34,4.72
		c-1.08,1.79-2.63,2.78-4.5,3.54c-2.82,1.15-5.49,2.66-8.3,3.84c-2.71,1.15-5.51,2.11-8.28,3.1c-2.44,0.88-4.97,1.54-7.34,2.56
		c-3.54,1.52-6.98,3.28-10.48,4.9c-3.62,1.68-7.31,3.21-10.87,5.01c-4.72,2.39-9.3,5.04-14,7.44c-2.03,1.04-4.22,1.76-6.35,2.6
		c-5.34,2.1-10.66,4.28-16.04,6.26c-5.42,1.99-10.92,3.77-16.37,5.66c-0.31,0.11-0.57,0.36-0.9,0.59c-0.03,1.73,0.59,3.08,2.18,3.87
		c-0.29,0.43-0.52,0.76-1.17,1.7c1.43-0.37,2.29-0.59,3.32-0.85c0.12,4.21,4.28,2.46,6.4,4.4c0,0.77,0,1.76,0,2.82
		c3.53,1.23,6.83,2.54,10.21,3.53c4.63,1.36,9.34,2.41,13.98,3.73c4.87,1.38,9.68,2.99,14.56,4.36c9.54,2.68,19.12,5.18,28.64,7.9
		c5.74,1.64,11.37,3.67,17.12,5.28c7.98,2.23,16.01,4.27,24.05,6.26c1.39,0.34,2.93,0.05,4.21,0.05c1.56,0.81,2.95,1.81,4.5,2.3
		c5.7,1.8,11.45,3.45,17.2,5.13c0.88,0.26,1.83,0.56,2.71,0.46c4.15-0.44,7.85,1.32,11.73,2.21c0.66,0.15,1.32,0.3,2.14,0.49
		c0.27-0.63,0.76-1.2,0.65-1.62c-1.23-4.95-1.66-10.03-2.53-15.04c-0.29-1.69-0.93-3.33-1.2-5.03c-0.83-5.11-1.55-10.24-2.35-15.35
		c-0.45-2.83-1.02-5.64-1.46-8.47c-0.87-5.54-1.73-11.09-2.51-16.65c-0.23-1.66-0.52-3.19-2.21-4.1c-4.05,1.51-8.02,3.44-12.22,4.46
		c-6.34,1.54-12.39,3.92-18.63,5.72c-7.23,2.08-13.93,5.65-21.36,7.2c-3.78,0.79-7.35,2.52-11.08,3.59
		c-2.29,0.66-4.7,0.89-7.06,1.27c-0.43,0.07-0.92,0-1.34-0.14c-2.27-0.76-4.51-1.59-6.78-2.34c-1.28-0.43-2.59-0.76-3.89-1.12
		c-0.44-0.12-1-0.07-1.33-0.32c-3.22-2.41-7.29-4.05-7.99-8.75c-0.05-0.34-0.17-0.67-0.32-1.25c3.1-3.16,4.11-7.89,7.74-10.98
		c1.15-0.98,2.53-0.95,3.45-1.74c2.18-1.85,4.8-1.3,7.22-1.77c1.77-0.35,3.59-0.42,5.36-0.77c1.46-0.29,2.8-0.76,4.37-0.3
		c0.89,0.27,2.07-0.03,3.01-0.38c2.56-0.94,5.01-2.06,7.88-1.99c1.07,0.02,2.16-0.95,3.24-1.47c0.12,0.34,0.22,0.61,0.48,1.3
		c0.42-0.75,0.75-1.33,0.95-1.69c1.11,0.17,1.89,0.5,2.56,0.35c6.36-1.37,12.82-2.31,18.99-4.55c2.24-0.81,4.69-1.06,7.04-1.59
		c3.85-0.87,7.75-1.56,11.52-2.69c2.16-0.65,4.1-2.01,6.01-2.99c-1.15-7.42-2.18-14.43-3.34-21.42c-0.58-3.49-1.35-6.96-2.1-10.42
		c-0.6-2.78-1.41-5.52-1.93-8.31c-0.67-3.61-1.75-7.29-1.52-10.87c0.23-3.58-0.56-6.73-1.45-10.04c-2.28-8.52-2.17-17.28-2.15-26
		c0.01-4.45-0.13-8.88-0.35-13.32c-0.22-4.39-0.33-8.79-0.59-13.19c-0.1-1.65,0.97-3.54,0.24-5.81c3.84-2.61,6.4-6.54,9.36-10.22
		c2.62,0.54,5.09,1.05,8.08,1.67c0.2,0.35,0.87,1.08,1.03,1.91c0.49,2.57,2.13,4.33,4,5.88c2.44,2.02,4.4,4.33,5.56,7.31
		c0.33,0.84,0.99,1.54,1.42,2.19c0.09,1.46,0.18,2.81,0.27,4.16c0.04,0.56,0.22,1.16,0.1,1.69c-0.92,4.25-1.4,8.52-1.57,12.88
		c-0.14,3.73-1.16,7.42-1.74,11.13c-0.18,1.13-0.22,2.28-0.26,3.42c-0.06,1.6-0.12,3.11-1.03,4.62c-0.58,0.96-0.43,2.39-0.48,3.62
		c-0.03,0.9,0.26,1.82,0.21,2.72c-0.11,1.91-0.5,3.81-0.52,5.72c-0.01,1.8,0.32,3.61,0.49,5.41c0.21,2.14,0.45,4.27,0.6,6.42
		c0.18,2.4,0.27,4.8,0.42,7.2c0.09,1.47,0.18,2.95,0.35,4.42c0.71,6.01,1.25,12.06,2.26,18.02c0.58,3.45-0.05,7.2,2.31,10.5
		c0.72,0.12,1.59,0.27,2.75,0.46c-0.78,0.49-1.37,0.86-2.68,1.69c5.26-0.34,9.72-0.06,14.11-1.16c2.43-0.6,4.92-0.93,7.36-1.48
		c2.23-0.51,4.56-0.87,6.61-1.8c3.59-1.62,7.4-1.45,11.14-1.93c0.68-0.09,1.46,0.08,2.04-0.19c3.73-1.73,7.84-1.63,11.73-2.53
		c3.55-0.82,7.06-1.8,10.6-2.66c4.91-1.19,9.86-2.26,14.76-3.5c5.84-1.48,11.66-3.06,17.47-4.67c2.53-0.7,5.08-1.44,7.49-2.45
		c2.57-1.08,5.2-0.9,7.83-0.84c2.63,0.05,4.9,1.14,6.76,3.03c0.46,0.47,0.98,0.88,1.72,1.53c0.23,1.52,0.52,3.41,0.83,5.51
		c1.25,0.3,2.58,0.61,4,0.95c0.6,1.13,1.24,2.33,1.81,3.4c0,2.27,0,4.41,0,6.5c-2.24,1.32-4.41,1.85-6.92,2
		c-4.71,0.28-9.49,0.79-14.03,2c-3.89,1.04-7.75-0.04-11.56,0.83c-1.32,0.3-2.7,0.35-4.06,0.43c-1.67,0.1-3.37-0.04-5.02,0.21
		c-1.37,0.21-2.73,0.72-3.99,1.31c-2.66,1.23-5.38,1.9-8.64,1.44c-0.33,0.49-0.78,1.16-1.14,1.68c-1.34,0-2.37-0.01-3.4,0
		c-0.56,0-1.22-0.16-1.67,0.07c-3.68,1.97-7.73,2.5-11.76,3.17c-3.94,0.66-7.87,1.38-11.76,2.27c-2.43,0.55-4.78,1.45-7.15,2.19
		c-0.61-0.45-1.14-0.84-1.84-1.36c-0.92,0.69-1.81,1.36-2.88,2.16c-3.3-0.68-6.43,0.73-9.38,2.11c-3.99,1.87-8.17,3.02-12.32,4.32
		c-2.06,0.65-4.34,0.92-5.68,3.17c0.48,3.25,1.39,6.63,1.37,10c-0.02,3.76,1.24,7.16,1.97,10.71c1.01,4.93,1.15,9.99,2.62,14.86
		c0.88,2.9,0.91,6.05,1.39,9.07c0.84,5.23,1.79,10.45,2.57,15.69C1283.6,730.3,1283.96,734.04,1284.39,737.62z M1083.6,667.75
		c3.11,0.46,5.57-0.94,8.03-1.79c0.17-1.02,0.3-1.8,0.43-2.58c0.16,0,0.31,0.01,0.47,0.01c0.25,0.69,0.5,1.38,0.78,2.16
		c1.13-0.37,2.14-0.62,3.08-1.03c5.41-2.32,10.77-4.73,16.2-6.98c2.67-1.11,5.16-2.38,6.94-4.89c0.87,1.72,2.02,1.18,2.99,0.55
		c3.82-2.44,7.62-4.91,11.37-7.46c1.46-0.99,2.63-2.46,4.16-3.29c2.76-1.5,5.71-2.66,8.56-4c0.8-0.38,1.56-0.88,2.31-1.36
		c2.85-1.82,5.71-3.63,8.52-5.51c1.71-1.14,3.34-2.4,4.72-3.4c0.09-1.31,0.16-2.19,0.25-3.48c-8.78-1.37-17.48-2.79-26.2-4.07
		c-3.57-0.52-7.18-0.78-10.79-1.02c-1.19-0.08-2.42,0.49-3.6,0.39c-3.38-0.29-6.72-1.19-10.16-0.34c-0.98,0.24-2.07,0.07-3.1,0.07
		c-6.88-0.01-13.77-0.23-20.64,0.04c-5.38,0.21-10.74,1.01-16.1,1.63c-2.59,0.3-5.16,0.77-7.77,1.17c-0.62,3.28-1,6.18,0.48,9.03
		c0.28,0.54,0.23,1.26,0.29,1.9c0.3,3.16,0.24,6.41,0.96,9.48c1.34,5.77,1.34,11.66,2.11,17.48c0.53,3.97,1.01,7.94,1.56,12.28
		C1074.63,671.74,1079.32,670.57,1083.6,667.75z M1059.18,758.17c0.1,4.68,3.36,10.86,8.43,13.59c0.07-2.82-0.78-5.2-3.32-7.08
		c0.36-2.35,0.72-4.68,1.08-7.02c-0.17-0.02-0.33-0.05-0.5-0.07c-0.26,0.4-0.53,0.8-1.23,1.87c0.13-1.3,0.06-1.93,0.27-2.45
		c0.24-0.59,1.05-1.09,1.04-1.61c-0.06-2.6-0.16-5.21-0.55-7.78c-0.36-2.32-1.86-4.68-1.54-6.83c0.55-3.74-1.62-6.78-1.74-10.26
		c-0.02-0.71-0.61-1.56-1.18-2.06c-2.18-1.94-2.19-1.9-2.46-3.93c-0.38-2.86-0.86-5.7-1.19-8.56c-0.33-2.85-0.89-5.75-0.65-8.56
		c0.21-2.4-0.64-4.15-1.71-6.29c-2.65,1.86-5.34-0.33-8.19,0.71c-2.59,0.95-5.72,0.77-8.57,0.54c-2.8-0.23-5.55-1.14-8.2-1.73
		c-0.81-0.85-1.51-1.59-2.13-2.24c-3.78,0.51-3.95,0.22-5.9-2.8c-1.71-2.64-3.87-5-5.88-7.43c-0.16-0.2-0.76-0.03-1.12-0.03
		c-0.05,0.37-0.12,0.51-0.08,0.59c2.97,5.55,5.94,11.1,8.92,16.64c2.98,5.53,7.13,10.31,10.12,15.85c1.52,2.82,3.26,5.53,4.96,8.25
		c2.98,4.76,6.72,8.96,9.86,13.63C1051.24,748.3,1054.01,754.14,1059.18,758.17z M968.52,630.14c-1.21,0.62-2.08,1.06-3.13,1.6
		c1.56,1.54,1.87,3,0.82,4.77c-0.49,0.84-0.44,1.98-0.77,2.94c-0.4,1.19-0.65,2.64-1.48,3.43c-2.31,2.2-2.85,5.19-3.79,7.92
		c-2.03,5.92-3.65,11.98-5.45,18.04c0.44,0.05,0.91,0.11,1.43,0.17c-0.09,1.5-2.99,1.69-1.4,3.94c0.83-0.39,1.7-0.81,2.41-1.14
		c0.51,0.43,0.98,1.14,1.5,1.19c2.37,0.23,4.75,0.36,7.13,0.35c3.33-0.01,6.67,0.03,9.97-0.34c3.36-0.38,6.91,0.33,10.17-1.52
		c-0.1-0.44-0.16-0.88-0.31-1.3c-2.12-5.9-4.25-11.8-6.4-17.69c-2.37-6.51-5.53-12.65-8.63-18.83
		C970.04,632.56,969.34,631.52,968.52,630.14z M952.93,624.32c0.27,0.02,0.54,0.04,0.81,0.06c0.5-1.24,0.93-2.51,1.5-3.71
		c0.67-1.41,1.79-2.69,2.15-4.16c0.95-3.98,1.63-8.03,2.33-12.07c0.18-1.07,0.03-2.19,0.03-3.58c-2.4,1.99-0.64,4.68-1.88,6.74
		c-0.58,0.31-1.26,0.68-2.14,1.16c0.76,2.85-1.99,5.06-1.28,7.96C955.09,619.42,952.19,621.6,952.93,624.32z"/>
	<path d="M427.86,690.76c0.75,0.09,1.4,0.16,2.33,0.27c-0.47,0.65-0.82,1.13-0.98,1.35c1.71,0.66,3.43,1.33,5.81,2.26
		c5.85-0.96,12.47-2.09,19.1-3.11c3.94-0.6,7.95-0.77,11.85-1.57c5.94-1.22,12.15-0.74,17.93-2.86c1.17-0.43,2.3-0.98,3.41-1.55
		c2.05-1.03,3.5-0.86,5.21,0.82c1.67,1.64,3.88,1.86,5.97,2.39c0.54,0.14,1.12,0.12,1.83,0.19c0.32,0.99,0.63,1.94,0.99,3.03
		c2.43,1.14,4.74,2.42,5.28,5.68c0.17,1.01,1.94,1.75,2.95,2.59c-1.09,1.84-1.67,3.44-2.78,4.51c-1.19,1.15-2.77,2.16-4.35,2.57
		c-2.86,0.73-5.85,0.9-8.77,1.41c-2.69,0.47-5.34,1.23-8.05,1.58c-2.86,0.37-5.75,0.95-8.67,0.4c-0.43-0.08-0.98-0.06-1.33,0.15
		c-2.22,1.28-4.72,0.79-7.08,1.13c-0.76,0.11-1.67,0-2.35-0.33c-3.37-1.63-6.87-1.61-10.39-0.88c-2.88,0.59-5.72,1.41-8.56,2.16
		c-4.13,1.08-8.6,0.95-12.54,3.64c-0.29,1.31-0.18,2.77,0.55,4.35c0.8,1.74,1.08,3.72,1.67,5.57c1.32,4.11,2.84,8.17,4.03,12.32
		c1.36,4.75,2.3,9.61,3.7,14.35c1.62,5.5,3.55,10.92,5.33,16.37c0.64,1.97,1.25,3.94,1.89,5.91c1.13,3.5,2.28,6.99,3.38,10.51
		c0.51,1.64,0.83,3.34,1.39,4.95c1.13,3.28,2.29,6.56,3.63,9.76c0.35,0.84,1.41,1.39,2.26,2.18c0.4,2.5,1.36,4.85,3.41,6.7
		c0.83,0.75,1.44,1.77,2.08,2.71c2.92,4.34,5.14,9.05,7.43,13.75c2.34,4.79,5.28,9.27,7.85,13.95c0.87,1.59,1.34,3.4,2.07,5.07
		c1.32,3.06,2.87,6.03,3.99,9.15c1.11,3.1,1.8,6.35,2.66,9.54c0.12,0.44-0.08,1.14,0.16,1.33c2.18,1.7,1.72,4.35,2.5,6.55
		c0.41,1.14,1.29,2.12,1.68,3.27c1.32,3.88,2.81,7.74,3.66,11.72c0.78,3.68,2.12,7,3.98,10.21c0.9,1.55,1.52,3.27,2.38,5.17
		c-2.67,2.19-5.08,4.17-7.45,6.11c-3.73,0.07-7.01-2.49-10.87-1.56c-2.55-1.75-5.18-3.57-7.92-5.46c-0.02-3.89-2.28-7.01-3.74-10.43
		c-0.62-1.46-1.16-2.95-1.69-4.45c-0.49-1.4-0.91-2.83-1.37-4.24c-0.74-2.27-1.4-4.58-2.27-6.8c-0.66-1.69-1.59-3.28-2.43-4.9
		c-2.58-5-4.17-10.4-6.42-15.54c-1.57-3.56-3.25-7.07-4.77-10.65c-0.85-2-1.43-4.12-2.2-6.16c-1.34-3.52-3.17-6.92-4.02-10.55
		c-1.16-4.97-3.09-9.59-5.09-14.22c-1.23-2.85-3.04-5.47-4.02-8.38c-1.09-3.24-1.52-6.7-2.29-10.05c-0.56-2.46-1.04-4.96-1.82-7.35
		c-1.97-6.12-4.13-12.18-6.12-18.29c-1.2-3.68-2.22-7.41-3.34-11.11c-2.03-6.69-4.06-13.38-6.11-20.07
		c-1.68-5.5-3.38-10.99-5.08-16.48c-0.13-0.43-0.36-0.84-0.56-1.28c-2.5,0.54-4.92,1.11-7.36,1.59c-2.38,0.47-4.76,0.79-6.46,2.87
		c-0.37,0.45-1.24,0.51-1.9,0.7c-4.5,1.26-9.01,2.5-13.59,3.76c0.13,2.03,0.98,3.43,2.11,4.98c2.86,3.91,5.32,8.13,7.94,12.22
		c0.43,0.66,0.75,1.59,1.37,1.9c2.51,1.24,3.87,3.51,5.46,5.59c0.48,0.63,1.01,1.24,1.6,1.76c1.93,1.73,4.38,2.9,5.23,5.71
		c0.26,0.87,1.32,1.62,2.17,2.15c2.27,1.41,3.47,3.49,4.67,5.81c1.45,2.8,1.72,5.47,1.26,8.56c-0.49,3.26-0.5,6.56-1.23,9.85
		c-0.46,2.06-0.91,3.69-2.61,4.93c-0.44,0.32-0.7,0.89-1.1,1.42c-4.17,0.44-8.34,0.83-12.49,1.33c-3.74,0.46-7.48,1.53-11.21,1.46
		c-6.93-0.12-13.53,2.26-20.43,2.2c-4.33-0.03-8.66,0.3-12.98,0.62c-1.9,0.14-3.77,0.88-5.67,0.92c-9.2,0.22-18.32,1.5-27.48,2.17
		c-1.48,0.11-3.07,0.28-4.39,0.91c-3.32,1.58-6.93,1.62-10.41,2.15c-4.75,0.72-9.57,0.9-14.37,1.3c-0.69,0.06-1.48-0.1-2.05,0.19
		c-2.55,1.27-5.36,0.71-7.99,1.25c-3.99,0.82-8.22,1.06-11.93,2.45c-4.23,1.59-8.58,1.49-12.83,2.33c-1.57,0.31-3.44-0.94-5.17-1.47
		c-1.4-0.43-2.79-1.2-4.2-1.24c-4.21-0.14-4.73-0.19-7.99-2.59c-0.12-1.65-0.24-3.36-0.36-5.04c0.8-1.07,1.55-2.06,2.22-2.95
		c-0.59-1.9-1.12-3.61-1.72-5.55c2.9-0.76,4.44-2.21,5.49-4.91c1.31-3.36,3.69-6.3,5.7-9.36c0.31-0.47,1.16-0.59,1.57-0.78
		c1.36-3.2,2.67-6.22,3.92-9.27c0.57-1.41,0.62-2.99,2-4.1c0.54-0.43,0.45-1.65,0.66-2.51c0.22-0.92,0.23-2.47,0.73-2.65
		c2.76-0.98,1.55-3.09,1.67-4.83c0.01-0.1,0.1-0.2,0.21-0.39c0.44-0.12,0.96-0.26,1.62-0.45c-1.64-1.84-0.43-3.06,0.9-4.12
		c-0.21-0.66-0.37-1.18-0.55-1.74c0.82-0.67,1.52-1.25,2.23-1.84c0.17-3.8,1.9-7.12,3.27-10.56c0.74-1.86,1.54-3.69,1.82-6.06
		c-1.63,0.68-3.36,1.2-4.88,2.08c-2.67,1.54-5.12,3.46-7.83,4.91c-2.2,1.19-5.03,1.46-6.88,2.99c-2.04,1.68-4.31,2.64-6.6,3.59
		c-5.31,2.19-10.69,4.22-16.1,6.13c-2.11,0.74-4.4,0.97-6.6,1.46c-5.08,1.14-10,2.87-15.27,3.29c-3.47,0.27-6.85,1.47-10.3,2.11
		c-1.07,0.2-2.23-0.1-3.34-0.06c-1.7,0.06-3.4,0.18-5.09,0.34c-1.14,0.11-2.28,0.55-3.39,0.47c-2.67-0.2-5.24,0.06-7.84,0.65
		c-1.27,0.29-2.7-0.09-4.11-0.17c-1.83,2.25,0.65,3.52,1.17,5.39c-0.32,0.51-0.71,1.14-1.08,1.73c3.56,3.72,5.78,8.05,7.6,12.59
		c1.13,2.83,2.58,5.38,4.98,7.38c0.33,4.44,4.06,7.19,5.43,11.22c-0.56-0.62-1.13-1.24-1.88-2.07c0.11,0.54,0.06,0.93,0.24,1.13
		c0.82,0.92,1.64,1.87,2.58,2.67c1.66,1.42,2.99,2.91,1.8,5.48c1.2,1.26,2.38,2.45,3.5,3.71c0.45,0.51,0.9,1.1,1.11,1.73
		c1.97,6.04,1.96,6.04,6.2,10.28c1.02-0.65,2.07-1.32,3.51-2.24c1.46,1.18,3.18,2.31,4.58,3.75c2.65,2.72,5.02,5.66,6.72,9.14
		c0.95,1.94,2.46,3.6,3.69,5.41c2.66,3.92,5.53,7.73,7.89,11.83c2.57,4.46,4.65,9.2,6.94,13.82c0.15,0.31,0.37,0.63,0.39,0.96
		c0.11,3.3,2.25,5.7,3.65,8.44c0.83,1.63,1.58,3.36,2,5.13c0.4,1.7,0.65,3.38,1.85,4.74c0.07,0.08,0.14,0.21,0.14,0.31
		c-0.14,2.99,1.43,5.41,2.53,8c0.16,0.38-0.26,1.02-0.47,1.73c-1.23-0.39-2.29-0.72-3.54-1.11c-0.12,1.08-0.23,2.06-0.4,3.61
		c-3.4-1.79-5.36-4.89-8.5-6.27c-1.86,1.49-0.48,3.31-0.21,4.95c-2.25,0.97-2.41,0.87-4.18-2.49c-0.49,0.07-1.04,0.15-1.96,0.28
		c-2.17-3.72-4.41-7.57-6.71-11.51c0.28-0.64,0.54-1.23,0.96-2.17c-2.08-3.24-4.27-6.66-6.67-10.39c-0.61,0.78-0.93,1.2-1.26,1.61
		c-0.2-0.07-0.5-0.09-0.58-0.23c-2.24-3.73-4.54-7.42-6.63-11.23c-0.6-1.1-0.44-2.59-0.9-3.79c-0.48-1.28-1.28-2.45-1.95-3.66
		c-1.03-1.87-1.64-4.03-4.22-4.62c-0.68-0.16-1.19-1.34-1.64-2.13c-1.5-2.66-2.95-5.36-4.4-8.05c-1.14-2.1-2.55-4.03-3.83-6.01
		c-3.08-4.75-6.98-9.2-7.78-15.17c-0.13-1-0.63-1.99-1.14-2.88c-2.1-3.66-4.05-7.44-6.48-10.87c-1.72-2.42-3.82-4.55-4.98-7.36
		c-0.56-1.36-1.2-2.69-1.86-4.17c0.29-0.6,0.67-1.4,1.13-2.36c-5.68-2.87-6.85-8.49-8.89-13.55c-0.72-1.79-1.29-3.65-2.07-5.41
		c-0.72-1.62-1.52-3.21-2.48-4.7c-1.03-1.58-2.48-2.77-4.47-2.89c-3.31-0.2-6.63-0.3-9.94-0.48c-4.71-0.26-9.41-0.65-14.12-0.8
		c-4.46-0.14-8.94,0.2-13.38-0.14c-3.26-0.25-6.48-1.2-9.69-1.98c-0.54-0.13-1.32-0.96-1.31-1.45c0.05-2.03-1.35-3.34-2.08-4.98
		c-0.48-1.07-0.35-2.43-0.39-3.66c-0.05-2.02-0.01-4.04-0.01-6.51c1.38-1.44,2.88-3.48,5.38-4.62c1.23-0.56,1.95-2.23,3.24-3.8
		c1.36,0.43,3.22,1.08,5.12,1.59c4.42,1.2,8.96,2.06,13.26,3.61c2.45,0.88,4.81,1.95,7.4,2.41c2.22,0.4,4.41,0.97,6.64,1.32
		c0.73,0.11,1.53-0.23,2.65-0.43c-1.07-2.27-2.21-4.23-2.91-6.35c-0.62-1.9-2.63-3.75-0.76-5.95c-1.22-1.81-2.86-3.47-3.54-5.45
		c-1.18-3.42-3.37-6.17-5.1-9.21c-0.45-0.8-1.1-1.66-1.11-2.5c-0.06-4.05-2.09-7.47-3.42-11.1c-0.5-1.37-1.57-2.53-2.19-3.88
		c-1-2.19-1.88-4.43-2.74-6.69c-1.06-2.79-1.99-5.62-3.05-8.4c-1.15-2.99-2.2-6.04-3.67-8.87c-0.8-1.54-2.16-3.1-3.66-3.86
		c-1.51-0.76-3.38-1-5.35-0.63c-2.31,0.44-4.83,0.38-7.16-0.01c-5.09-0.85-10.04-0.02-14.88,1.16c-4.04,0.98-8.02,1.78-12.21,1.8
		c-4.47,0.02-8.94,0.35-13.4,0.73c-2.24,0.19-4.46,0.7-6.66,1.23c-2.41,0.58-4.74,1.51-7.16,1.99c-1.15,0.23-2.54,0.03-3.64-0.42
		c-2.85-1.13-5.77-1.47-8.79-1.52c-1.44-0.02-2.87-0.38-4.19-0.57c-0.77-1.71-1.38-3.06-1.99-4.41c0.51-1.77,1-3.5,1.52-5.32
		c-0.93-0.99-1.99-2.13-3.41-3.64c1.06-0.64,1.96-1.64,2.86-1.63c2.45,0.02,3.94-1.51,5.79-2.79c-0.3-0.48-0.54-0.85-0.82-1.31
		c3.33-2.62,7.34-2.56,11.6-3.01c-0.26,1.21-0.45,2.14-0.66,3.12c1.37-0.06,2.74,0.23,2.46-1.9c0.54,0.61,0.92,1.03,1.42,1.59
		c1.12-0.82,2.12-1.55,3.27-2.38c1.3,1.43,2.98,2.16,4.94,1.95c2.34-0.25,4.67-0.87,7-0.88c4.34-0.01,8.72,0.05,13.02,0.59
		c4.03,0.5,8-0.06,12,0.03c0.8,0.02,1.61-0.09,2.41-0.06c3.99,0.19,7.97,0.4,11.96,0.63c0.9,0.05,1.8,0.17,2.84,0.27
		c0.05-0.87,0.11-1.75,0.12-1.93c-1.39-2.76-2.61-4.92-3.59-7.18c-1.65-3.79-3.24-7.6-4.67-11.47c-1.18-3.19-2.72-6.4-1.37-9.57
		c1.18-1.13,2.12-2.04,3-2.88c-0.47-1.12-0.84-2-1.21-2.89c0.15-0.1,0.31-0.19,0.46-0.29c0.6,0.56,1.21,1.11,2.08,1.91
		c0.29-1.22,0.5-2.14,0.69-2.92c2.11,0.4,4.14,0.79,6.2,1.19c-0.75,1.48-0.75,1.48,0.37,3.59c0.74-0.43,1.48-0.86,2.45-1.42
		c0.93,0.63,2.08,1.09,2.73,1.93c1.62,2.09,3.69,4.18,4.33,6.6c1.13,4.23,3.59,8.03,4.13,12.36c0.52,4.15,2.77,7.49,4.37,11.14
		c0.27,0.62,0.66,1.19,0.94,1.67c0.78-0.07,1.8-0.48,2.26-0.14c2.2,1.64,4.78,1.3,7.23,1.56c0.24,0.7,0.43,1.27,0.7,2.04
		c0.49-0.74,0.85-1.27,1.31-1.96c5.09,0.44,10.2,0.88,15.21,1.32c0.6,1.1,1.03,1.89,1.53,2.81c8.43,0.45,16.79,2.7,25.26,1.12
		c0.69,0.87,1.08,1.58,1.67,2.04c0.41,0.32,1.1,0.42,1.65,0.39c3.3-0.23,6.54,1.78,10.09,0.13c0.38,0.45,0.77,0.93,0.84,1.01
		c3.88,0.68,7.37,1.24,10.84,1.92c2.98,0.59,6.03,1.05,8.87,2.08c1.85,0.67,3.47,0.91,5.33,0.14c2.82,2.21,6.17,3.04,9.58,2.76
		c5.67-0.46,10.41,2.33,15.52,3.82c1.18,0.34,2.29,0.98,3.48,1.2c6.65,1.19,12.77,3.94,18.9,6.54c5.18,2.19,10.12,4.94,15.15,7.48
		c1.65,0.83,3.29,1.57,5.28,1.28c-0.13-4.85,0.26-9.53,1.55-14.11c0.06-0.22,0.22-0.44,0.21-0.65c-0.22-3.51,1.33-6.65,2.04-9.96
		c0.41-1.89,0.35-3.87,0.47-5.39c0.99-1.67,2.23-2.95,2.46-4.39c0.24-1.44-0.52-3.05-0.83-4.53c1.99-1.68,5.02-1.41,5.76-4.55
		c7.34,3.39,12.2,8.3,12.97,16.33c0.52,5.4,0.28,10.75-2.12,15.83c-0.66,1.4-0.6,3.13-1,4.68c-1.24,4.76-2.55,9.51-3.84,14.26
		c-0.57,2.08-1.04,4.2-1.8,6.21c-0.96,2.53-1.29,5.23-2.95,7.59c-1.21,1.72-1.6,4.03-2.36,6.07c-1.65,4.43-3.46,8.8-4.91,13.29
		c-1.28,3.97-2.8,7.74-5.62,10.89c-0.37,0.41-0.78,1.05-0.73,1.54c0.26,2.43-1.51,4.03-2.38,5.96c-1.71,3.81-3.89,7.41-5.54,11.24
		c-0.79,1.84-0.99,3.99-1.13,6.03c-0.14,2-1.12,3.42-2.28,4.9c-2.87,3.66-4.82,7.77-5.89,12.3c-0.15,0.64-0.54,1.22-0.74,1.65
		c0.66,1.8,1.68,2.36,3.34,2.02c3.49-0.72,6.74,0.92,10.14,1.16c0.73,0.05,1.42,0.65,2.12,0.99c1.81-0.52,3.44-1.16,5.42-0.61
		c1.12,0.31,2.53-0.68,3.83-0.74c4.09-0.2,8.19-0.26,12.29-0.35c2.39-0.05,4.78-0.09,7.18-0.08c2.99,0.02,5.98,0.09,8.97,0.14
		c0.45,0.01,0.92,0.03,1.36-0.06c5.21-1.1,10.5-0.66,15.76-0.83c1.59-0.05,3.16-0.41,4.75-0.56c3.07-0.31,6.15-0.51,9.22-0.86
		c7.78-0.89,15.55-1.79,23.31-2.78c2.38-0.31,4.76-0.84,6.84-2.29c0.65-2.58-1.12-3.98-2.76-5.05c-2.09-1.37-3.37-3.07-3.96-5.59
		c0.37-0.69,0.8-1.48,1.26-2.34c-4.04-10.02-10.58-19.02-12.31-30.42c-1.59,0.2-3.08,0.19-4.43,0.61c-2.07,0.65-3.99,1.86-6.08,2.34
		c-1.59,0.36-3.37,0.05-5.04-0.13c-2.14-0.24-4.33-1.01-5.56,0.63c-2.06-0.32-3.68-0.68-5.31-0.8c-1.93-0.14-2.34-0.47-3.12-3.26
		c-0.94-0.66-1.88-1.31-3.08-2.14c0-1.15,0.07-2.39-0.02-3.62c-0.07-1-0.08-2.13-0.55-2.96c-0.92-1.62-0.95-3.03,0.41-4.66
		c2.13-0.46,4-1.47,4.52-4.23c0.19-1.03,1.26-1.89,1.74-2.56c6.61-3.13,13.18-5.35,20.18-5.31c0.55-1.22,0.97-2.13,1.4-3.09
		c-0.04-0.3,0-0.69-0.16-0.96c-0.51-0.9-1.05-1.69-0.55-2.87c0.29-0.68,0.23-1.64,0.01-2.38c-1.59-5.5-0.79-10.68,1.8-15.69
		c0.26-0.51,0.4-1.08,0.65-1.78c1.04-0.5,2.17-1.04,3.24-1.55c4.18,1.87,4.18,1.87,3.57,5.68c0.93,1.62,1.72,3.27,2.76,4.75
		c0.78,1.12,1.02,2.19,0.91,3.53c-0.1,1.21,0.11,2.46,0.31,3.67c0.21,1.24,0.57,2.46,0.91,3.89c0.84,0.19,1.78,0.4,2.78,0.62
		c-0.42,0.49-0.78,0.92-0.88,1.02c2.32,0.24,4.85,0.5,8.28,0.85c2.12-1.13,5.4-1.54,8.73-1.53c2.75,0.01,5.18-0.85,7.43-2.35
		c1.55,1.13,3.14,1.12,5.01,0.14c0.26-1.45,0.42-2.83,0-4.57c-1.34-5.56-2.18-11.24-3.22-16.87c-0.06-0.33-0.04-0.73-0.21-0.99
		c-3.75-5.67-3.08-12.57-5.18-18.72c-1.32-3.87-1.98-7.98-2.83-12.01c-1.09-5.17-2.89-10.13-4.32-15.2
		c-1.19-4.25-1.98-8.64-2.59-13.01c-0.48-3.43-2.01-6.51-2.7-9.85c-0.6-2.92-1.32-5.82-1.85-8.76c-0.36-1.99-0.47-4.02-0.76-6.73
		c2.7-2.6,5.92-5.63,9.72-7.61c3.01,1.03,5.85,1.96,8.65,2.99c0.61,0.22,1.23,0.69,1.63,1.21c1.72,2.28,3.33,4.64,5.04,6.93
		c2.35,3.14,3.03,6.88,3.82,10.56c0.53,2.46,0.83,4.98,1.07,7.49c0.21,2.16,0.2,4.34,0.3,6.52c0.07,1.57,0.14,3.14,0.2,4.71
		c0.16,4.45,0.99,8.77,2.11,13.09c0.84,3.24,0.59,6.75,1.24,10.07c1.15,5.91,2.61,11.76,3.93,17.64c1.2,5.35,2.37,10.72,3.59,16.07
		C426.6,686.04,427.22,688.24,427.86,690.76z M269.26,696.57c-1.31-1.46-10.55-6.69-12.32-7.15c-3.96-1.02-7.54-3.21-11.65-3.77
		c-0.22-0.03-0.5-0.08-0.65-0.23c-1.8-1.74-4.2-2.16-6.46-2.76c-3.67-0.98-7.48-1.46-11.08-2.63c-6.37-2.07-13.04-2.56-19.49-4.11
		c-4.63-1.11-9.3-1.95-13.99-2.72c-1.34-0.22-2.58-0.99-3.91-1.27c-4.76-1.01-9.76-0.57-14.41-2.3c-0.28-0.11-0.68,0.13-1,0.09
		c-2.47-0.33-4.94-0.65-7.39-1.04c-1.44-0.23-2.86-0.85-4.29-0.83c-2.27,0.02-4.4-0.25-6.65-0.77c-3.75-0.87-7.67-0.99-11.52-1.42
		c-0.34-0.04-0.78-0.08-1.01,0.09c-2.33,1.71-4.99,1.49-7.64,1.43c-0.37-0.01-0.76,0.38-1.3,0.67c0.72,2.06,1.33,4.02,2.09,5.92
		c1.97,4.97,3.99,9.91,6.01,14.86c0.82,2.01,1.71,3.99,2.51,6.01c0.84,2.11,1.69,4.21,2.39,6.37c0.77,2.35,1.39,4.76,2.05,7.06
		c-0.46,0.53-0.81,0.93-1.13,1.3c1.33,2.9,2.77,5.52,5.9,6.85c0.71,0.3,1.06,1.64,1.39,2.57c0.64,1.84,0.94,3.83,1.76,5.57
		c2.09,4.42,4.38,8.75,6.61,13.11c0.56,1.1,1.19,2.16,1.73,3.12c2.23-0.12,4.17-0.4,6.09-0.3c5.06,0.28,10.08,0.55,14.27-1.89
		c0.98,0.51,1.63,1.15,2.25,1.12c1.34-0.06,2.7-0.37,4-0.75c1.72-0.5,3.35-1.39,5.09-1.69c3.29-0.56,6.66-0.65,9.93-1.26
		c3.49-0.66,6.9-1.71,10.26-2.57c0.53-0.77,0.98-1.43,1.42-2.08c2.98,2.85,4.24-1.37,6.52-1.19c1.51-0.06,3.09-0.02,4.49-0.49
		c2.36-0.8,4.63-1.88,6.91-2.92c2.67-1.21,5.64-1.99,6.9-5.16c0.27-0.66,1.07-1.31,1.76-1.56c1.72-0.61,3.54-0.95,3.42-3.08
		c0.9-0.26,1.58-0.46,2.4-0.7c-0.37-0.73-0.62-1.2-0.82-1.59c0.91-0.63,1.79-1.25,2.73-1.9c0.33,0.54,0.55,0.91,0.9,1.47
		c0.58-0.56,1.7-1.28,1.6-1.57c-0.73-2.08,1.1-2.66,2.05-3.55c1.74-1.64,3.78-2.96,5.62-4.5
		C266.12,702.34,268.37,700.05,269.26,696.57z M146.4,726.31c0.27-0.08,0.54-0.15,0.81-0.23c0-0.41,0.13-0.87-0.02-1.22
		c-1.79-4.14-3.62-8.27-5.44-12.4c-2.52-5.72-5.09-11.42-7.54-17.17c-3.45-8.13-6.8-16.31-10.23-24.45
		c-0.49-1.16-1.11-2.26-1.71-3.36c-0.08-0.15-0.39-0.17-0.85-0.34c-0.28,0.79-0.56,1.58-0.68,1.91c2.11,4.86,4.12,9.22,5.92,13.66
		c2.37,5.83,4.58,11.73,6.86,17.59c0.12,0.32,0.27,0.63,0.42,0.94c2.1,4.33,4.65,8.51,6.17,13.04
		C141.59,718.72,144.45,722.23,146.4,726.31z M195.06,820.31c-3.21-5.72-5.79-11.81-10.06-17.83
		C185.6,805.97,192.52,818.38,195.06,820.31z"/>
	<path d="M774.87,887.46c-2,4.05-5.18,6.58-8.67,9.57c-2.71-0.33-5.77-0.59-8.78-1.11c-2.1-0.36-4.09-0.6-6.01,0.91
		c-1.4-0.87-2.75-1.72-4.3-2.68c0.93-2.18-0.29-3.48-1.86-4.65c-0.83-0.62-1.61-1.3-2.39-2c-0.51-0.46-1.13-0.9-1.41-1.48
		c-1.28-2.68-2.41-5.44-3.7-8.11c-0.69-1.42-1.51-2.81-2.44-4.09c-1.48-2.02-3.06-3.99-4.7-5.89c-1.33-1.53-2.82-2.93-4.24-4.38
		c-0.16-0.16-0.44-0.22-0.55-0.4c-1.69-2.56-3.33-5.16-5.04-7.7c-1.6-2.38-3.14-4.81-4.93-7.04c-2.71-3.38-5.4-6.83-8.5-9.83
		c-4.21-4.06-6.66-9.49-10.94-13.45c-0.25-0.23-0.45-0.54-0.58-0.85c-2.11-5.31-6.2-9.38-8.99-14.25c-0.51-0.89-1.31-1.61-1.91-2.45
		c-1.8-2.52-3.66-4.99-5.32-7.6c-2.64-4.16-5.28-8.29-8.5-12.08c-2.95-3.46-5.26-7.48-7.81-11.27c-1.93-2.86-3.9-5.71-5.69-8.65
		c-3.39-5.57-8.08-10.18-11.46-15.79c-2.82-4.69-5.9-9.24-9.09-13.69c-2.54-3.55-5.47-6.82-8.15-10.27
		c-1.95-2.51-3.72-5.17-5.67-7.68c-1.68-2.16-3.5-4.22-5.26-6.32c-1.77-2.11-3.54-4.22-5.51-6.57c-6.12-2.24-9.58-8.18-14.61-12.91
		c-0.23,0.91-0.52,1.38-0.39,1.69c1.62,3.97,1.32,8.31,2.44,12.38c0.61,2.22,0.82,4.54,1.36,6.78c1.56,6.48,3.12,12.96,4.81,19.41
		c2.24,8.54,4.46,17.08,6.94,25.55c1.58,5.38,3.62,10.63,5.47,15.93c0.23,0.65,0.42,1.54,0.91,1.82c1.71,0.96,2.21,2.91,3.43,4.04
		c1.93,1.77,2.51,4.15,3.89,6.12c0.24,0.35,0.47,0.87,0.39,1.26c-0.68,3.46,1.93,5.93,2.78,8.92c0.37,1.31,1.08,2.61,1.41,4.07
		c0.36,1.62,1.32,3.1,1.92,4.68c0.61,1.59,1.11,3.22,1.64,4.84c0.52,1.61,0.96,3.26,1.51,4.86c0.41,1.19,1.03,2.3,1.4,3.5
		c0.65,2.05,0.2,3.77-1.49,5.27c-1.67,1.49-3.11,3.23-5.01,5.23c-1.17-0.22-2.75-0.81-3.94-2.11c-1.27-1.39-2.89-1.76-4.63-1.95
		c-2.16-0.24-4.31-0.53-6.34-0.79c-1.83-1.57-2.94-3.28-3.43-5.58c-0.34-1.61-1.56-3.02-2.15-4.6c-0.71-1.9-1.71-3.92-1.64-5.85
		c0.12-3.58-0.96-6.86-2.23-9.95c-2.34-5.68-4.86-11.36-6.23-17.28c-1.31-5.68-3.96-10.8-5.45-16.36
		c-1.66-6.2-3.33-12.39-5.15-18.55c-1.91-6.46-4.09-12.85-5.96-19.32c-1.14-3.94-1.91-7.99-2.91-11.97
		c-0.31-1.22-0.79-2.4-1.25-3.57c-1.25-3.17-2.79-6.25-3.71-9.51c-0.89-3.16-1.26-6.48-1.67-9.76c-0.59-4.79-2.09-9.35-3.29-13.99
		c-0.92-3.54-1.75-7.11-2.62-10.66c-0.64-2.61-1.59-5.03-4.04-6.37c-1.63,0.17-2.24,1.17-2.03,2.42c0.55,3.17-0.44,6.23-0.49,9.3
		c-0.06,4.08-1.07,8.13-0.75,12.14c0.78,9.69,0.88,19.45,3.02,29.03c2.02,9.05,3.67,18.19,5.51,27.29c0.49,2.44,1.07,4.87,1.68,7.28
		c0.16,0.63,0.54,1.22,0.84,1.81c1.64,3.22,3.73,6.25,4.2,9.96c0.01,0.11,0,0.27,0.07,0.33c2.22,2.25,1.2,5.75,3.03,8.08
		c1.32,1.69-0.35,3.88,1.53,5.63c1.48,1.38,0.62,3.91,0.88,5.92c0.24,1.9,0.83,3.86,1.75,5.52c0.56,1,0.95,1.9,1.15,3.01
		c0.67,3.58,1.29,7.17,2.21,10.69c1.03,3.96,2.22,7.88,3.65,11.74c1.1,2.98,1.68,6.16,2.5,9.24c0.27,0.99,0.58,1.98,0.95,3.26
		c-1.85,2.89-5.4,4.14-7.67,6.77c-1.68,0.11-2.85-0.71-3.96-1.81c-1.52-1.51-3.35-2.04-5.53-2.38c-2.51-0.39-4.86-1.88-7.27-2.91
		c-0.19-0.08-0.43-0.33-0.44-0.51c-0.13-3.55-3.33-6.01-3.37-9.63c-0.01-1.05-1.08-2.06-1.24-3.15c-0.4-2.78-0.58-5.59-0.8-8.4
		c-0.18-2.33-0.39-4.63-2.26-6.55c1.29-1.82,0.92-3.64-0.09-5.48c-0.38-0.69-0.65-1.54-0.64-2.31c0.11-5.75-1.94-11.03-3.42-16.44
		c-0.84-3.07-1.77-6.1-1.93-9.39c-0.13-2.9-1.33-5.75-2.02-8.64c-0.32-1.34-0.53-2.7-0.79-4.05c-0.8-4.04-1.59-8.07-2.39-12.11
		c-1.56-7.89-3.08-15.79-4.72-23.67c-1.03-4.95-2.27-9.85-3.39-14.78c-0.94-4.14-1.96-8.26-2.71-12.43
		c-0.75-4.22-1.39-8.47-1.73-12.74c-0.25-3.17-0.78-6.14-2.12-9.05c-0.54-1.16-0.25-2.71-0.33-4.08
		c-0.32-5.49-0.63-10.97-0.96-16.75c0.73-0.42,1.46-0.92,2.26-1.3c1.4-0.66,2.4-1.58,3.11-3.04c0.83-1.7,2.07-3.2,3.18-4.85
		c3.03,3,6.51,2.7,9.87,2.85c2.11,1.55,4.02,3.26,5.36,5.57c0.39,0.67,1.25,1.06,2.29,1.9c0.92-4.69,3.97-6.4,7.63-7.46
		c0.5-0.15,0.95-0.58,1.36-0.94c2.65-2.31,5.93-2.72,9.21-2.74c1.24-0.01,2.54,0.91,3.72,1.57c2.52,1.39,5.08,2.77,5.68,6
		c0.08,0.44,0.24,0.95,0.53,1.27c3.21,3.52,4.63,8.15,7.45,11.91c0.28,0.37,0.52,0.78,0.86,1.08c4.87,4.39,8.88,9.55,13.22,14.43
		c4.26,4.79,8.54,9.58,12.52,14.6c3.14,3.96,6.28,7.92,9.43,11.87c3.47,4.34,7,8.64,10.4,13.03c1.53,1.98,2.82,4.15,4.21,6.23
		c3.38,5.07,6.72,10.17,10.16,15.2c4.25,6.23,8.63,12.37,12.86,18.62c3.86,5.7,7.54,11.52,11.37,17.25
		c4.33,6.48,8.58,13.04,13.15,19.35c5.26,7.26,9.74,15.06,15.7,21.83c1.25,1.42,2.36,2.98,3.7,4.38c0.83,0.86,1.24,2.12,1.87,3.18
		c0.27,0.45,0.64,0.85,1.07,1.41c1.7-2.03,1.37-4.04,0.7-6.02c-0.98-2.89-1.63-5.8-1.85-8.86c-0.13-1.79-1.07-3.51-1.42-5.31
		c-0.76-3.9-2.59-7.49-2.92-11.56c-0.22-2.68-1.45-5.29-2.24-7.92c-0.13-0.44-0.45-0.87-0.45-1.3c0.04-4.66-1.73-8.99-2.53-13.49
		c-1.02-5.75-2.38-11.44-3.61-17.15c-0.87-4.03-1.69-8.08-2.69-12.08c-1.84-7.32-3.56-14.68-5.77-21.89
		c-1.96-6.37-3.3-12.88-5.19-19.25c-1.59-5.37-3.45-10.65-5.12-15.99c-1.58-5.04-2.99-10.14-4.61-15.17
		c-1.07-3.34-2.33-6.63-3.6-9.91c-1.62-4.18-3.34-8.32-5.13-12.75c-2.66-1.22-5.45-2.5-8.29-3.8c-0.42-1.5-0.63-3.25-1.39-4.7
		c-0.79-1.49-2.13-2.69-3.37-4.19c1.4-3.4,2.78-6.75,4.01-9.74c2.48-1.7,4.65-3.18,6.96-4.76c1.42-0.2,3.13-0.33,4.79-0.68
		c2.66-0.55,4.85-0.31,6.53,2.25c0.61,0.93,2.04,1.31,3.35,2.09c1.65,3.55,2.85,7.79,7,9.72c1.08,2.3-0.18,3.84-1.39,5.23
		c1.53,5.58,2.55,11.18,4.65,16.35c1.69,4.16,1.62,8.9,4.48,12.67c0.82,1.08,0.72,2.83,1.15,4.24c1.21,3.96,2.5,7.89,3.71,11.85
		c1.56,5.11,3.33,10.19,4.53,15.39c0.95,4.13,1.96,8.18,3.49,12.13c1.11,2.87,2.39,5.85,2.61,8.85c0.18,2.53,1.23,4.75,1.52,7.19
		c0.21,1.8,0.94,3.53,1.38,5.31c2.19,8.74,4.43,17.46,6.51,26.22c1.38,5.81,2.49,11.68,3.78,17.51c0.32,1.44,0.88,2.83,1.27,4.25
		c1.17,4.3,2.26,8.63,3.5,12.91c0.67,2.3,1.69,4.49,2.38,6.78c1.52,5.04,2.87,10.12,4.4,15.16c0.8,2.64,1.81,5.21,2.75,7.8
		c2.12,5.81,4.2,11.63,6.44,17.39c0.61,1.57,1.87,2.87,2.57,4.42c1.03,2.28,1.72,4.71,2.74,7c1.82,4.08,3.76,8.1,5.7,12.13
		c0.27,0.57,0.81,1.02,1.25,1.5c0.22,0.24,0.68,0.41,0.72,0.66c0.75,4.22,3.43,7.5,5.31,11.18c1.55,3.04,2.65,6.3,4.17,9.35
		c1.13,2.25,2.61,4.33,3.97,6.46C773.84,886.26,774.31,886.75,774.87,887.46z"/>
</g>
</svg>
