<?xml version="1.0" encoding="utf-8"?>
<!-- Generator: Adobe Illustrator 27.9.1, SVG Export Plug-In . SVG Version: 6.00 Build 0)  -->
<svg version="1.1" id="Layer_1" xmlns="http://www.w3.org/2000/svg" xmlns:xlink="http://www.w3.org/1999/xlink" x="0px" y="0px"
	 viewBox="0 0 1417.32 1417.32" style="fill:rgb(190 255 61);enable-background:new 0 0 1417.32 1417.32;" xml:space="preserve">
<g>
	<path d="M1036.03,918.36c0.81,1.04,1.62,2.09,2.39,3.08c-0.93,4.34,1.03,8.88-1.44,13.2c-1.42,0.73-3.04,1.57-4.71,2.43
		c-0.44,1.03-0.89,2.08-1.32,3.1c-3.14,1.52-6.14,1.25-9.4-0.25c-0.83,1.2-1.65,2.37-2.52,3.62c-2.28,0.99-4.11,0.27-5.54-1.99
		c-2.38,0.4-4.61,0.78-7.09,1.2c-1.29-2.73-2.81-5.44-3.87-8.32c-0.99-2.68-1.5-5.54-2.22-8.35c-1.2,0.25-1.99,0.42-3.07,0.65
		c-0.77-1.33-2.02-2.64-2.27-4.13c-0.46-2.68-0.4-5.46-0.42-8.19c-0.02-2.91-1.1-5.62-1.39-8.47c-0.42-4.1-0.97-8.18-2.04-12.14
		c-2.48-9.24-5.21-18.42-7.77-27.64c-0.74-2.69-1.09-5.49-1.89-8.15c-2.03-6.77-4.69-13.38-6.25-20.25
		c-2.41-10.62-6.47-20.81-7.75-30.67c-0.74-2.53-4.03-0.77-3.34-3.83c0.68,0,1.41,0,2.22,0c0.71-2.36-1.46-3.18-1.73-3.65
		c-2.19-16.89-6.89-32.14-9.73-47.69c-5.26-1.63-10.45-2.18-15.39-4.27c-4.05-1.71-8.98-1.55-13.53-1.74
		c-2.73-0.12-5.13-0.77-7.69-1.61c-4.81-1.56-9.56-3.64-14.78-3.5c-0.83,0.02-1.73-0.07-2.47,0.21c-4.28,1.65-8.55,3.34-12.76,5.13
		c-2.27,0.97-4.36,2.38-6.67,3.23c-6.97,2.55-13.89,5.35-21.05,7.25c-7.83,2.08-15.62,4.57-23.76,5.37
		c-0.97,0.09-1.91,0.5-2.84,0.81c-0.79,0.26-1.63,1-2.3,0.85c-3.34-0.74-6.36,0.81-9.49,1.04c-7.03,0.52-14.09,0.85-21.16,0.62
		c-3.1-0.1-6.2-0.02-10.17-0.02c-4.03-1.96-9.07-1.81-13.52-0.9c-3.93-1.27-7.33-2.51-10.8-3.44c-8.86-2.37-17.27-5.51-23.72-12.47
		c-1.54-1.66-3.26-3.16-5.35-5.16c-0.91,3.32-0.78,5.88-0.23,8.44c1.37,6.48,2.63,12.94,2.72,19.64c0.05,3.91,1.39,7.79,2.03,11.7
		c1.08,6.61,1.97,13.25,3.14,19.85c0.69,3.91,1.51,7.83,2.75,11.59c1.17,3.58,0.75,7.7,3.55,10.73c-0.39,6.07,3.26,11.31,3.5,17.3
		c0.1,2.37,1.21,4.71,1.95,7.03c3.43,10.71,6.63,21.51,10.46,32.08c1.9,5.26,4.86,10.15,7.55,15.09c0.93,1.71,2.49,3.08,3.92,4.79
		c-1.09,2.75-1.93,5.66,0.72,7.79c0.32,3.79,0.61,7.23,0.94,11.05c-1.1,2.9-7.46,1.8-6.2,7.27c-3.87,1.79-7.6,1.92-12.27-0.97
		c-0.76,1.25-1.62,2.68-2.37,3.93c-1.98,0.26-3.61,0.47-5.2,0.67c-2.07-0.56-4.13-1.13-6.41-1.75c-3.17-2.33-5.39-5.33-5.55-9.8
		c-0.06-1.64-1.35-3.3-2.27-4.83c-2.4-3.97-4.54-7.93-5.71-12.58c-1.39-5.54-3.04-11.2-7.14-16.02c0.09,0.19-0.06-0.03-0.02-0.06
		c0.34-0.35,0.72-0.67,1.08-1c-1.13-5.93-5.12-10.46-7.77-15.63c-2.17-4.22-5.24-8.08-6.77-12.5c-1.57-4.54-4.3-8.73-4.58-13.77
		c-0.09-1.63-1.44-3.18-2.54-5.45c0.44-1.05,1.13-2.67,1.93-4.56c-0.28-1.03-0.61-2.29-0.95-3.55c1.36-2.55,3.4-4.11,6.38-4.89
		c1.13,0.21,2.55,0.47,4.03,0.74c0.24-0.65,0.58-1.12,0.54-1.54c-0.22-2.13-0.66-4.24-0.8-6.37c-0.57-8.54-4.04-16.52-4.87-24.95
		c-0.68-6.86-1.97-13.56-3.22-20.3c-0.27-1.46-0.6-2.93-1.12-4.32c-1.88-5-3.3-10.07-2.95-15.5c0.05-0.82,0.03-1.69-0.15-2.49
		c-1.21-5.1-2.48-10.19-3.88-15.92c-0.74-0.02-2.46-0.6-3.13,0c-2.42,2.16-5.46,1.63-8.09,1.94c-3.27,0.39-6.38,0.85-9.52,1.93
		c-2.4,0.82-4.87,2.3-7.63,1.13c-3.83,2.23-8.3,1.84-12.41,2.99c-4.57,1.28-9.3,1.8-13.95,2.66c-4.11,0.76-8.45,0.65-12.32,2.15
		c-4.56,1.78-9.65,2.52-13.61,6.06c0.41,4.1,0.58,8.23,1.3,12.26c0.91,5.1,1.52,10.25,3.12,15.25c0.88,2.76,0.47,5.94,0.67,9.31
		c0.62,0.68,1.49,1.64,2.43,2.68c1.14,0,2.28,0,3.56,0c2.04-3.1,2.94-7.18,7.33-8.32c-0.53-1.98-1.03-3.84-1.55-5.74
		c0.76-1.47,1.52-2.94,2.2-4.26c1.28-0.51,2.35-0.94,3.76-1.5c1.62,0.96,3.46,2.05,5.24,3.1c1.03,2.14,2.03,4.21,3.24,6.72
		c-0.25,0.64-0.67,1.7-1.19,3.04c3.48,6.14,3.82,13.12,2.99,20.05c-0.37,3.1,0.23,5.57,1.68,8.02c1.58,2.66,2.21,5.43,2.07,8.53
		c-0.43,9.57-0.41,19.17-1.19,28.7c-0.26,3.22-0.66,6.17,0.64,8.85c-0.58,2.28-1.09,4.3-1.61,6.36c1.35,1.26,2.43,2.25,3.56,3.3
		c-0.26,0.43-0.59,0.99-0.74,1.24c3.07,8.06,6.28,15.84,8.95,23.8c0.97,2.91,1.88,5.63,4.26,7.85c-0.26,0.78-0.51,1.54-0.76,2.29
		c1.65,4.83,2.92,9.83,5.04,14.45c2.12,4.63,3.97,9.61,8.68,12.82c-1.19,3.37-0.95,6.44,1.1,9.41c1.47,2.13,1.32,4.75,0.95,7.25
		c-0.37,2.44-0.83,4.87-1.31,7.64c-2.53,2.58-5.74,4.67-9.89,5.27c-1.34,0.19-2.56,1.21-4,1.93c-0.42-0.32-1.05-0.8-1.73-1.31
		c-2.22,0.54-4.46,1.09-6.99,1.71c-2.63-2-5.97-2.08-9.3-2.03c-2.24,0.04-4.32-0.06-5.84-2.03c-0.28-0.37-0.73-0.71-1.17-0.84
		c-6.73-2.1-8.06-7.66-8.78-13.63c-0.21-1.8-0.48-3.59-0.76-5.68c0.82-1.13,1.78-2.45,2.81-3.88c-0.51-1.76-1.02-3.5-1.64-5.61
		c1.66-2.51,1.88-5.34,0.7-8.62c-1.9-5.26-3.23-10.73-4.84-16.25c-2.09-0.4-3.79-0.72-5.43-1.03c-2.28-1.16-4.6-2.37-6.94-3.53
		c-1.61-0.8-2.5-1.97-2.79-3.82c-0.56-3.58-1.42-7.11-2.02-10.69c-0.57-3.42-0.96-6.86-1.51-10.84c-1.64-1.05-3.42-2.73-3.36-5.82
		c0.8-0.46,1.72-0.99,3.09-1.78c-1.25-3.09-2.46-6.08-3.67-9.07c0.02,0,0.04-0.01,0.07-0.01c-0.75-2.11-1.63-4.19-2.24-6.34
		c-1.89-6.71-4.15-13.21-8.02-19.13c-1.4-2.14-1.74-4.96-2.82-7.36c-0.71-1.58-1.88-2.96-3.07-4.77c0.39-3.12-1.73-5.76-3.47-8.51
		c-4.71-7.44-9.07-15.06-12.42-22.88c-1.5-1.81-2.77-3.47-4.2-4.99c-0.88-0.94-1.93-2.22-3.04-2.38c-4.21-0.59-5.68-4.07-7.83-6.85
		c-0.15-0.2,0.27-0.84,0.67-1.94c1.56,1.81,2.86,3.31,4.16,4.82c-1.43-5.88-6.79-9.01-9.08-14.3c-1.83,0.49-3.25,0.86-4.77,1.27
		c-0.62-0.34-1.33-0.73-2.2-1.21c-1.21,0.78-2.45,1.59-3.78,2.44c-2.66-0.42-5.4-0.85-8.74-1.38c-2.55-2.98-3.54-6.85-2.3-11.06
		c0.89-3.01,0-5.13-2.29-7.12c-0.18-1.84-0.38-3.8-0.63-6.29c0.61-1.43,1.44-3.39,2.39-5.61c-6.36-3.33-9.96-9.33-14.42-14.25
		c-3.29,1.43-3.88,4.99-6.69,6.41c-1.9,0.96-3.53,2.84-5.49,3.2c-2.22,0.41-3.45,1.68-4.77,3.13c-1.38,0.18-2.68,0.36-3.58,0.48
		c-5.15,4.92-9.05,10.45-14.75,14.35c-3.97,2.71-7.27,6.39-10.93,9.56c-1.22,1.06-2.64,1.89-3.99,2.8c-0.54,0.37-1.3,0.53-1.68,1.01
		c-6.57,8.47-15.65,14.21-23.31,21.5c-1.07,1.02-1.98,2.23-2.81,3.46c-4.07,6.02-10.71,9.17-15.72,14.16
		c-3.04,3.03-6.54,5.59-9.82,8.36c-5.79,4.89-11.47,9.89-18.56,13.01c-2.68,1.18-5.14,3.11-7.3,5.13c-3.13,2.91-7.25,4.79-9.29,8.88
		c-0.39,0.78-1.52,1.21-2.36,1.73c-1.97,1.21-4.02,2.13-4.72,4.79c-0.41,1.56-1.95,1.95-3.42,0.59c-0.4,0.73-0.79,1.46-1.21,2.24
		c0.25,0.45,0.42,0.93,0.73,1.29c0.32,0.36,0.73,0.69,1.17,0.9c5.65,2.69,11.06,5.78,16.2,9.37c0.92,0.64,2.14,0.89,3.24,1.25
		c3.25,1.08,6.42,2.29,8.82,4.93c0.65,0.72,1.52,1.33,2.41,1.73c8.91,4.05,17.22,9.2,25.52,14.3c5.87,3.6,12.08,6.22,18.82,8.13
		c0.47-0.34,1.08-0.77,2.02-1.44c0.21,0.9,0.37,1.6,0.59,2.5c0.59-0.12,1.2-0.24,1.92-0.38c0.22,0.58,0.45,1.17,0.68,1.76
		c2.97,0.43,6.15,1.02,8.08,3.27c1.55,1.81,3.45,2.43,5.33,3.34c2.96,1.44,5.96,2.81,8.94,4.21c0.15,0.07,0.24,0.26,0.39,0.31
		c4.05,1.42,7.69,3.63,11.38,5.76c0.84,0.48,1.88,0.8,2.84,0.84c3.64,0.14,6.7,1.3,9.38,3.89c1.11,1.08,2.93,1.43,4.44,2.08
		c1.81,0.77,3.64,1.51,5.65,2.34c0.19-0.16,0.68-0.55,1.42-1.15c7.2,2.94,14.52,5.99,21.9,8.91c7.66,3.03,14.97,6.87,22.93,9.25
		c5.43,1.62,10.63,4.05,15.85,6.3c6.13,2.64,12.18,5.46,18.32,8.23c0.73-0.2,1.52-0.42,1.59-0.44c4.81,2.35,9.05,4.57,13.41,6.5
		c3.01,1.33,6.13,2.03,9.56,2.26c3.94,0.26,7.79,2.01,11.68,3.1c2.05,0.58,4.13,1.08,6.17,1.7c3.64,1.1,7.3,2.18,10.87,3.47
		c1.02,0.37,1.92,1.34,2.64,2.22c2.73,3.33,5.36,6.73,7.78,9.8c0.91,5.55,2.81,10.65,0.78,15.73c0.64,1.92,1.23,3.71,1.94,5.86
		c-0.66,0.39-1.17,0.56-1.49,0.9c-3.99,4.31-9.3,4.09-14.49,4.26c-0.5,0.02-1,0.06-0.62,0.04c-3.11,1.12-5.42,1.95-7.56,2.72
		c-1.81-0.51-3.39-0.96-5.19-1.46c-0.83,0.93-1.69,1.9-2.6,2.92c-0.12-0.06-0.38-0.15-0.61-0.29c-1.71-0.98-3.3-2.3-5.13-2.88
		c-4.44-1.39-8.56-3.1-12.36-5.97c-3.21-2.42-7.11-3.93-10.75-5.76c-2.5-1.26-5.23-2.06-7.2-4.29c-0.74-0.83-1.86-1.45-2.93-1.84
		c-7.32-2.65-13.06-8.25-20.42-10.8c-0.78-0.27-1.62-0.61-2.19-1.17c-3.59-3.5-8.48-4.36-12.76-6.46c-3.23-1.59-6.32-3.33-8.55-6.36
		c-0.85-1.15-2.09-2.15-3.36-2.83c-5.07-2.69-10.56-4.74-15.26-7.95c-5.21-3.56-11.3-5.19-16.52-8.76
		c-3.89-2.66-8.79-3.81-13.2-5.71c-7-3.02-13.92-6.25-20.98-9.12c-3.56-1.45-6.83-3.21-9.96-5.45c-2.11-1.51-4.6-2.79-7.1-3.4
		c-3.92-0.96-6.94-3.02-8.73-5.07c-4.49-1.87-8.06-3.11-11.39-4.81c-5.28-2.7-10.39-5.73-15.6-8.56c-1.87-1.02-3.76-2.04-5.74-2.78
		c-3.63-1.34-6.95-3.06-9.75-5.8c-0.73-0.71-1.96-0.92-2.97-1.35c-3.01-1.26-6.4-1.76-8.34-5c-0.58-0.96-2.2-1.3-3.35-1.91
		c-1.72-0.91-3.56-1.65-5.13-2.77c-1.58-1.13-3.01-2.54-4.3-4c-3.31-3.75-7.63-5.09-11.74-5.37c-3.64-2.51-6.77-4.66-10.46-7.2
		c-2.45,0.49-5.26,1.06-8.14,1.64c0-0.32,0-1.02,0-1.68c-6.18,2.52-11.16,6.79-16.57,10.48c-6.27,4.27-12.31,8.9-18.75,12.89
		c-3.48,2.16-6.95,4.19-10,7c-1.59,1.47-4.06,1.65-5.88,3.2c-4.66,3.95-9.61,7.54-14.4,11.35c-2.32,1.84-4.5,3.85-6.77,5.75
		c-3.85,3.21-8.19,5.59-12.82,7.49c-1.97,0.81-3.82,1.93-5.79,2.76c-1,0.42-2.15,0.49-3.22,0.76c-2.07,0.52-4.23,0.82-6.17,1.65
		c-2.27,0.96-4.34,1.29-6.73,0.41c-1.35-0.5-2.93-0.37-4.2-0.5c-1.71,1.2-3.17,2.24-5.07,3.58c-1.13-1.09-2.51-1.9-3.08-3.09
		c-1.11-2.29-2.89-3.16-5.17-3.22c-2.25-0.06-3.8-1-4.8-3.05c1.23-3.71,1.25-7.06-2.59-9.56c-0.97-0.63-1.35-2.15-1.69-2.71
		c1.85-3.75,4.02-6.77,4.82-10.12c1.07-4.43,4.23-6.42,7.47-8.72c5.34-3.8,11.63-5.46,17.44-8.17c4.76-2.22,9.14-5.21,13.37-8.45
		c5.64-4.32,10.03-9.6,13.95-15.41c0.92-1.36,2.13-2.52,3.26-3.82c4.86,0.26,7.75-3.25,10.5-4.84c3.07-0.6,5.26-1.03,7.45-1.46
		c0.07-0.27,0.14-0.54,0.21-0.82c2.39,1.3,4.78,2.61,7.5,4.09c3.87-2.79,7.88-5.68,12.03-8.66c-0.09-1.55-0.17-2.99-0.25-4.46
		c-0.65-0.23-1.09-0.52-1.52-0.52c-4.24,0.01-7.4-2.56-10.57-4.76c-4.3-2.98-8.33-6.37-12.39-9.69c-0.96-0.78-1.57-1.97-2.53-3.22
		c0.78-0.88,1.31-1.47,1.55-1.74c4.16,2.27,7.75,4.16,11.27,6.16c3.45,1.97,6.67,4.43,10.29,5.97c3.7,1.57,6.41,5.08,11.59,5.81
		c-1.26-2.21-2.11-3.69-2.66-4.65c-2.12-0.97-3.74-1.65-5.3-2.44c-3.98-2.03-7.95-4.06-11.87-6.18c-1.89-1.02-3.73-2.16-5.48-3.4
		c-4.69-3.33-9.33-6.74-13.98-10.14c-0.88-0.65-1.82-1.3-2.48-2.15c-3.6-4.63-8.85-6.52-14.01-8.71c2.58,3.66,3.75,8.35,8.65,10
		c1.04,0.35,1.65,1.97,2.68,3.3c-4.52,1.07-7.57-0.99-10.4-3.41c-1.04,0.06-1.96,0.11-3.1,0.17c0.13-1.26,0.22-2.17,0.33-3.18
		c-3.91-1.59-6.15-4.97-8.71-7.89c-2.56-2.91-7.29-3.84-7.65-8.69c-4.97-0.57-8.03-3.93-11.19-7.03c-1.91-1.87-3.18-4.29-6.01-5.29
		c-0.91-0.32-1.28-2.14-2.08-3.61c-5.51-1.03-8.21-5.76-11.16-10.1c-1.88-2.76-3.45-5.54-6.92-6.83c-1.72-0.64-3.14-2.37-4.44-3.83
		c-4.81-5.45-9.51-10.99-14.32-16.58c-3.57-1.24-7.24-2.14-10.53,0.32c-3.22-1.16-6.14-2.21-9.38-3.37
		c1.16-4.02,2.03-7.77,0.69-11.74c-1.24-3.68,1.14-8-2.12-11.48c2.31-3.59,4-7.32,7.13-10.07c0.73-0.64,1.51-1.31,2.4-1.68
		c3.8-1.57,7.88-2.6,11.4-4.63c5.12-2.95,10.88-3.77,16.26-5.77c1-0.37,2.17-0.26,3.25-0.39c5.51-0.66,11.04-1.2,16.52-2.02
		c5.51-0.83,10.95-2.24,16.6-1.61c0.49,0.05,1.07,0.12,1.48-0.08c3.47-1.7,7.13-1.11,10.74-0.93c4.29,0.21,8.48-0.34,12.54-1.63
		c1.89-0.6,3.65-0.12,5.45-0.21c1.59-0.08,3.14-0.93,4.96-1.52c2.14,1.99,5.04,1.62,7.76,1.15c3.55-0.62,7.08-1.12,10.65-1.54
		c2.45-0.29,5.14-0.75,7.56-1.47c5.51-1.64,11.56-1.11,16.68-4.25c0.53-0.33,1.29-0.49,1.91-0.43c3.74,0.31,7.13-1.21,10.68-1.87
		c5.86-1.1,11.68-2.42,17.59-3.31c4.3-0.65,8.5-1.95,13.03-3.03c3.42-0.29,7.18-0.52,10.92-0.95c4.75-0.55,9.48-1.29,14.23-1.91
		c7.7-1,15.38-2.07,23.1-2.9c3.27-0.35,6.6-0.06,9.89-0.23c6.63-0.33,13.26-0.69,19.87-1.25c1.47-0.12,2.74-0.42,4.31,0.03
		c2.01,0.57,4.25,0.33,7.1,0.48c-2.47-3.67-5.5-5.88-8.12-8.43c-2.24-2.19-4.73-4.14-7.22-6.04c-2.87-2.18-6.04-3.99-8.78-6.31
		c-3.17-2.69-6.68-4.8-10.17-7.01c-2.63-1.67-5.04-3.69-7.56-5.52c-3.05-2.22-5.66-5.01-9.25-6.55c-1.76-0.75-3.15-2.35-4.74-3.52
		c-1.06-0.78-2.14-1.57-3.28-2.22c-1.71-0.97-3.49-1.81-5.51-2.86c-0.43,0.09-1.22,0.27-2.16,0.48c-1.87-1.19-3.82-2.43-5.76-3.66
		c0.06-0.85,0.12-1.63,0.17-2.2c-5.79-4.04-12.4-6.25-17.91-10.56c-2-1.57-4.11-3.2-6.25-4.67c-3.94-2.7-8.01-5.23-12.12-7.66
		c-0.92-0.54-2.26-0.38-3.13-0.51c-4.97-3.08-9.74-6.03-15.45-9.56c-0.51-0.05-2.14-0.22-3.78-0.38c0.08-0.15,0.16-0.29,0.24-0.44
		c-3.97-2.24-7.86-4.65-11.94-6.66c-3.9-1.92-8.01-3.42-12.28-5.2c-2.08,0.57-4.15,0.46-5.92-1.59c-1.02-1.19-2.48-2.12-3.92-2.8
		c-3.16-1.49-3.43-1.74-3.28-5.11c0.05-1.16-0.05-2.34,0.09-3.5c0.3-2.57,1.33-4.74,3.57-6.28c1.61-1.11,3.08-2.43,4.42-3.5
		c-0.39-3.2-2.48-3.45-4.61-3.55c3.08-4.46,6.09-8.82,9.19-13.29c1.51,0.55,2.73,1,4.25,1.55c5.67-1.39,8.56-6.98,13.3-10.24
		c2.26,1.12,4.28,2.04,6.04,3.99c1.57,1.73,4.18,2.6,6.44,3.61c4.58,2.03,9.11,4.09,12.78,7.69c1.92,0.37,3.85,0.75,6.09,1.19
		c0.72-0.46,1.67-1.07,3.14-2.01c0,2.23,0,4,0,5.65c2.58,2.12,5.13,4.37,7.86,6.39c1.29,0.95,2.86,1.81,4.41,2.07
		c6.94,1.19,13.92,2.16,20.94,3.22c0.84-0.71,1.57-1.34,2.19-1.86c2.42,0,4.72,0,7.34,0c0.51,1.47,0.98,2.83,1.43,4.16
		c-1.16,0.66-2.19,1.25-3.32,1.9c2.17,0.24,4.01,0.45,5.84,0.64c0.33,0.04,0.7,0.14,0.99,0.04c4.73-1.7,9.47-0.93,14.2-0.05
		c2.42,0.45,4.82,0.99,7.56,1.56c0.62-0.96,1.35-2.12,2.45-3.84c-0.11,1.64-0.18,2.56-0.25,3.67c3.22,1.61,6.28,0.57,9.55,0.36
		c3.18-0.21,5.89-2.88,9.63-1.29c0.27,0.48,0.74,1.29,1.51,2.63c6.03,0.63,12.44,1.3,18.85,1.95c2.27,0.23,4.39,0.44,6.67,1.36
		c2.91,1.19,6.45,1.23,9.69,1.09c6.1-0.25,12.19-0.97,18.28-1.51c1.31-0.12,2.64-0.25,3.92-0.53c3.29-0.7,3.75-0.66,7.66,1.31
		c-0.03,0.54-0.07,1.16-0.14,2.21c-2.16,0.14-4.28,0.58-6.31,0.33c-3.12-0.4-5.91,0.32-8.69,1.52c-5.1,2.2-6.26,1.96-10.4-2.06
		c-0.31,0.74-0.62,1.48-1.05,2.49c-7.04-1.32-14.25,0.75-21.22-1.9c-0.58,0.4-1.21,0.84-1.97,1.36c-5.08-3.95-10.51-1.83-14.94-1.06
		c-3.63-0.6-6.35-1.1-9.09-1.48c-2.95-0.42-5.9-0.78-8.87-1.07c-3.89-0.37-7.8-0.55-11.68-1.01c-1.44-0.17-3.09-0.55-4.15-1.43
		c-2.09-1.73-4.65-2.45-6.9-2.08c-2.42,0.4-4-1.28-6.36-1.11c-7.42,0.54-14.89,0.34-22.51-1.32c2.69,3.27,3.66,3.91,7.18,4.39
		c4.19,0.56,8.41,0.94,12.6,1.54c3.59,0.52,7.14,1.3,10.73,1.86c2.72,0.42,5.47,0.62,8.19,1.03c5.06,0.76,10.11,1.6,15.63,2.48
		c0.52-0.28,1.52-0.82,2.66-1.43c6.93,4.47,14.46,5.61,21.47,4.34c4.21,0.26,7.45,0.46,10.91,0.67c0.62-0.52,1.36-1.14,2.39-2
		c1.15,0.58,2.43,1.22,3.86,1.94c0.2-0.54,0.39-1.06,0.73-2c1.1,0.69,2.12,1.33,3.34,2.09c1.69-0.05,3.42,0.06,5.3-1.31
		c1.3-0.94,3.88-0.67,5.7-0.22c4,0.99,7.53,1.07,11.61,0.87c3.95-0.2,7.33-1.68,10.92-2.96c2.65-0.95,5.72-0.66,8.58-1.08
		c1.87-0.27,3.7-0.83,5.55-1.25c0.72-0.17,1.44-0.34,2.17-0.48c3.83-0.76,7.75-1.23,11.47-2.34c3.44-1.03,6.67-2.76,9.68-5.1
		c-4.26,1.19-8.52,2.38-13.44,3.76c1.46-3.78,4.74-2.93,6.87-3.89c2.27-1.03,5.01-1.02,7.75-1.51c0.24,0.22,0.72,0.64,0.84,0.75
		c2.2-1.3,4.22-3.41,6.33-3.51c2.62-0.12,4.03-3.1,7.03-1.62c0.15-1.39,0.25-2.3,0.34-3.1c-0.5-0.28-0.84-0.62-1.04-0.55
		c-3.34,1.18-6.64,2.5-10.01,3.59c-1.96,0.63-4.04,0.91-6.85,1.51c1.05-1.41,1.51-2.02,1.97-2.63c4.04-1.14,8.06-2.27,11.23-3.16
		c4.64-2.45,8.42-4.93,12.55-6.5c4.45-1.7,7.04-4.52,8.27-9.34c-1.4-0.53-2.66-1-4.42-1.67c3.29-1.44,6.04-2.64,8.79-3.84
		c0.68,1.98,1.26,3.66,1.94,5.62c3.51-1.06,5.83-2.7,5.68-7.12c2.94-1.95,6.1-4.05,9.55-6.34c-0.26-0.43-0.66-1.1-1.22-2.04
		c0.52-0.29,1.04-0.84,1.55-0.83c1.77,0.04,3.54,0.27,5.73,0.47c1.1-1.14,2.24-2.31,3.43-3.54c-0.61-0.93-1.03-1.56-1.55-2.35
		c1.22-0.55,2.4-1.08,3.99-1.8c0.42-0.96,1.02-2.32,1.77-4.03c1.68-0.85,3.96-1.99,6.37-3.21c-0.6-0.94-1-1.57-1.72-2.7
		c1.93-1.61,3.9-3.25,5.83-4.86c1.49,0.56,2.55,0.95,3.6,1.34c4.86-1.93,9.72-3.85,14.57-5.78c0.2,0.28,0.41,0.56,0.61,0.84
		c-0.99,1.1-1.97,2.19-3.32,3.69c3.12-0.18,5.87-0.33,8.62-0.49c1.13,1.31,2.3,2.68,3.98,4.64c0.1,2.21-1.61,4.62-3.68,6.83
		c0.62,1.53,1.17,2.9,1.59,3.92c-0.84,6-3.68,10.11-8.9,12.62c-1.45,0.7-2.46,2.25-3.84,3.16c-7.03,4.61-14.07,9.22-21.2,13.68
		c-6.14,3.84-12.33,7.61-18.64,11.15c-4.04,2.27-8.36,4.06-12.54,6.08c-0.74,0.36-1.46,0.77-1.69,1.62
		c-2.47,3.01-4.89,6.05-7.41,9.01c-2.73,3.2-5.36,6.51-8.38,9.41c-2.36,2.27-3.3,4.74-2.6,8.68c-1.14-0.83-1.66-1.21-2.38-1.72
		c-2.14,2.94-5.99,4.87-5.77,9.2c0.13,2.62-1.16,4.39-2.69,6.07c-1.65,1.81-3.63,3.33-5.3,5.12c-1.24,1.32-2.46,2.77-3.26,4.37
		c-1.5,3-3.08,5.86-5.66,8.12c-0.69,0.6-1.09,1.63-1.41,2.54c-0.57,1.61-1.5,2.75-2.89,3.85c-2.36,1.86-3.9,4.45-4.4,7.91
		c-3.37,2.47-6.94,5.09-10.03,7.35c-2.65-0.51-4.58-0.87-7.01-1.33c-1.76-5.03-6.44-6.66-11.55-7.56
		c2.02-8.36,6.25-14.82,11.83-20.55c4.59-4.72,8.93-9.69,13.61-14.31c1.98-1.95,4.56-3.29,7.03-5.03c0.55,0.36,1.05,0.69,1.84,1.2
		c1.43-0.52,3.19-1.17,5.3-1.94c-0.24-1.47-0.48-3-0.77-4.78c2.9-0.91,5.69-1.78,8.36-2.62c-1.19-1.26-2.21-2.33-3.17-3.35
		c-1.66,0.28-3.49,0.6-5.33,0.9c-0.15,0.02-0.37-0.19-0.47-0.13c-4.99,2.71-10.84,0.83-15.95,3c-1.33,0.56-2.88,0.63-4.34,0.86
		c-8.98,1.43-17.88,3.46-27.09,2.94c-1.5-0.09-3.06,0.74-5.7,1.43c-3.51-0.47-8.19-1.08-13,0.17c-2.15,0.56-4.6,0.03-6.91-0.1
		c-1.31-0.08-2.78-0.84-3.9-0.46c-5.38,1.84-10.77-1.32-16.2,0.26c-1.38,0.4-3.31-1.09-5.33-1.83c-7.1,2.18-8.37,1.98-13.49-2.25
		c-2.99-0.4-5.94-0.79-9.35-1.25c-0.4,0.29-1.16,0.85-1.78,1.3c-3.55-0.13-6.96-1.36-10.31,0.79c-0.87,0.56-2.4,0.08-4.75,0.08
		c1.84,1.61,2.95,2.64,4.12,3.59c1.93,1.54,3.96,2.82,5.27,5.16c0.81,1.45,2.75,2.32,4.26,3.34c4.04,2.74,6.8,6.75,10.08,10.24
		c2.45,2.61,5,4.97,8.23,6.66c2,1.05,3.52,2.98,5.36,4.36c5.74,4.31,10.81,9.44,17.03,13.2c2.72,1.65,4.56,4.75,6.84,7.15
		c1.81,1.91,3.42,4.04,6.47,4.28c0.97,0.08,1.91,1.21,2.77,1.98c2.96,2.66,6.33,5.02,8.7,8.13c3.41,4.48,8.96,6.6,11.83,11.66
		c0.96,1.7,3.32,2.67,5.15,3.79c3.41,2.08,6.33,4.66,8.84,7.77c0.69,0.86,1.86,1.34,2.44,1.73c10.79-1.28,17.17,5.3,23.63,11.47
		c1.99,5.84,5.12,11.24,3.91,17.84c3.52,3.38,7.08,6.79,10.97,10.52c0.47-1.41,0.81-2.44,1.22-3.65c0.9,0.23,1.82,0.46,3.03,0.77
		c1.11,3.79,5.9,5.48,6.26,10.71c-2.23-1.45-4.05-2.64-6.3-4.1c2.13,5.38,6.76,7.59,10.11,10.83c7.53,0.64,14.34-1.26,21.47-4.6
		c-0.15-2.19-0.23-4.63-0.5-7.05c-0.58-5.14-1.96-10.31-1.7-15.4c0.24-4.68,1.35-9.49,0.96-14.1c-0.41-4.77,1.83-9.53-0.26-14.26
		c-0.3-0.69,0.63-1.84,0.76-2.82c0.27-1.96,0.92-4.09,0.46-5.9c-1.36-5.29-0.34-10.43,0.3-15.61c0.5-4.02,1.22-8.02,1.54-12.05
		c0.11-1.4-0.71-2.86-1.16-4.52c0.23-0.38,0.57-0.93,1.12-1.85c-1.37-2.93-1.41-6.21-0.04-9.5c0.25-0.6,0.47-1.3,0.41-1.92
		c-0.9-8.74,1.07-17.32,1.3-25.99c0.17-6.28,0.03-12.57,0.03-18.91c2.47-2.25,5.2-4.02,6.19-7.57c0.44-1.57,2.55-2.83,4.71-3.2
		c2.57-0.45,5.07-1.25,7.62-1.9c7.85-0.1,13.63,4.8,19.64,8.92c0.97,4.28,1.94,8.57,3.12,13.81c-0.08,2.48-4.59,5.63-1.02,8.94
		c-0.42,2.96-0.76,5.5-1.13,8.03c-0.61,4.24-1.17,8.48-1.86,12.7c-1.01,6.19-2.5,12.34-2.95,18.56c-0.17,2.36-0.89,4.38-1.28,6.58
		c-0.62,3.51-1.06,7.09-1.09,10.65c-0.06,8.09-0.86,16.11-1.91,24.12c-0.13,0.99-0.43,2.09-0.15,2.97
		c1.14,3.62,0.01,7.17-0.07,10.75c-0.08,3.5,0.04,7,0.04,10.49c0.01,5.9,0,11.81,0,17.54c4.08,3.35,8.36-0.74,12.2,1.14
		c4.37-2.53,9.34-1.91,14.05-2.64c4.57-0.7,9.21-0.93,13.83-1.35c2.08-0.18,4.16-0.3,6.06-0.44c11.06-2.18,21.99-4.33,32.83-6.47
		c2.15-4.51,0.12-8.88-0.51-13.15c-0.68-4.57-1.17-9.15-1.72-13.73c-0.22-1.87-1.11-3.67-1.95-6.27c0.16-1.13,0.84-3.29,0.7-5.39
		c-0.34-4.87-1.08-9.72-1.66-14.57c-0.1-0.82-0.03-1.75-0.41-2.43c-2.05-3.71-1.36-7.95-2.4-11.88c-1.39-5.26-2.05-10.71-3.19-16.04
		c-0.34-1.59-1.23-3.05-1.42-3.5c-0.68-8.23-1.28-15.35-1.91-23.01c-0.51-0.37-1.39-1.01-2.75-1.99c0.24-2.3,0.7-4.9,0.74-7.49
		c0.08-4.8-0.06-9.61-0.13-14.41c-0.03-2.12-0.52-4.31-0.14-6.34c0.94-5.13,2.34-10.13,5.06-14.7c0.92-1.54,1.26-3.41,1.97-5.41
		c5.35-2.57,11.31-0.51,16.95-1.5c4.64,2.2,9.27,4.4,13.66,6.48c3.52,4.08,3.23,9.23,4.91,13.69c1.94,5.14,1.85,10.63,2.25,16.04
		c0.35,4.76,1.28,9.48,1.49,14.23c0.21,4.71-0.4,9.45-0.22,14.16c0.26,6.7-1.4,13.44,0.56,20.13c0.53,1.8,0.12,3.86,0.19,5.8
		c0.29,8.21,0.42,16.43,0.94,24.63c0.47,7.41,1.34,14.8,2.11,22.18c0.12,1.1,0.69,2.15,1.23,3.78c2.02-2.64,4.19-4.64,5.34-7.11
		c4.94-10.57,12.13-19.61,19.13-28.78c2.28-2.98,4.88-5.78,8.55-7.24c2.81-1.12,3.92-3.76,5.29-6.16c2.58-1.38,5.46-2.4,7.63-4.25
		c2.11-1.8,3.49-4.45,5.55-7.2c0.38,1.18,0.53,1.68,0.8,2.52c1.56-0.96,3.06-1.88,4.63-2.85c0.38-1.07,0.76-2.14,1.16-3.27
		c1.8-0.92,3.57-1.83,5.22-2.67c2.09,0.27,4.01,0.52,5.98,0.77c1.3-1.67,2.4-3.09,3.71-4.78c1.12,0.17,2.36,0.36,2.75,0.42
		c2.59-1.32,4.46-2.64,6.54-3.24c2.68-0.77,5.51-1.22,8.3-1.36c9.56-0.47,18.96-2.49,28.53-2.69c1.63-0.03,3.27,0.36,4.91,0.54
		c3.78,0.41,7.58,0.76,11.35,1.24c2.29,0.3,4.61,0.61,6.82,1.25c9.53,2.78,19.03,5.69,28.54,8.54c0.78,0.23,1.9,0.15,2.32,0.67
		c2.83,3.48,7.25,4.57,10.34,7.25c6.61,0.45,11.98,4.75,18.69,5.06c1.29-6.32-1.98-11.92-1.49-17.98c-1.99,0.57-3.74,0.82-4.07-2.23
		c1-0.15,1.85-0.28,2.86-0.43c0-2.39,0-4.85,0-7.8c-0.92,0.43-1.56,0.73-2.51,1.18c-1.45-8.08-5.62-15.42-5.39-23.51
		c-3.46-3.93-6.64-0.9-9.91-0.25c-1.35-0.4-2.78-0.82-4.89-1.44c-4.35,0.98-9.3,2.78-14.32,2.99c-3.36,0.14-6.28,3.26-9.61,0.95
		c-1.52,0.95-2.78,1.74-4.33,2.71c-3.85-2.23-7.75,0.63-11.67,0.49c-4.11-0.14-7.73,0.79-11.08,1.78c-1.97-1.06-3.74-2.01-5.97-3.21
		c-0.11-1.12-0.26-2.74-0.45-4.68c-0.93-1.22-2.03-2.66-3.41-4.47c0.12-0.61,0.34-1.69,0.62-3.11c-1.55-1.72-3.2-3.54-4.72-5.24
		c-0.41-4.57,2.51-13.01,5.76-16.61c1.01,1.6,2,3.17,2.89,4.57c7.62-0.82,7.62-0.82,9.97-2.54c1.02-3.09-2.42-4.09-2.53-6.75
		c-1.57,0.23-2.64,0.38-3.67,0.53c-0.29-1.75,3.13-5.19,5.15-5.31c11.51-0.68,22.88-2.44,34.25-4.3c2.61-0.42,5.33-0.38,7.98-0.23
		c3.09,0.19,5.88-0.46,8.94-2.26c-0.87-6.36,2.51-12.77,0.36-19.57c1.22-3.52,3.1-6.38,7.23-7.71c2.03-0.66,3.55-2.88,4.87-4.83
		c1.94-0.89,3.88-1.79,6.07-2.8c2.45,2.41,5.5,2.37,8.85,2.41c3.32,0.04,6.65,1.6,9.93,2.63c1.22,0.39,2.3,1.19,3.87,2.02
		c2.18,8.46,4.99,17.12,8.18,25c2.58,1.18,4.43,2.36,6.45,2.86c2.65,0.66,5.43,0.83,8.17,1.14c1.15,0.13,2.33,0.11,3.49,0.1
		c9.78-0.09,19.45,1.32,29.13,2.38c5.18,0.57,10.34,1.3,15.95,2.02c0.52,0.61,1.37,1.58,2.4,2.78c1.04-0.59,1.98-1.11,3.1-1.74
		c1.8,0.66,3.92,1.43,6.03,2.2c2.32-1.96,4.7-2.29,7.32-0.79c0.05,0.96,0.09,1.85,0.16,3.42c1.9-1.14,3.35-2.02,5.08-3.05
		c0,0.91,0,1.64,0,2.83c2.51,0.56,5.1,1.76,7.55,1.51c2.6-0.27,5.03,0.15,7.23,0.86c6.97,2.25,14.22,2.41,21.34,3.59
		c7.13,1.18,14.2,2.74,21.3,4.14c4.85,0.96,9.76,1.6,14.43,3.46c3.58,1.42,7.49,1.6,11.2,2.86c3.47,1.17,7.44,1.24,11.03,2.57
		c4.08,1.51,8.25,2.16,12.64,2.07c2.59-0.05,5.21,0.8,7.66,1.21c3.58,4.35,8.37,5.24,14.02,5.29c1.46,0.49,2.16,3.31,5.21,2.36
		c1.56-0.49,3.7,1.06,5.62,1.53c1.25,0.31,2.77-0.03,3.82,0.55c5.95,3.28,12.81,4.15,18.81,7.19c3.22,1.63,6.13,3.86,9.29,5.64
		c4.89,2.75,9.86,5.35,14.81,7.98c1.66,0.88,3.07,1.86,3.6,3.87c0.23,0.9,0.88,1.82,1.59,2.45c3.16,2.77,4.79,6.22,5.35,10.38
		c0.24,1.74,1.34,3.36,2.01,4.95c-0.73,4.03-2.31,7.7-2.25,11.8c0.03,1.74-1.45,3.65-2.58,5.24c-1.9,2.7-3.91,5.36-6.17,7.75
		c-1.91,2.02-4.24,3.66-6.42,5.42c-3.08,2.51-6.14,5.06-9.31,7.44c-6.07,4.57-12.22,9.03-19.07,14.09
		c-0.03,0.07-0.48,1.11-1.03,2.36c-0.9-0.09-1.68-0.16-2.11-0.2c-1.59,1.24-2.97,2.31-4.28,3.33c-0.75-0.57-1.21-0.92-2.08-1.57
		c-0.47,4.43-4.1,5.37-5.9,6.58c-3.03,0.61-5.28,0.54-6.93,1.51c-3.97,2.33-7.69,5.11-11.45,7.79c-0.63,0.45-0.98,1.28-1.58,2.1
		c0.77,0.3,1.29,0.51,2,0.79c-3.11,4.18-8.06,5.36-12.11,8.09c-0.22-0.97-0.37-1.68-0.65-2.9c-2.12,1.47-3.93,2.72-5.8,4.02
		c0,1.06,0,2.11,0,3.53c-2.03-0.25-3.75-0.46-5.72-0.7c-0.41,1.51-0.78,2.89-1.17,4.35c-2,0.95-3.94,1.87-5.8,2.75
		c-0.91-0.32-1.69-0.59-2.14-0.75c-2.76,1.19-5.27,2.27-7.92,3.41c0,0.99,0,1.88,0,2.73c-1.76,0.15-3.41,0.3-5.43,0.48
		c0.67,0.81,0.97,1.18,1.47,1.78c-1.79,1.18-3.57,2.35-6.02,3.97c-0.78-0.07-2.36-0.21-4.11-0.37c-0.68,2.19-2.12,3.37-4.54,3.76
		c-6.77,1.08-12.45,4.69-18.39,7.87c-4.89,2.62-10.33,4.39-15.7,5.92c-8.1,2.32-16.29,4.28-24.38,6.72
		c-4.26,1.28-8.64,3.4-13.48,2.67c-1.37-0.21-2.94,0.46-4.32,0.97c-3.15,1.17-6.38,1.55-9.7,1.9c-3.04,0.33-5.98,1.54-8.95,2.42
		c-2.52,0.74-4.98,1.1-7.7,1.13c-5.89,0.08-11.77,1.18-18,1.91c2.77,8.9,4.21,18.29,7.96,26.84c0.76,6.68,0.61,13.37,2.51,19.85
		c1.23,0.54,2.27,0.99,3.57,1.55c0.39,1.04,0.85,2.24,1.39,3.68c2.68-0.06,4.38,1.73,6.15,3.43c1.38,1.32,2.69,2.57,4.43,3.63
		c4.37,2.66,6.91,6.96,7.73,12.13c0.15,0.97,0.31,1.98,0.71,2.87c1.78,3.98,2.31,8.21,2.82,12.49c0.67,5.57,1.57,11.13,2.56,16.65
		c0.74,4.1,1.92,8.08,4.55,10.84c0.87,11.59,1.7,22.68,2.54,33.91c0.63,0.29,1.2,0.56,1.85,0.86c-0.03,0.16,0.02,0.47-0.12,0.6
		c-1.88,1.88-1.14,4.03-0.48,6.03c0.98,2.98,2.23,5.87,3.4,8.89C1037.12,915.83,1036.6,917.04,1036.03,918.36z M1154.05,644.99
		c2.19,0.18,4.25-1.89,6.39-3.67c3.4-2.83,6.47-6.06,10.65-7.87c1.16-0.5,2.13-1.59,3.01-2.57c2.44-2.69,4.48-5.83,7.26-8.09
		c2.51-2.04,3.94-4.61,4.84-7.34c1.11-3.37,2.46-6.44,5.23-8.97c-4.5-2.95-8.78-5.62-13.87-6.87c-1.65-0.4-3.07-1.74-4.62-2.6
		c-3.99-2.22-7.85-4.8-12.34-4.63c-4.43-3-8.55-5.76-13.81-6.42c-2.11-0.26-4.09-0.51-6.23-0.24c-1.57,0.2-3.55,0.18-4.79-0.61
		c-2.37-1.51-4.98-1.6-7.51-2.25c-1.75-0.45-3.82-0.62-5.09-1.69c-1.71-1.45-3.66-1.23-5.48-1.78c-0.91-0.28-1.96-0.12-2.85-0.43
		c-3.69-1.28-7.37-1.92-10.3-0.4c-2.44-1.31-4.13-2.65-6.05-3.17c-6.05-1.65-12.13-3.34-18.31-4.33c-3.27-0.53-6.44-1.59-9.62-1.96
		c-5.83-0.67-11.63-2.15-17.61-1.41c-1.73,0.21-3.57-0.5-5.37-0.73c-1.88-0.24-3.77-0.4-6.65-0.69c-0.23-0.15-1.34-0.84-2.05-1.29
		c-6.89-0.72-13.3-2.06-19.68-1.88c-6.39,0.19-12.82-1.6-19,0.35c-0.97-0.58-1.81-1.07-2.39-1.41c-5.34,2.16-10.58-0.15-16,1.34
		c-0.62,0.54-1.61,1.4-1.92,1.67c-5.96,1.17-11.85-0.04-15.43,5.99c0.37,3.91,0.83,8.02,1.14,12.15c0.43,5.61,0.66,11.24,1.13,16.85
		c0.57,6.7,1.31,13.39,1.96,20.09c0.19,1.92,0.3,3.84,0.5,5.76c0.51,4.73,1.51,9.46,1.46,14.18c-0.06,6.01,1.21,11.79,1.92,17.67
		c0.59,4.89,1.42,9.76,2.1,14.64c0.75,5.39,1.46,10.78,2.19,16.18c0.28,2.11,0.53,4.23,0.84,6.34c0.65,4.54,1.33,9.07,2.09,14.21
		c-0.01,0.03-0.39,0.72-0.83,1.54c1.25,1.1,2.35,2.08,3.53,3.12c5.65,0,11.25,0.08,16.85-0.04c2.42-0.05,4.84-0.42,7.23-0.79
		c5.63-0.87,10.83-4.46,16.89-2.7c0.13,0.04,0.31-0.09,0.48-0.13c5.39-1.32,10.81-2.52,16.15-4c2.84-0.79,5.48-2.62,8.34-3.01
		c5.9-0.81,10.88-3.87,16.28-5.87c3.23-1.2,6.39-2.62,9.45-4.2c4.38-2.26,8.76-4.58,12.88-7.26c1.59-1.03,3.32,0,4.94-1.51
		c2.37-2.21,5.43-3.78,8.38-5.26c4.15-2.09,8.11-4.53,12.37-6.41c1.12-0.5,2.12-2.5,2.89-2.35c2.26,0.43,2.48-1.88,3.99-2.34
		c1.57-0.48,3.13-1.14,4.51-2.03c7.66-4.93,15.3-9.89,22.85-14.99C1149.27,649.34,1151.27,647.33,1154.05,644.99z M434.71,744.89
		c3.73-2.4,7.36-4.39,8.24-8.87c1.83-0.59,3.5-1.13,4.72-1.52c4.75-7.33,12.35-11.79,16.33-19.26c6.51-5.59,11.07-12.84,16.76-19.5
		c-1.21-1.1-2.24-2.03-3.3-3c0.86-1.83,1.61-3.42,2.48-5.26c-2.08-0.69-3.81-1.19-5.48-1.85c-3.59-1.41-7.17-2.71-11.07-1.22
		c-0.3,0.11-0.65,0.15-0.97,0.12c-5.01-0.52-9.93-2.4-15.07-0.95c-3.3-1.95-6.46,0.01-9.67,0.39c-1.78,0.21-3.52,0.76-5.55,1.23
		c-0.79,0.65-1.81,1.48-2.1,1.72c-8.91,0.29-16.99,0.55-25.61,0.83c-1.96,1.26-4.54,3.3-7.61,2.5c-3.8-0.99-6.83,0.08-8.72,1.53
		c-3.85,0.2-6.66,0.11-9.39,0.53c-4.34,0.66-8.6,1.78-12.94,2.49c-5.28,0.86-10.43,2.35-15.78,2.86c-1.74,0.17-3.41,0.95-5.4,1.54
		c-0.47-0.07-1.32-0.41-2.09-0.28c-2.7,0.45-5.39,0.97-8.04,1.64c-6.05,1.53-12.08,3.18-17.1,4.5c-2.34,1.63-3.86,2.8-5.48,3.8
		c-3.98,2.44-8.3,3.78-12.93,4.58c-3.51,0.61-6.78,2.68-10.29,3.27c-6.55,1.1-13.04,2.31-19.36,4.37c-0.78,0.25-1.64,0.71-2.37,0.57
		c-5.58-1.06-10.18,1.65-14.95,3.74c-3.7-2.09-6.85-0.32-10.21,1.52c-1.44-0.28-3.07-0.59-4.71-0.9c-4.09,1.54-8.19,3.08-12.3,4.63
		c-0.02-0.13-0.05-0.27-0.07-0.4c-1.01,0.77-2.02,1.54-2.9,2.22c4.21,4.39,7.98,8.51,11.97,12.39c2.24,2.18,5.82,3.48,7.12,6.03
		c2.53,4.98,9.31,6.17,10.21,12.27c0.02,0.12,0.22,0.21,0.3,0.28c0.83,0,1.62,0,2.3,0c2.84,2.51,5.63,4.86,8.28,7.36
		c1.78,1.68,3.24,3.72,5.06,5.36c2.69,2.41,5.39,4.89,8.41,6.84c4.78,3.09,8.07,8.45,14.25,9.41c0.46,0.07,1.04,0.35,1.28,0.72
		c2.6,4.05,6.62,6.41,10.46,9.02c6.01,4.09,11.83,8.46,17.94,12.39c6.39,4.11,13.02,7.86,19.55,11.75c0.27,0.16,0.62,0.17,0.99,0.26
		c0.81-0.49,1.65-1.01,2.46-1.5c1.13,0.29,2.22,0.58,2.86,0.74c1.6-1.12,2.71-2.12,4.01-2.78c8.58-4.35,15.81-10.67,23.67-16.08
		c2.98-2.05,5.83-4.28,8.64-6.55c4.49-3.63,8.89-7.36,13.33-11.05c1.13-0.94,2.23-1.92,3.36-2.87c4.39-3.68,9.46-6.52,13.44-10.71
		c2.12-2.24,4.14-4.58,6.02-6.67c-0.33-1.53-0.53-2.49-0.76-3.55c0.94-0.85,1.88-1.7,2.81-2.54c0.63,0.56,1.11,0.98,1.57,1.39
		c5.76-4.49,11.46-8.93,17.57-13.7C436.35,749.55,436.78,746.89,434.71,744.89z M843.97,724.92c5.33-2.04,10.34-4.2,15.52-5.83
		c3.39-1.07,6.9-2.09,10.66-0.66c2.8,1.06,5.12-0.6,7.07-2.59c0.93-0.95,1.77-1.99,2.73-2.91c2.84-2.71,5.71-5.38,8.73-8.21
		c-0.37-1.46-0.77-3.02-1.41-5.52c0.85-0.74,1.94-1.69,2.59-2.25c2.31-0.12,3.8-0.2,5.01-0.27c1.52-0.94,2.78-1.73,4-2.48
		c2.4,0.53,4.65,1.02,7.34,1.62c1.65-1.24,3.48-2.6,4.89-3.66c0.73-2.68,1.29-4.75,1.8-6.62c1.04-0.6,1.84-1.06,2.36-1.37
		c-0.14-6-1.86-11.06-4.62-15.81c-0.97-1.67-1.87-3.39-2.8-5.08c0.09-0.05,0.18-0.1,0.27-0.15c-1.41-1.62-2.83-3.23-4.63-5.3
		c-5,1.68-5.89-5.09-9.79-5.29c-0.72-1.51-1.18-2.51-1.44-3.05c-4.28-1.7-8.08-3.19-11.86-4.71c-0.3-0.12-0.54-0.38-0.81-0.57
		c-2.29-1.62-4.58-3.26-6.89-4.87c-1.89-1.32-4.26-2.27-5.6-4.01c-2.78-3.62-6.49-4.23-10.53-4.45c-6.73-0.37-13.46-0.05-20.19-0.11
		c-6.61-0.06-12.68,2.18-18.94,3.53c-3.41,0.74-6.46,3.08-10.17,4.95c-0.18,0.41-0.6,1.38-0.65,1.5c-2.1,0.49-3.5,0.62-4.72,1.16
		c-1.65,0.74-3.17,1.77-4.72,2.72c-2.25,1.37-4.7,2.51-6.67,4.21c-3.99,3.43-8.35,6.58-10.93,11.39c-0.23,0.42-0.63,0.76-0.99,1.11
		c-5.19,5.09-10.44,10.13-12.76,17.35c-0.24,0.75-0.91,1.36-1.33,2.07c-0.24,0.41-0.38,0.88-0.55,1.27
		c0.49,1.17,0.93,2.23,1.35,3.25c-1.1,0.67-2.11,1.28-3.48,2.11c2.24,0.65,3.64,1.22,5.69,0.84c7.62-1.43,15.34-2.31,23.04-3.3
		c5.92-0.76,11.77-1.58,15.8-6.76c0.16-0.2,0.62-0.17,1.5-0.38c1.72,1.13,3.77,2.47,6.18,4.05c1.56,0,3.55,0,4.71,0
		c2.55,1.68,4.5,2.85,6.33,4.18c1.59,1.16,3.67,2.21,4.44,3.83c2.45,5.17,4.96,10.54,1.4,16.35c-1.98,1.19-3.95,2.37-5.7,3.43
		c-0.72,1.55-1.35,2.89-1.71,3.64c-3.08,1.88-5.61,3.42-8.4,5.12c-0.77-0.11-1.91-0.41-3.05-0.4c-1.12,0.01-2.23,0.35-3.55,0.58
		c-0.4,0.92-0.84,1.94-1.17,2.7c-3.34,0.63-6.58,0.74-9.39,1.9c-2.89,1.19-6.44,0.44-9.23,2.9c10.16,3.86,19.89,4.12,29.4,0.44
		c8.16,1.16,15.36-2.68,23.21-3.26C841.89,723.59,842.71,724.12,843.97,724.92z M466.11,911.87c-16.09-5.64-30.58-13.11-45.16-20.79
		c-0.28,3.06,4.11,2.42,3.19,5.57c4.53,0,7.06,3.32,10.12,5.99c2.97-1.19,6.17-0.7,8.39,0.97c5.36,4.03,12,5.27,17.55,8.8
		C461.41,913.17,463.36,914.54,466.11,911.87z M374.7,865.93c-0.21,0.17-0.45,0.36-0.44,0.37c2.32,3.29,5.77,5.22,9.14,7.12
		c1.43,0.81,3.39,0.71,5.23-0.34C384.8,868.56,379.6,867.49,374.7,865.93z"/>
	<path d="M531.02,549.75c-2.84,2.32-6.16,3.35-9.6,3c-2.49-0.26-4.78-0.17-7.14,0.72c2.66-2.65,5.2-5.01,9.54-3.82
		C526.07,550.25,528.61,549.75,531.02,549.75z"/>
</g>
</svg>
