<?xml version="1.0" encoding="utf-8"?>
<!-- Generator: Adobe Illustrator 27.9.1, SVG Export Plug-In . SVG Version: 6.00 Build 0)  -->
<svg version="1.1" id="Layer_1" xmlns="http://www.w3.org/2000/svg" xmlns:xlink="http://www.w3.org/1999/xlink" x="0px" y="0px"
	 viewBox="0 0 1417.32 1417.32" style="enable-background:new 0 0 1417.32 1417.32;" xml:space="preserve">
<g>
	<path d="M1171.39,838.67c-1.6,0.16-2.93,0.12-4.16,0.45c-1.82,0.49-3.41,1.45-5.46,0.22c-0.62-0.37-2.24,0.92-3.62,1.54
		c-0.08-0.05-0.54-0.36-1.05-0.69c-0.47,0.5-0.88,0.93-1.42,1.5c-0.36-0.28-0.76-0.59-0.97-0.76c-4.37,2.99-9.15,4.3-14.33,4.57
		c-0.44,0.66-0.91,1.37-1.43,2.16c-0.7-0.54-1.26-0.97-1.81-1.39c-2.94,1.2-5.7,3.29-9.26,1.6c-0.21,1.74-0.86,2.97-2.78,3.37
		c-1.32,0.28-2.52,1.08-3.69,1.88c-2.55,0.3-5.17,0.27-7.51,1.9c-1.44,1-1.54,0.85-4.94,0.35c0.42-2.32,4.01-0.94,4.3-3.66
		c-2,0.21-3.87,0.4-5.42,0.56c-1.33,1.36-2.46,2.51-3.65,3.73c0.15,0.22,0.39,0.57,0.86,1.26c-2.92,1.33-5.82,2.65-8.58,3.91
		c-2.71-0.91-2.71-0.91-3.14-2.7c2.65-0.25,5.33-0.5,8.02-0.75c0.63-1.38,1.11-2.43,1.67-3.68c-4.97,1.45-9.63,2.82-14.58,4.26
		c0.27,1.2,0.54,2.44,0.89,3.99c-0.56-0.15-0.98-0.26-1.44-0.39c-0.28,0.53-0.55,1.05-0.8,1.53c-2.44,0.66-4.79,1.29-7.43,2
		c0.49-2.22,4.41-1.29,3.08-4.51c-6.13,2.06-12.25,4.12-18.37,6.18c4.61,2.46,8.43-1.73,13.15-1c-3.99,3.49-9.53,2.3-13.27,5.16
		c-3.84,2.94-8.75,2.61-12.99,4.94c-0.45-0.22-1.11-0.54-1.89-0.92c-1.09,3.44-4.44,2.9-6.95,3.76c-2.34,0.8-4.81,1.63-7.47,0.97
		c-0.53,0.78-1.16,1.71-1.88,2.77c-0.98-0.51-1.75-0.91-2.61-1.36c-0.31,0.22-0.66,0.47-1.01,0.71c-1.57,1.07-3.12,2.17-4.72,3.21
		c-4.74,3.09-10.3,4.18-15.45,6.24c-2.96,1.18-5.5,3.21-9.11,3.18c-3.14-0.03-5.52,3.17-9.1,3.17c-1.49,0-3.09,1.62-4.44,2.75
		c-2.59,2.16-5.59,2.18-8.8,2.05c-2.06,1.26-4.21,2.59-6.61,4.05c-3.63,0.39-7.02,1.81-10,4.59c-1.56,1.45-3.8,2.17-5.74,3.19
		c-2.5,1.32-5.18,2.36-6.85,4.88c-0.3,0.45-0.88,0.78-1.4,1.01c-4.49,1.96-8.63,4.26-11.72,8.35c-1.36,1.8-3.77,2.86-5.81,4.08
		c-6.26,3.73-12.74,7.14-18.81,11.15c-3.23,2.14-6.74,4.09-9.08,7.52c-0.94,1.38-2.86,2.1-4.27,3.08c-0.32,1.21-0.62,2.32-0.94,3.51
		c-1.51,0.78-2.92,1.62-4.41,2.27c-2.45,1.06-4.9,2.21-7.46,2.89c-1.3,0.34-3.25,0.22-4.2-0.55c-1.91-1.56-4.44-2.9-5.6-4.75
		c-3.16-5.04-8.74-7.59-11.89-12.98c-0.87-2.8-1.87-6.03-2.97-9.58c0.13-0.19,0.38-0.77,0.81-1.14c3.09-2.65,6.11-5.4,9.38-7.82
		c1.84-1.36,4.07-2.2,6.16-3.21c4.53-2.19,9.2-4.12,13.57-6.59c2.67-1.51,5.11-3.3,8.15-4.19c1.93-0.57,3.62-1.93,4.01-4.24
		c0.44,0.05,0.87,0.1,1.51,0.17c-0.53-4.52,2.9-6.27,6.1-8.25c0-1.23,0-2.39,0-3.84c2.2-3.6,4.55-7.45,6.92-11.33
		c0.51,0.39,0.84,0.65,1.37,1.06c0.59-0.57,1.26-1.11,1.8-1.77c1.23-1.51,1.2-1.54,0.92-4.56c2.76-1.92,3.37-4.71,2.85-8.12
		c1.53-2.05,3.12-4.18,4.92-6.59c-0.52-3.62,2.69-5.55,4.85-8.13c-0.08-0.71-0.16-1.44-0.2-1.76c1.16-2.11,2.15-3.91,3.32-6.04
		c0.44-0.19,1.24-0.54,2-0.88c0.09-0.19,0.24-0.36,0.2-0.44c-1.65-3.34,1.08-5.63,2.12-8.26c0.89-2.26,1.81-4.62,3.97-6.25
		c0.81-0.6,1.04-2.05,1.38-3.16c0.34-1.1,0.47-2.25,0.79-3.85c0.81,0.6,1.21,0.9,1.67,1.24c0.82-0.58,1.65-1.18,2.78-1.98
		c-1.02-0.61-1.86-1.11-3-1.78c3-6.2,6.05-12.52,9.55-19.76c0.21,1.9,0.31,2.8,0.49,4.44c0.94-1.23,1.55-2.03,2.26-2.96
		c-0.8-0.96-1.43-1.73-2.14-2.59c0.14-0.51,0.33-1.23,0.52-1.95c3.58-1.68,3.65-1.77,4.16-6.01c-0.76,1.21-1.22,1.96-1.89,3.02
		c-0.49-1.68-0.9-3.1-1.51-5.21c-2.11,2.04-3.79,3.58-5.37,5.2c-2.36,2.43-4.67,4.9-6.96,7.39c-3.32,3.61-6.48,7.36-9.93,10.84
		c-1.98,1.99-4.42,3.51-6.6,5.3c-1.99,1.62-3.95,3.02-6.53,3.9c-2.18,0.74-3.82,3.05-5.7,4.66c-0.56,0.48-1.06,1.14-1.71,1.36
		c-4.42,1.46-7.44,5.11-11.39,7.23c-0.61-0.18-1.17-0.35-1.47-0.45c-2.77,3.06-6.06,4.77-9.89,5.96c-3.69,1.14-7.01,3.64-12.03,1.45
		c0.78,1.73,0.98,2.19,1.29,2.87c-1.24,0.57-2.55,1.17-4.01,1.83c-0.42-0.57-0.74-1.02-1.17-1.62c-2.51,3.22-6.09,3.86-9.94,3.41
		c-3.09-0.36-6.14-1.01-9.41-1.56c-0.99,0.72-2.06,1.51-3.15,2.3c-1.43-0.17-2.86-0.35-4.22-0.51c-0.28,0.61-0.45,0.99-0.64,1.39
		c-3.56-0.8-7.12-1.6-11.09-2.49c-0.16,0.09-0.79,0.47-1.66,0.99c-0.65-0.34-1.42-0.74-2.13-1.11c-0.75,0.71-1.49,1.42-2.81,2.67
		c-0.12-1.52-0.17-2.2-0.23-2.97c-0.36-0.15-0.76-0.42-1.17-0.45c-1.92-0.16-3.84-0.21-5.76-0.39c-1.01-0.1-2.38-0.05-2.94-0.66
		c-2.86-3.07-7.31-2.9-10.47-5.55c-3.01-2.52-6.82-4.05-10.1-6.28c-3.32-2.27-6.33-5-9.64-7.28c-7.95-5.48-14.05-12.74-19.84-20.29
		c-0.97-1.26-0.98-3.25-1.55-5.35c0.11,0.06-0.23-0.25-0.63-0.34c-0.42-0.09-0.88,0.03-1.37,0.06c-3.38-5.18-5.97-10.74-7.52-16.64
		c-1.2-4.53-1.26-9.35-2.16-13.97c-1.4-7.21-0.12-14.24,0.89-21.32c0.28-1.97,0.35-3.98,0.26-6.15c-1.37,1.59-2.41,2.95-4.84,3.29
		c-2.07,0.29-3.87,2.51-5.82,3.9c-0.95-0.64-1.64-1.11-2.47-1.67c-0.51,0.83-0.95,1.56-1.23,2.01c-1.75,0.74-3.4,1.14-4.73,2.04
		c-3.55,2.4-7.24,4.72-10.37,7.61c-4.77,4.39-10.52,7.31-15.57,11.25c-1.43,1.11-3.35,1.59-5.16,2.16c-1.43,0.38-0.92,3.65-3.1,2.36
		c-1.84,1.26-3.4,2.31-4.96,3.38c-4.41,3.01-8.82,6.01-13.21,9.05c-3.31,2.28-6.66,4.5-9.86,6.92c-5.92,4.5-12.66,7.65-18.82,11.75
		c-2.97,1.97-5.87,4.04-8.84,6.01c-3.09,2.05-6.36,3.82-9.61,5.63c-1.17,0.65-2.49,1-3.72,1.55c-0.78,0.35-1.7,0.66-2.22,1.28
		c-2.47,2.93-5.87,3.91-9.48,5.04c-1.8,4.02-6.91,3.75-9.54,7.09c-0.54-0.9-0.84-1.4-1.38-2.32c-1.89,3.38-5.53,5.14-6.59,9.32
		c0.95,2.78,1.98,5.8,3.12,9.13c-1.44,2.62-1.91,5.61,0.11,8.55c-0.49,1.3-0.95,2.53-1.52,4.05c-1.33-0.86-2.51-1.61-3.57-2.3
		c-2.67,1.21-0.52,2.97-0.85,4.63c-0.97,0.83-2.08,1.79-3.21,2.75c-2.77-2.15-6.22-3.22-10.17-4.03c-4.17-0.86-8.11-2.67-12.29-3.62
		c-0.81-0.18-1.48-0.98-2.21-1.48c-0.27-0.95-0.53-1.88-0.74-2.59c-0.55-0.29-0.82-0.54-1.08-0.54c-1.64,0-3.28,0.14-4.91,0.07
		c-1.38-0.06-2.23-1.26-3.98-1.22c-4.22,0.09-8.37,0.13-12.5,1.2c-2.08,0.54-4.29,0.6-6.54,0.36c-1.41,0.51-2.77,1.2-4.22,1.48
		c-2.25,0.43-4.58,0.92-6.84,0.78c-4.65-0.29-9.27-0.96-13.9-1.51c-3.39-0.4-6.76-0.93-10.15-1.28c-2.94-0.3-5.9-0.41-8.85-0.65
		c-0.59-0.05-1.35-0.06-1.72-0.41c-2.39-2.31-5.75-2.19-8.49-3.52c-2.37-1.15-4.46-2.87-6.55-4.26c-2.21-0.9-4.35-1.77-6.64-2.7
		c0.33-1.59,0.56-2.71,0.84-4.07c-0.47-1.18-1.03-2.56-1.69-4.21c0.93-0.65,1.85-1.3,2.74-1.92c1,0.44,1.8,0.79,2.55,1.12
		c1.62-0.57,3.17-1.12,5.3-1.87c0.34-1.25,0.78-2.85,1.39-5.12c5.06-2.66,10.81-4.76,17.6-2.97c2.71,0.72,5.83-0.19,8.76-0.28
		c4.85-0.13,9.7-0.17,14.55-0.31c0.87-0.02,1.73-0.33,2.78-0.55c1.22,1.53,2.67,2.39,4.92,1.66c2.8-0.92,5.73-1.44,8.55-2.11
		c3.78,2.04,7.79,1.43,11.52,0.88c3.52-0.52,6.62-0.06,10.12,1.26c2.47-1.79,5.1-3.7,7.6-5.51c0-3.71,0.13-7.36-0.07-10.98
		c-0.07-1.23-0.95-2.42-1.47-3.66c1.87-3.16-0.98-5.81-1.01-8.72c-0.04-3.23-0.61-6.26-1.24-9.38c-0.63-3.1-1.82-6.04-2.09-8.14
		c-1.41-2.61-2.36-4.36-3.54-6.56c-0.65-0.23-1.87-0.67-2.87-1.03c-0.18-2.69-0.34-5.12-0.49-7.37c-1.14-0.35-1.79-0.54-2.27-0.69
		c-1.89-5.83-1.21-12.1-4.72-17.36c-1,0.37-1.72,0.53-2.34,0.88c-0.64,0.36-1.17,0.9-1.96,1.53c-1.73-1.43-3.26-0.01-4.96,0.26
		c-4.84,0.76-9.25,2.76-13.86,4.15c-5.35,1.61-10.23,4.51-15.9,5.34c-2.37,0.35-4.55,1.96-6.69,3.36c-1.69-0.05-3.45-0.19-4.86,1.28
		c-0.4,0.42-0.95,1.01-1.41,1c-4.87-0.15-7.9,3.55-11.78,5.46c-3.57,1.76-7.33,3.16-10.98,4.76c-1.5,0.66-2.98,1.37-4.4,2.18
		c-5.3,3.03-10.6,6.07-15.83,9.21c-1.36,0.81-2.47,2.02-3.73,3.01c-0.45,0.36-0.95,0.73-1.48,0.91c-2.4,0.82-4.46,2.38-6.7,3.34
		c-3.07,1.32-4.97,3.96-7.88,5.46c-4.45,2.29-8.2,5.93-12.65,8.22c-4.06,2.09-7.25,5.13-10.86,7.72c-2.66,1.91-4.44,4.43-6.17,6.94
		c-2.98,4.32-6.44,8.16-9.99,11.99c-2.16,2.34-3.8,5.15-5.87,7.58c-2.73,3.19-4.44,6.84-5.91,10.73c-0.5,1.33-2.17,2.43-3.56,3.15
		c-2.09,1.08-4.35,1.97-6.64,2.48c-2.3,0.52-4.73,0.47-7.1,0.68c-0.89,0.08-1.78,0.2-2.51,0.29c-5.07-2.39-10.97-3.75-11.88-10.57
		c-1.72-0.6-3.23-1.12-4.79-1.66c-0.94-3.07,0.73-5.35,2.08-7.6c1.71-2.86,3.35-5.67,3.05-9.27c3.68-2.87,4.09-7.37,5.52-11.34
		c0.81-2.24,1.01-4.7,1.35-7.09c0.32-2.21,1.93-4.38,3.4-6.23c1.76-2.22,0.8-4.85,1.57-7.22c0.5-1.53,0.7-3.14,1.64-4.52
		c1.79-2.65,2.82-5.58,3.28-8.73c0.33-2.25,1.07-4.32,2.61-6.05c1.59-1.79,1.66-3.67,0.05-5.84c1.14-0.65,2.26-1.27,3.45-1.95
		c1.04-1.85,2.12-3.77,3.36-5.97c-0.25-1.16-0.56-2.6-0.7-3.25c0.89-3.08,1.56-5.43,2.56-8.89c1.12-0.85,2.42-2.88,1.22-5.6
		c0.93-0.37,1.56-0.62,2.17-0.87c-0.26-1.68-0.5-3.25-0.79-5.14c0.91,0.47,1.43,0.73,2.36,1.21c1.8-5.62,3.58-11.17,5.46-17.03
		c-0.36-0.68-0.83-1.57-1.31-2.47c3.29-1.62,1.92-5.08,3.01-7.63c-0.51-0.99-1.04-2.02-1.58-3.05c1.32-1.6,2.51-3.06,3.98-4.84
		c-1.02,0-1.55,0-2.57,0c0.75-1.31,1.36-2.39,2-3.52c-0.26-1.23-0.53-2.54-0.95-4.5c-2.1,2.49-3.95,4.65-5.77,6.85
		c-0.65,0.79-1.14,1.73-1.83,2.48c-2.01,2.17-4.31,4.1-6.1,6.43c-5.32,6.91-11.47,12.88-18.93,17.45
		c-2.44,3.89-7.64,3.82-10.42,7.26c-0.9,1.11-2.09,1.98-3.54,3.32c-4.3,0.65-8.21,3.4-12.3,5.81c-1.26,0.74-2.66,1.24-4.01,1.81
		c-3.8,1.62-7.8,2.76-11.27,5.13c-0.71,0.49-1.6,0.91-2.45,0.99c-2.25,0.23-3.96,1.22-5.23,3.36c-3.96-1.54-6.9,0.59-9.87,2.67
		c-3.78,0.03-7.57-0.52-11.32,0.66c-1.34,0.42-2.99,0.38-4.37,0.04c-1.91-0.46-3.51-0.17-5.46,1.09c1.54,3.3,3.34,6.54,4.57,9.99
		c1.39,3.91,3.86,7.21,5.57,10.92c1.69,3.67,3.67,7.22,5.23,10.94c2.15,5.13,4.4,10.22,6.5,15.37c2.08,5.12,3.78,10.41,5.46,15.68
		c1.4,4.4,2.31,8.97,3.85,13.31c1.91,5.37,3.14,10.89,3.92,16.48c0.74,5.28,2,10.54,0.94,15.99c-0.31,1.59,0.49,3.39,0.9,5.78
		c-0.3,0.13-1.3,0.56-2.37,1.02c1.25,1.96,2.02,3.18,2.38,3.73c-0.28,4.13-0.51,7.59-0.74,11.1c-1.07,1.53-2.23,3.2-3.38,4.84
		c0.68,1.25,1.17,2.14,1.96,3.58c-1.07,1.87-2.14,4.16-3.59,6.16c-1.88,2.59-1.17,5.44-1.14,8.19c0.02,1.9,0.67,3.79,1.1,5.98
		c-1.95,0.26-3.78,0.5-5.75,0.76c0,1.48,0,2.77,0,4.03c-4.35,1.88-5.69,1.62-9.03-1.58c-2.95-2.82-6.1-4.46-10.49-3.12
		c-1.99,0.61-4.39-0.06-6.6-0.25c-3.27-0.29-6.55-0.55-9.79-1.05c-5.45-0.84-10.87-1.83-16.29-2.81c-3.05-0.55-6.05-1.41-9.12-1.75
		c-5.09-0.56-9.65-2.82-14.48-4.11c-3.3-0.88-6.34-2.18-9.45-3.42c-4.84-1.93-9.59-4.1-14.47-5.9c-3.02-1.12-5.75-2.5-7.66-4.96
		c-1.46-0.47-3.31,0.64-4.01-1.47c-0.09-0.27-1.03-0.19-1.51-0.41c-2.13-0.98-4.73-1.55-6.21-3.15c-1.87-2.03-4.32-2.85-6.38-4.38
		c-4.28-3.17-8.78-6.05-13.02-9.27c-3.18-2.42-6.1-5.2-9.11-7.8c0-0.49,0-0.93,0-1.47c-0.8-0.22-1.64-0.46-2.63-0.73
		c-0.48-1.51-0.96-3.04-1.55-4.89c-0.71-0.09-1.85-0.24-3.04-0.39c-4.29-4.58-8.96-8.8-12.66-13.75c-3.57-4.78-8.02-9.11-9.75-15.11
		c-1.15-0.65-2.3-1.3-3.4-1.92c0.07-0.87,0.12-1.59,0.17-2.27c-1.01-0.47-2.3-0.64-2.72-1.34c-2.13-3.54-4.06-7.2-6-10.85
		c-1.32-2.5-2.32-5.18-3.84-7.54c-0.82-1.27,0.71-3.3-1.77-4.09c-1-0.32-1.5-2.35-2.12-3.66c-0.57-1.2-0.9-2.53-1.51-3.71
		c-1.42-2.75-2.94-5.44-4.59-8.06c-1.43-1.54,0.42-4.65-2.53-5.36c-0.98-2.53-1.99-4.95-2.86-7.41c-1.07-3.07-2.7-6.1-0.8-9.46
		c-3.2-2.97-2.2-7.15-3.58-10.57c-0.43-1.05-0.83-2.11-1.27-3.16c-1.71-4.07-2.95-8.16-3.52-12.65c-0.55-4.36-1.08-8.77-1.84-13.12
		c-0.37-2.09-1.74-3.99-2.58-6.01c-1.03-2.45-1.11-4.86,0.77-7.26c-0.49-0.64-1.02-1.32-1.54-2.01c0-1.75,0-3.54,0-5.33
		c-0.85-4.73-2.17-9.46-1.62-15.29c-0.13-0.19-0.82-1.14-1.66-2.32c0.84-0.43,1.54-0.79,2.45-1.25c-5.54-3.09-2.54-8.63-4.05-12.96
		c0.51-0.26,0.89-0.46,1.31-0.67c-0.12-0.8-0.27-1.66-0.37-2.54c-0.09-0.85-0.32-1.76-0.14-2.56c0.22-0.96,0.82-1.84,1.31-2.89
		c-0.5-0.82-1.04-1.69-1.27-2.07c0-2.25,0-3.98,0-6.19c2.39-1.75,1.11-4.92,1.04-7.43c-0.06-2.15,0.6-4,0.76-6.01
		c-0.68-0.75-1.36-1.5-2.27-2.51c0.6-1.3,1.2-2.61,2.23-4.86c-0.08-1.65-0.21-4.39-0.35-7.38c0.18-0.09,0.69-0.35,1.21-0.61
		c-1.46-2.46-2.91-4.92-4.59-7.76c0.64-4.21,4.77-7.05,5.34-11.26c2.22-0.84,4.03-1.52,5.67-2.14c6.09,0.87,11.26,3.38,16.36,6.32
		c3.59,2.06,7.51,3.54,10.77,6.2c1.83,1.5,3.69,2.97,5.55,4.42c2.56,1.99,4.74,4.4,7.61,6.07c1.29,0.75,1.98,2.53,3.08,4.04
		c4.7,3.19,8.98,7.15,12.66,11.89c3.47,4.47,7.61,8.4,11.28,12.73c4.52,5.33,8.86,10.81,13.26,16.26c2.04,2.53,4.26,4.95,5.96,7.7
		c2.65,4.27,5.4,8.42,8.73,12.21c1.24,1.41,2.11,3.18,3.05,4.84c3.14,5.54,6.73,10.77,10.47,15.92c2.14,2.95,3.49,6.46,5.2,9.72
		c0.48,0.9,0.94,1.82,1.51,2.66c4.45,6.47,8.52,13.17,12.25,20.09c1.77,3.28,3.89,6.36,5.79,9.56c1.47,2.47,2.88,4.98,4.25,7.5
		c3.54,6.49,7.01,13.02,11.03,19.24c1.68,2.6,3.21,5.3,4.74,7.99c1.9,3.36,3.72,6.76,5.59,10.14c1.52,2.73,2.99,5.49,4.61,8.17
		c1.22,2.01,2.66,3.88,3.95,5.84c0.73,1.11,1.37,2.29,2.04,3.44c1.87,3.21,3.73,6.42,5.71,9.55c1.59,3.11,1.5,6.78,4.36,9.62
		c1.99,1.98,2.86,5.08,4.31,7.63c1.23,2.16,2.56,4.26,4.06,6.74c1.61-1.48,2.9-2.67,4.39-4.04c2.64-0.99,5.17-0.26,7.72,1.37
		c2.04,1.3,4.35,2.16,7.33,3.6c1.12,0.04,1.82-1.3,1.63-2.92c-0.8-6.67-0.06-13.56-2.97-19.94c-0.73-1.59-1.01-3.39-1.49-5.1
		c-0.08-0.28,0.02-0.65-0.12-0.88c-4.45-7.07-5.86-15.44-9.84-22.78c-2.01-3.72-3.73-7.89-4.71-12.24
		c-0.56-2.49-2.29-4.73-3.55-7.06c-3.87-7.15-7.63-14.36-11.73-21.38c-1.53-2.61-2.72-5.74-5.94-7.01
		c-1.47-3.81-5.34-4.45-8.27-6.34c-2.88-1.86-5.59-3.97-8.53-6.09c-0.16,0.05-0.64,0.19-1.35,0.4c-0.42-1.15-0.81-2.23-1.25-3.44
		c-0.22,0.43-0.41,0.8-0.62,1.2c-1.72-1.31-3.5-2.65-5.76-4.36c-0.14-0.36-0.51-1.29-0.88-2.21c-0.37,0.03-0.66,0.06-1.31,0.12
		c-0.27-0.59-0.49-1.39-0.96-1.98c-0.55-0.69-1.33-1.2-2.01-1.78c0.32-0.47,0.63-0.92,1.22-1.77c-1.11-0.08-1.88-0.14-2.66-0.19
		c-3.28-3.8-6.69-7.54-9.87-11.47c-4.46-5.52-7.28-11.94-9.54-18.6c-0.91-2.67-0.63-4.45,0.52-6.98c-0.4-1.49-1.04-2.71-1-3.9
		c0.1-3.32-1.02-6.07-3.09-8.59c-4.23-5.16-8.28-10.46-13.24-15c-1.05-0.96-1.56-2.51-2.51-4.09c-2.16-1.99-5.97-2.96-6.45-7.04
		c-0.03-0.24-0.65-0.39-0.98-0.6c-3.52-2.3-5.65-6.1-9.08-8.52c-0.43-0.3-0.34-1.34-0.49-2c-0.69-0.79-1.53,0.76-2.46-0.49
		c-2.74-3.69-6.36-6.39-10.4-8.67c-2.61-1.48-4.8-3.72-7.06-5.75c-1.85-1.66-3.88-3.08-5.4-5.18c-0.83-1.14-3.24-1.07-3.73-2.84
		c-1.54-5.57-7.38-5.86-10.49-9.46c-0.83,0.73-1.26,1.11-1.97,1.73c-1.42-1.45-2.81-2.97-4.3-4.37c-0.85-0.8-1.84-1.45-2.8-2.12
		c-1.96-1.35-3.92-2.72-5.94-3.97c-3.27-2.03-6.47-4.22-9.93-5.88c-1.94-0.93-4.36-1.41-6.51-1.25c-3.55,0.27-6.77-0.7-10.28-1.61
		c-3.77-4.91-10.06-6.18-15.33-9.71c-0.89,0.3-1.98,0.67-3.17,1.07c-0.06-0.1-0.32-0.43-0.51-0.79c-1.86-3.61-5.43-5.36-8.73-6.86
		c-6.65-3.03-13.47-5.99-20.53-7.72c-5.44-1.34-9.3-5.29-13.67-6.45c-3.34-3.22-6.11-5.89-9-8.67c-0.32-3.56,2.28-5.87,4.17-8.56
		c0.09-5.6,2.02-10.61,5.05-15.56c1.07,0.43,1.97,0.79,2.35,0.95c3-1.05,5.63-1.96,8.18-2.85c2.95,2.22,5.89,3.52,9.39,2.63
		c3.16,2.54,6.31,4.85,10.43,4.71c0.59,0.86,1.1,1.58,1.65,2.38c1.3,0.17,2.63,0.32,3.96,0.52c5,0.73,9.92,1.8,15.05,1.68
		c3.97-0.09,7.97,0.65,11.95,1c6.26,0.54,12.52,1.14,18.77-0.11c0.72-0.14,1.52-0.16,2.23-0.01c6.35,1.31,12.69,1.21,19.04-0.05
		c1.16-0.23,2.39-0.15,3.58-0.15c0.9,0,1.82,0.25,2.69,0.13c4.8-0.68,9.58-1.43,14.34-2.35c4.72-0.29,9.49,0.01,14-2.22
		c1.69-0.83,3.85-0.65,5.65-1.3c4.89-1.76,10.05-2.51,14.97-3.98c5.2-1.56,10.52-2.99,15.41-5.66c3.09-1.68,6.73-2.36,10.12-3.48
		c0.57-0.19,1.2-0.22,1.73-0.47c6.65-3.2,13.29-6.44,19.94-9.65c1.34-0.65,2.71-1.25,4.06-1.87c5.93-2.75,11.87-5.48,17.78-8.28
		c0.77-0.36,1.33-1.14,1.39-1.2c4.1-1.85,7.57-3.42,11.04-4.99c-0.09-0.14-0.19-0.28-0.28-0.42c2.24-1.63,4.52-3.22,6.72-4.9
		c2.66-2.03,6.43-2.41,8.29-5.61c2.65,0.14,1.83-2.68,3.56-4.01c2.81-0.92,5.73-2.84,8.9-4.26c1.98-0.89,3.88-2.14,5.51-3.58
		c5.66-5,12.74-7.7,18.9-11.88c2.42-1.64,5.45-2.37,7.03-3.03c4.12-0.17,7.06-0.46,9.98-0.34c1.88,0.08,3.78,0.62,5.57,1.23
		c1.38,0.47,2.61,1.37,4.22,2.25c3.54,4.78,4.6,10.94,6.15,16.75c0.95,3.55,1.13,7.82-1.78,10.66c-5.06,2.64-9.77,5.07-14.46,7.57
		c-0.78,0.41-1.5,1.02-2.1,1.67c-3.75,4.03-7.52,8.05-11.17,12.18c-2.04,2.31-3.87,4.81-5.79,7.22c-0.28,0.35-0.46,0.79-0.78,1.08
		c-4.66,4.31-9.77,8.24-13.88,13.03c-3.2,3.73-6.62,7.2-10,10.72c-1.86,1.94-3.79,3.82-5.6,5.8c-3.88,4.25-7.59,8.67-11.61,12.79
		c-2.76,2.82-4.53,6.07-6.23,9.59c-1.9,3.95-4.34,7.7-7.99,10.57c-2.09,1.65-3.52,4.15-5.22,6.29c-2.59,3.24-5.16,6.5-7.74,9.75
		c-0.28,0.35-0.7,0.65-0.81,1.05c-1.05,3.76-4.69,5.63-6.4,8.93c-1.08,2.08-2.73,3.88-3.77,5.97c-1.94,3.87-4.72,6.45-9.73,6.97
		c-2.45-0.39-4.8-1.78-6.8-4.32c-2.55-3.22-6.71-4.2-10.23-6.07c-0.64-0.34-1.38-0.5-1.92-0.69c-1.42-2.36-0.75-4.44,0.06-6.58
		c0.62-1.63,1.02-3.34,1.56-5.16c-1.1-0.47-1.84-0.79-2.59-1.11c0.13-0.33,0.15-0.73,0.33-0.83c2.63-1.4,3.64-3.98,4.35-6.53
		c0.62-2.25,1.24-4.3,3.33-5.58c0.12-0.08,0.25-0.18,0.32-0.31c4.67-7.92,12.2-13.38,17.75-20.56c2.07-2.68,4.82-4.83,7.25-7.25
		c5.17-5.15,9.81-10.84,15.7-15.27c1-0.75,1.52-2.14,2.53-3.64c-5.48-0.44-9.33,4.15-13.01,3.41c-5.08,1.44-8.92,2.56-12.79,3.6
		c-1.98,0.53-4.21,0.52-5.98,1.42c-3.33,1.69-7.03,2.02-10.44,3.52c-4.95,2.18-10.26,3.52-15.36,5.37c-2.37,0.86-4.5,2.41-6.9,3.1
		c-4.84,1.38-9.78,2.41-14.68,3.55c-2.44,0.57-4.89,1.07-8.19,1.79c-0.05,0.05-0.82,0.75-1.13,1.03c-4.94,0.62-9.24,1.6-13.48,3.05
		c-2.23,0.76-4.65,0.98-6.99,1.34c-2.06,0.32-4.14,0.46-6.21,0.74c-4.7,0.62-9.39,1.37-14.1,1.87c-2.46,0.26-4.9-0.5-7.48-0.13
		c-3,0.43-6.14-0.17-9.22-0.28c-0.19-0.01-0.39,0.39-0.93,0.96c2.26,2.24,4.4,4.72,6.9,6.75c3.2,2.59,6.62,4.85,9.65,7.73
		c4.32,4.11,9.1,7.75,13.68,11.59c0.79,0.67,1.57,1.35,2.36,2.03c1.9,1.63,3.71,3.38,5.71,4.86c5.11,3.79,9.78,8.07,14.3,12.5
		c6.55,6.42,12.9,13.04,19.46,19.46c1.45,1.42,3.3,2.53,5.14,3.44c1.78,0.88,2.73,2.12,3.25,3.97c0.27,0.95,0.78,2.27,1.54,2.58
		c3.13,1.29,4.47,4.27,6.63,6.46c1.67,1.7,4.05,3.01,5.02,5.03c1.77,3.65,5.78,5.1,7.53,8.6c0.16,0.33,0.68,0.48,1.33,0.91
		c0.34-0.74,0.69-1.32,0.88-1.95c2.48-8.25,4.7-16.6,8.53-24.36c0.78-1.57,2.01-2.91,2.92-4.42c3.3-5.48,6.57-10.98,9.8-16.5
		c0.52-0.89,0.8-1.91,1.26-3.06c2.41-1.91,4.72-4.04,6.74-6.73c2.55-3.39,6.25-5.92,9.55-8.72c3.4-2.88,6.87-5.68,10.4-8.38
		c1.74-1.33,3.7-2.37,5.68-3.63c0.7,0,1.58,0,2.63,0c0.38-0.49,0.73-1.22,1.3-1.62c2.31-1.61,4.63-3.15,7.4-4.01
		c6.96-2.16,13.67-5.27,21.12-5.46c4.48-0.12,8.96-0.11,13.43-0.15c1.2-0.01,2.4,0.06,3.6,0.09c2.57,0.06,5.05,0.02,7.68,0.67
		c2.19,0.55,4.59,0.67,6.91,1.3c3.25,0.87,6.68,1.07,9.99,1.74c3.65,0.74,7.29,1.56,10.85,2.61c1.18,0.34,2.12,1.49,3.45,2.46
		c0.09-0.05,0.51-0.32,0.98-0.63c4.43,1.93,9.08,3.53,13.3,5.9c5.89,3.31,12.09,6.15,16.7,11.55c2.19,2.56,4.8,4.81,6.91,7.52
		c4.24,5.45,7.08,11.57,9.21,18.06c0.92,2.83,1.7,5.73,4.45,7.83c1.41-0.94,2.2-2.43,2.57-3.95c1.03-4.26,2.9-8.34,2.47-12.95
		c-0.19-2.01-0.01-4.37,0.91-6.1c2.58-4.87,2.26-10.16,2.68-15.29c0.41-4.96,1.45-9.84,1.63-14.82c0.04-1.13,1.29-2.22,2.07-3.47
		c-0.43-1.02-0.94-2.23-1.47-3.49c0.69-0.43,1.22-0.76,2.09-1.3c-2.27-1.87-1.59-4.13-1.36-6.53c0.46-4.84,1.19-9.64,1.75-14.46
		c0.15-1.32,0.47-2.63,0.74-4.08c-0.66-0.62-1.37-1.3-2.42-2.29c0.89-0.33,1.59-0.6,2.29-0.86c-0.21-0.33-0.43-0.66-0.64-0.98
		c-0.62,0.05-1.23,0.1-2.06,0.17c0.11,0.1-0.1,0-0.1-0.1c0.2-7.12-2.69-14.11-1.5-20.84c3.91-1.92,7.2-3.54,10.45-5.14
		c1.13,0.85,2.08,1.57,3.17,2.39c0.79-0.45,1.55-0.88,2.39-1.36c1.1,1.83,1.63,4.2,4.09,4.91c1.25-0.58,2.5-1.17,3.83-1.8
		c2.37,2.58,2.98,5.4,3.34,8.42c0.5,4.27,1.26,8.51,1.87,12.51c-0.13,1.78-0.13,3.4-0.4,4.97c-0.57,3.36-1.31,6.7-1.93,10.05
		c-0.83,4.48-1.6,8.97-2.42,13.45c-0.29,1.6-0.43,3.28-1.03,4.76c-0.74,1.82-1.23,3.44-0.88,5.53c0.23,1.37-0.96,2.98-1.56,4.63
		c0.78,4.42-0.56,8.73-2.1,12.94c-0.77,2.12-1.44,3.94-1.01,6.38c0.35,1.98-0.86,4.23-1.45,6.69c0.79,1.11,0.09,2.62-0.35,4.14
		c-1.36,4.68-2.81,9.34-4.01,14.06c-0.34,1.35,0.29,2.93-0.02,4.3c-0.75,3.31-1.86,6.54-2.68,9.83c-0.96,3.82-2,7.63-2.58,11.52
		c-0.48,3.24-0.86,6.43-1.99,9.57c-0.83,2.3-0.85,4.88-1.32,7.31c-0.18,0.96-0.63,1.87-0.9,2.83c-0.52,1.85-1.53,3.76-1.39,5.57
		c0.26,3.48-0.95,6.45-2.19,9.48c-0.81,1.98-1.61,3.9-0.25,5.84c-0.79,1.13-1.55,2.22-1.91,2.74c-0.65,3.5-1.19,6.38-1.7,9.26
		c-0.16,0.88-0.37,1.78-0.34,2.66c0.11,3.46-1.01,6.45-2.68,8.41c-0.36,2.6-0.62,4.44-0.87,6.29c-1.04,0.56-1.9,1.03-2.76,1.5
		c0.52,0.26,1.04,0.51,1.93,0.96c-0.7,1-1.32,1.88-1.99,2.85c0.28,0.56,0.67,1.34,1.18,2.36c-0.9,0.48-1.61,0.86-2.6,1.4
		c0.42,0.48,0.85,0.99,1.52,1.77c-0.5,0.23-0.9,0.41-1.4,0.64c1,3.32,0.31,6.29-2.42,8.71c1.79,1.49,0.27,2.89-0.07,4.35
		c-0.34,1.45-0.54,2.93-0.84,4.61c-0.91,0-1.84,0-3.18,0c0.31,1.19,0.55,2.08,0.81,3.08c0.83-0.55,1.37-0.91,2.43-1.6
		c-0.48,1.45-0.79,2.37-1.08,3.27c-0.89,0-1.6,0-2.27,0c-0.11,0.38-0.31,0.84-0.25,0.88c1.29,0.79,1.18,1.96,0.9,3.18
		c-0.91,4.05-1.9,8.08-2.66,12.15c-0.22,1.17,0.25,2.47,0.45,4.17c1.31-0.66,2.06-1.08,2.84-1.41c2.88-1.21,4.97-4.33,8.65-3.62
		c5.19-3.25,11.62-3.7,16.62-7.54c2.05-1.57,4.87-2.13,7.31-3.22c6-2.67,11.96-5.42,17.98-8.05c2.57-1.12,5.44-1.69,7.83-3.1
		c5.65-3.35,12.24-4.25,17.95-7.6c4.8-2.82,10.47-4.1,15.64-6.33c6.29-2.72,12.99-4.18,19.38-6.6c3.87-1.46,8.12-1.89,12.13-3
		c4.59-1.27,9.11-2.82,13.69-4.16c1.23-0.36,2.58-0.32,3.82-0.65c0.93-0.25,1.78-0.81,3.04-1.41c-0.73-0.85-1.08-1.58-1.65-1.85
		c-4.84-2.29-9.25-5.26-13.63-8.31c-3.01-2.09-6.42-3.6-9.66-5.35c-0.26-0.14-0.64-0.13-0.83-0.32
		c-4.57-4.64-10.63-7.05-15.88-10.65c-2.15-1.48-3.59-3.97-5.69-5.56c-1.57-1.19-2.63-2.36-2.57-3.78
		c-1.29-0.79-2.21-1.36-3.01-1.85c0.41-1.79,0.75-3.24,0.9-3.93c-4.77-5.83-9.08-11.11-13.4-16.39c-0.09-0.12-0.17-0.28-0.29-0.34
		c-5.28-2.74-7.51-8.15-10.78-12.58c-3.36-4.56-5.95-9.67-9.83-13.89c-0.78-0.85-1.19-2.03-1.96-3.38c-1.56-0.48-3.4-1.05-5.04-1.56
		c-3.24-3.27-4.33-7.95-8.1-10.67c0.47-2.87,3.58-2.04,5.56-3.94c-0.12-1.12-0.28-2.64-0.49-4.59c2.69,0.12,5.75,0.11,8.77,0.44
		c6.27,0.68,11.75,2.86,16.85,6.96c3.86,3.11,6.92,6.7,10.04,10.38c0.19,0.22,0.24,0.62,0.47,0.74c5.69,3.19,7.72,9.73,12.57,13.71
		c0.77,0.63,1.26,1.67,1.73,2.59c0.77,1.5,1.9,2.5,3.25,3.55c2.52,1.96,4.64,4.43,6.94,6.68c3.94,3.85,7.96,7.62,11.79,11.56
		c1.96,2.02,3.58,4.35,5.39,6.59c1.91,1.14,4.12,2.13,5.93,3.61c4.12,3.37,8.88,5.48,13.76,7.35c1.96,0.75,4.06,1.13,6.6,1.81
		c0-1.38,0.05-2.67-0.01-3.96c-0.26-5.16-0.55-10.31-0.82-15.47c-0.05-1.04,0.32-2.34-0.16-3.09c-2.48-3.85-0.65-8.18-1.6-12.16
		c1.38-2.04-0.81-3.69-0.67-5.63c0.03-0.38-0.97-0.83-1.8-1.49c-0.22,1.12-0.36,1.82-0.59,2.97c-1.03-3.16-1.94-5.96-2.85-8.75
		c0.3-1.29,0.6-2.59,0.9-3.84c-2.1-5.17-1.36-10.51-1.18-15.81c0.03-1.01,0.07-2.09-0.24-3.03c-0.88-2.7-2.01-9.73-1.87-12.94
		c-1.25-1.11-2.56-2.29-4.13-3.69c-0.15-0.99-0.35-2.28-0.52-3.42c-3.85-2.88-8.37-2.49-12.52-3.49c-0.55-0.13-1.44,0.15-1.67-0.14
		c-1.85-2.44-4.52-1.91-7-2.12c-0.89-0.08-1.81-0.1-2.66-0.32c-5.14-1.37-10.43-1.47-15.67-2.03c-4.78-0.51-9.86-1.08-13.88-3.78
		c-4.06-2.73-8.83-5.55-8.11-12.56c0.99-0.76,2.42-1.86,4.45-3.42c0.29-0.03,1.45-0.17,2.51-0.3c0.48-2.33,0.93-4.52,1.38-6.7
		c4.41-1.2,8.41-2.3,11.59-3.16c3.59,0.45,6.43,0.81,9.28,1.17c0-0.13,0.01-0.25,0.01-0.38c1.12,0.58,2.19,1.42,3.38,1.68
		c2.9,0.64,5.87,0.93,8.79,1.5c1.85,0.36,3.65,0.99,5.48,1.44c3.88,0.96,7.8,1.82,11.66,2.85c1.69,0.45,3.29,1.28,4.95,1.86
		c0.78,0.27,1.62,0.37,2.77,0.61c0.25-3.67,0.43-7,0.72-10.32c0.19-2.24-0.08-4.42-0.25-6.64c-0.29-3.69-0.05-7.43,2.1-10.89
		c1.08-0.15,2.38-0.23,3.61-0.55c1.12-0.29,2.17-0.85,3.06-1.21c0.82-2.13,1.51-3.92,2.32-6.02c2.61-0.34,5.21-0.68,6.82-0.89
		c3.44,1.85,6.05,3.21,8.61,4.66c0.89,0.5,1.73,1.16,2.45,1.89c1.14,1.14,2.16,2.41,3.61,4.04c0.71,6.05,1.77,12.48,0.77,19.25
		c-0.82,5.54-0.17,11.29-0.17,17.1c1.26,1.06,2.55,2.56,4.18,3.41c1.52,0.79,3.4,0.89,5.29,1.33c0.58,0.7,1.24,1.49,1.91,2.28
		c0.08-0.13,0.15-0.27,0.23-0.4c2.29,1.22,4.57,2.43,6.86,3.65c0.77,0.41,1.47,1.07,2.28,1.24c3.1,0.66,5.93,1.74,8.59,3.59
		c2.01,1.4,4.52,2.07,6.78,3.14c1.88,0.88,3.69,1.93,5.58,2.79c1.62,0.73,3.3,1.31,4.97,1.94c3.02,1.15,6.16,2.03,9.03,3.48
		c5.7,2.87,11.46,5.59,17.26,8.25c5.01,2.3,9.99,4.56,15.13,6.56c5.47,2.13,10.87,4.48,15.86,7.69c1.21,0.78,2.81,1,4.26,1.37
		c3.71,0.96,7.44,1.86,12.12,3.02c1.85,1.84,5.21,2.94,8.58,4.23c5.7,2.19,11.23,4.82,16.79,7.37c5.25,2.41,10.37,5.1,15.67,7.38
		c4.62,1.98,9.48,3.38,14.1,5.37c4.74,2.04,9.29,4.5,13.94,6.75c1.47,0.71,2.98,1.33,4.47,1.99c4.44,1.99,8.88,3.99,13.52,6.07
		c2.36-3.48,4.65-6.89,6.97-10.29c1.26-1.85,2.38-3.85,3.9-5.47c1.71-1.82,2.85-3.69,3.21-6.22c0.36-2.61,1.06-2.92,4.3-3.08
		c1.95-1.84,3.9-3.69,6.05-5.72c0-0.47,0-1.18,0-2.15c1.25-2.27,3.64-3.61,5.87-5.27c5.14-3.83,11.03-6.29,16.57-9.31
		c6.42-3.5,13.64-5.25,20.91-6.47c6.47-1.08,12.94-2.3,19.56-1.75c2.21,0.18,4.42,0.44,6.63,0.72c1.31,0.17,2.61,0.69,3.91,0.67
		c7.71-0.1,14.87,2.53,22.2,4.35c6.29,1.56,12.01,4.39,17.78,7.26c3.85,1.91,8.05,3.05,11.56,5.74c2.47,1.9,5.41,3.23,7.73,5.27
		c2.77,2.45,5.09,5.41,7.64,8.12c6.31,6.69,11.1,14.39,15.53,22.41c2.87,5.2,6.37,10.07,9.81,14.93c3.63,5.12,5.67,10.83,7.06,16.85
		c1.12,4.86,2.23,9.73,3.55,15.5c0.81-2.23,1.38-3.7,1.89-5.19c0.67-1.98,0.86-4.29,2.02-5.9c3.43-4.75,4.05-10.77,7.42-15.52
		c0.72-1.01,0.5-2.65,1.13-3.76c2.79-4.96,3.02-10.71,5.07-15.89c0.2-0.51,0.05-1.15,0.12-1.73c0.69-5.63,2.2-10.99,4.35-16.27
		c1.3-3.19,1.48-6.83,2.26-10.76c0.22-0.23,0.82-0.88,1.46-1.56c-0.78-1.66-1.57-3.34-2.59-5.51c0.47-2.45,1.05-5.48,1.68-8.76
		c-0.23-0.17-0.69-0.51-1.19-0.87c-0.14-1.59-0.36-3.29-0.41-5c-0.04-1.43,0.27-2.88,0.15-4.29c-0.43-4.89,0.86-9.84-0.58-14.68
		c-0.55-1.86-1.6-3.74-1.52-5.58c0.2-4.81-1.65-8.29-5.55-10.95c-1.25-0.85-1.35-2.23-0.62-3.7c2.86-1.09,2.99,2.42,5.25,3.02
		c0.71-2.79,2.91-3.87,5.57-4.65c1.79-0.52,3.36-1.8,5.36-2.93c4.4,0.73,7.87,3.56,10.68,7.02c2.35,2.88,4.54,6.08,5.97,9.48
		c1.94,4.62,3.84,9.5,4.35,14.42c0.47,4.49,0.54,9.14,0.28,13.79c-0.44,8.03-3.03,15.5-4.58,23.22c-0.77,3.81-1.27,7.77-2.73,11.32
		c-2.76,6.69-3.23,14.12-6.94,20.49c-1.03,1.77-1.24,3.99-1.99,5.94c-2.79,7.22-5.91,14.32-8.42,21.63
		c-3.74,10.9-9.13,21.07-13.48,31.69c-2.08,5.07-4.89,9.85-7.1,14.87c-2.87,6.52-5.37,13.2-8.21,19.73
		c-2.2,5.07-4.69,10.02-7.05,15.02c-3.1,6.6-6.19,13.21-9.3,19.81c-2.02,4.3-4.09,8.58-6.1,12.88
		c-5.12,10.94-10.18,21.9-15.34,32.82c-2.92,6.19-5.99,12.3-8.96,18.46c-0.52,1.07-0.9,2.22-1.41,3.51c0.33,0.5,0.72,1.09,0.8,1.22
		c-1.27,1.29-2.47,2.51-3.67,3.73c0.17,0.22,0.33,0.45,0.5,0.67c2.21-0.75,4.42-1.5,6.78-2.3c0.16,0.39,0.3,0.76,0.39,0.98
		c3.85-0.44,7.73-0.89,11.73-1.35c5.97-2.51,11.81-5.79,18.49-6.9c0.7-0.12,1.34-0.6,1.99-0.95c0.78-0.42,1.49-1.09,2.31-1.29
		c5.46-1.34,10.43-4.14,15.85-5.49c3.83-0.95,7.85-1.1,12.21-1.66c1.88-2.7,4.82-3.24,8.63-2.28c1.15-1.46,2.95-2.14,4.98-1.11
		c3.22-2.35,6.34-3.91,10.48-3.3c3.13,0.46,6.25-0.55,7.93-3.05c7.21-1.83,14-3.32,19.92-7.61c-0.2-1.1-0.38-2.09-0.59-3.18
		c0.32-0.22,0.63-0.58,1.02-0.7c5.37-1.69,10.58-3.95,16.37-4.09c1.41-0.03,2.93-0.7,4.17-1.45c5.92-3.61,12.8-4.28,19.19-6.45
		c3.81-1.3,7.51-3.01,11.69-2.6c1.77-1.88,4.04-1.63,5.9-1.45c3.65-1.45,6.95-2.77,10.84-4.31c0.4,0.83,0.72,1.51,0.95,1.99
		c1.55,0,2.79,0,4.57,0c-0.56-0.85-0.89-1.36-1.15-1.75c1.3-0.8,2.67-1.64,4.34-2.66c1.54,0,3.77,1.43,5.18-1.04
		c0.51-1.16-1.63-1.38-0.75-3.06c0.81-1.55-0.33-3.65-1.93-4.57c-2.8-1.6-3.91-4.45-5.47-6.89c-1.89-2.97-3.52-6.04-5.82-8.79
		c-2.57-3.07-4.42-6.72-6.77-9.99c-2.6-3.62-5.42-7.08-8.11-10.63c-3.76-4.98-7.5-9.97-11.22-14.97c-2.27-3.04-5.15-5.82-6.62-9.21
		c-3.35-7.72-9.95-13.26-13.3-20.92c-0.98-2.23-2.84-4.05-4.15-6.15c-4.01-6.4-8.28-12.67-11.78-19.35
		c-1.69-3.21-3.63-6.37-4.82-9.94c-0.9-2.67-3.17-4.89-4.89-7.26c-0.7-0.96-1.58-1.79-1.83-2.87c-0.48-2.39-0.96-4.77-1.46-7.29
		c1.21-1.63,2.52-3.39,3.73-5.01c2.21-1.47,4.3-2.87,6.44-4.3c3.89,0.26,7.95,0.54,12.02,0.81c0.39,1.6,0.67,2.74,1.06,4.36
		c1.52,1.03,3.34,2.27,5.45,3.69c1.05,1.67,2.31,3.68,3.59,5.72c0.84,0.29,1.67,0.58,2.58,0.89c1.12,2.85-0.35,4.82-2.37,6.59
		c0.23,3.51,2.29,6.22,3.61,9.12c1.15,2.52,3.24,4.6,4.88,6.91c1.88,2.64,3.8,5.26,5.53,8c3.18,5.03,6.16,10.2,9.37,15.21
		c1.93,3.01,4.14,5.85,6.21,8.77c1.54,2.17,3.12,4.32,4.56,6.56c0.53,0.83,0.72,1.88,1.01,2.71c1.14,0.78,2.48,1.28,3.2,2.24
		c3.72,4.98,7.12,10.21,10.97,15.09c2.72,3.45,5.35,7.01,8.65,10.02c3.91,3.56,7.55,7.42,11.37,11.08
		c3.87,3.71,7.8,7.34,11.73,10.98c0.52,0.48,1.2,0.78,2.34,1.5c0.1-1.42,0.25-2.35,0.21-3.27c-0.08-1.76-0.57-3.55-0.34-5.26
		c0.5-3.63,1.02-7.19,0.9-10.91c-0.16-4.75,0.49-9.53,0.77-14.29c0.13-2.19,0.23-4.39,0.36-6.59c0.21-3.7,0.49-7.4,0.64-11.1
		c0.14-3.37-0.19-6.79,0.27-10.11c0.8-5.86-0.6-11.86,1.21-17.64c0.17-0.55,0.14-1.19,0.13-1.78c-0.19-8.82,0.95-17.56,1.65-26.32
		c0.03-0.41-0.19-0.84-0.39-1.7c-1.52-0.07-3.09-0.15-4.79-0.23c-0.68,0.88-1.3,1.68-1.79,2.32c-9.37,2.17-18.93,2.36-28.05,5.28
		c-3.08,0.99-6.35,1.34-9.37,2.77c-1.17,0.55-2.9,0.12-4.34-0.12c-2.18-0.37-4.32-0.96-6.94-0.76c-0.46-0.77-0.91-1.53-1.16-1.94
		c-2.45,0.2-4.48,0.36-6.59,0.53c-3.08-3.49-4.43-7.83-6.69-11.65c-1.77-3-2.86-6.14-2.62-9.6c1.77-1.66,3.42-3.38,5.25-4.87
		c1.71-1.39,3.3-2.92,5.62-3.56c1.58-0.44,2.9-1.84,4.39-2.86c9.37-0.7,18.9-2.15,28.54-2.53c9.61-0.37,19.18-1.83,29.12-2.84
		c0.2-0.34,0.81-0.94,0.87-1.59c0.46-4.67,2.09-9.14,1.26-14.07c-0.48-2.88,0.74-6.11,1.48-9.11c0.34-1.39,1.37-2.6,2.3-4.29
		c-0.61-1.18-1.33-2.59-2.05-3.99c-0.22,0.03-0.45,0.07-0.67,0.1c0.39-5.34,0.79-10.67,1.17-16.01c0.37-5.18,0.55-10.38,1.11-15.54
		c0.42-3.85,1.12-7.7,2.07-11.46c0.56-2.2,0.41-4.12-0.19-5.37c0.2-2.85,0.35-5.01,0.5-7.17c-0.15-0.02-0.3-0.04-0.45-0.06
		c0.64-1.51,1.28-3.02,1.99-4.71c3.55-2.14,7.14-4.51,10.92-6.52c2.04-1.09,4.41-1.56,6.61-2.31c1.4,0.84,2.7,1.35,3.64,2.25
		c3.21,3.06,6.48,6.1,9.33,9.48c1.12,1.32,1.19,3.53,1.51,5.41c1.63,2.62,3.71,5.07,3.24,8.86c-2.64,2.7-2.35,6.66-3.21,10.24
		c-1.14,4.75-1.73,9.63-4.24,13.99c-0.8,1.39-1.04,3.08-1.59,4.62c-0.39,1.1-0.89,2.16-1.3,3.26c-0.4,1.1-0.8,2.2-1.1,3.32
		c-0.54,1.99-1.32,3.98-1.45,6.01c-0.22,3.28-1,6.33-2.19,9.36c-0.33,0.84,0.2,2.03,0.33,3.06c-2.48,5.8-3.38,11.91-3.46,18.93
		c0.22,0.48,0.77,1.68,1.37,2.97c6.28,0.26,12.47,0.55,18.65,0.75c10.74,0.35,21.5,0.39,32.22,1.11c3.29,0.22,6.45,0.56,9.73-0.01
		c1.24-0.21,2.62,0.53,3.94,0.59c7.58,0.34,15.17,0.86,22.74,0.78c4.43-0.05,8.83-1.22,13.27-1.67c5.62-0.57,11.24-1.44,16.93-0.36
		c1.55,0.29,3.22-0.21,4.83-0.15c5.59,0.21,11.17-0.15,16.77,0.35c6.24,0.56,12.55,0.61,18.83,0.51c4.05-0.06,7.55,1.39,11.17,2.64
		c1.52,2.93,3.26,5.36,5.91,7.33c1.66,1.24,2.61,3.54,4.73,4.51c0.75,3.75,4.28,5.92,5.51,9.3c-1.81,3.08-2.14,6.74-4.92,8.88
		c-0.45,0.1-0.77,0.28-1.03,0.21c-4.45-1.14-8.9-2.3-13.35-3.49c-6.94-1.85-14.01-2.74-21.19-2.97c-6.4-0.21-12.79-0.78-19.2-1.02
		c-4.41-0.17-8.83-0.05-13.25-0.08c-0.73-0.01-1.46-0.15-2.18-0.26c-2.76-0.44-5.5-0.75-8.34-0.51c-2.18,0.18-4.42-0.45-6.64-0.69
		c-2.77-0.29-5.54-0.6-8.32-0.81c-5.05-0.37-10.1-0.61-15.14-1.06c-1.11-0.1-2.16-0.87-3.36-1.38c-0.39,0.25-0.87,0.82-1.36,0.83
		c-3.23,0.03-6.49-0.29-9.7-0.04c-3.53,0.26-7.08,0.75-10.5,1.62c-3.01,0.77-5.89,1.7-9.05,1.15c-0.68-0.12-1.44,0.21-2.06,0.32
		c-4.04-2.98-4.32-3.01-7.22-1.16c-1.98-0.17-3.7-0.56-5.38-0.43c-3.48,0.28-6.9,1.48-10.47,0.37c-0.61-0.19-1.43,0.29-2.15,0.5
		c-0.7,0.2-1.38,0.61-2.08,0.65c-2.32,0.11-4.74-0.3-6.94,0.23c-2.21,0.53-4.21,1.94-7.04,3.33c-0.42,1.72-1.31,4.1-1.54,6.54
		c-0.55,5.74-0.72,11.51-1.18,17.26c-0.35,4.28-0.84,8.56-1.4,12.82c-0.75,5.74-1.33,11.45-0.71,17.27c0.28,2.62-0.41,5.33-0.62,8
		c-0.28,3.71-0.7,7.43-0.74,11.14c-0.1,8.39-0.12,16.78,0.06,25.16c0.08,3.52,0.75,7.02,1.18,10.77c4.25,0.13,7.82-2.07,11.72-2.63
		c3.97-0.57,7.6-2.81,11.77-2.47c3.99,0.32,7.68-2.37,11.99-1.31c-0.09,1.29-0.16,2.43-0.25,3.63c1.96,1.42,4.02,0.12,6.75,0.36
		c-1.59,0.71-2.61,1.16-3.95,1.76c0.74,1.53,1.36,2.82,1.94,4.01c1.52,0.49,2.79,0.9,4.3,1.39c0,2.16,0,4.34,0,6.92
		c1.47,0.23,2.87,0.45,4.49,0.7c0.08,0.48,0.17,1.02,0.26,1.55c-1.91,0.65-3.71,1.27-5.52,1.89c0.11,0.14,0.22,0.27,0.33,0.41
		c-1.87,2.03-3.73,4.07-5.46,5.96c-6.38,0.15-11.98,2.08-17.64,3.74c-3.73,1.1-7.42,2.11-11.43,1.4c-1.49-0.26-3.17,0.5-4.76,0.8
		c-1.1,1.66-2.08,3.15-2.6,3.93c0.11,5.7,0.08,10.6,0.32,15.49c0.22,4.57,0.86,9.13,1.04,13.7c0.25,6.31,1.93,12.45,2.03,18.8
		c0.04,2.77,1.23,5.5,1.72,8.28c1.07,6.1,2.42,12.15,2.95,18.34c0.23,2.65,1.25,5.22,1.66,7.86c0.37,2.31,0.39,4.68,0.6,7.45
		c2.61,5.6,5.59,11.61,8.22,17.76c1.92,4.49,3.22,9.24,5.1,13.75c2.1,5.03,2.13,10.48,3.67,15.59c2.17,7.21,2.68,14.53,2.86,22.03
		c0.12,5.3,1.5,10.63,2.77,15.84c0.74,3.05,1.11,5.81-0.56,8.6c-1.91,3.2-3.52,6.61-5.72,9.59c-1.27,1.72-3.35,2.96-5.28,4.03
		c-1.9,1.05-4.03,1.1-5.93-0.36c-0.24-0.18-0.49-0.35-0.77-0.47c-5.68-2.39-8.71-6.87-10.31-12.64c-1.51-5.44-2.96-10.88-3.94-16.46
		c-0.93-5.24-1.25-10.53-1.77-15.82c-0.67-6.8-1.7-13.56-3.44-20.21c-1.05-4-1.37-8.18-2.12-12.26c-1.31-7.17-2.86-14.31-4.01-21.51
		c-0.92-5.75-1.42-11.56-2.1-17.35c-0.11-0.89,0.02-1.88-0.33-2.66c-2.47-5.42-2.62-11.27-3.29-17.02c-0.1-0.89,0.01-1.89-0.36-2.66
		c-1.35-2.77-1.21-5.75-1.55-8.69c-0.68-5.73-1.45-11.48-2.69-17.11c-0.39-1.77,0.4-3.21,0.1-4.78
		C1174.21,856.04,1174.04,847.5,1171.39,838.67z M887.71,823.38c2-1.34,3.91-3.07,6.16-4.05c5.82-2.53,10.63-6.57,15.81-10.05
		c5.94-3.98,11.22-8.83,16.3-13.87c1.88-1.86,3.51-3.98,5.42-5.82c1.59-1.54,3.25-2.92,4.63-4.73c1.85-2.43,4.23-4.52,6.6-6.5
		c3.54-2.95,7.31-5.63,7.64-10.82c0.04-0.57,0.37-1.15,0.67-1.66c1.58-2.68,3.24-5.32,4.78-8.02c2.22-3.89,4.37-7.82,6.53-11.75
		c0.21-0.38,0.33-0.84,0.42-1.27c0.74-3.62,1.56-7.23,2.16-10.88c0.33-1.99,0.27-4.04,0.4-6.16c-1.16-0.57-2.19-1.08-3.23-1.6
		c-0.17-0.98-0.32-1.84-0.46-2.67c-0.78-0.46-1.49-0.88-1.9-1.12c0.38-2.36,1.03-4.41,0.98-6.45c-0.16-5.88-2.31-11.33-4.95-16.4
		c-3.15-6.05-8.98-9.67-15.17-11.7c-7.12-2.34-14.5-4.15-22.05-4.9c-0.95-0.09-1.85-0.74-2.74-1.12c-4.45,0.67-8.86,1.46-13.29,1.94
		c-2.03,0.22-4.37,0.39-6.13-0.4c-3.53-1.6-6.99-3.2-10.57-3.34c-1.82-1.68-3.33-3.08-4.81-4.45c2.67-6.38,3.29-7.18,8.13-10.79
		c1.87-0.51,3.48-0.81,4.99-1.39c4.31-1.67,8.61-3.22,13.23-3.89c1.61-0.23,3.92-0.07,5.03-2.74c-2.31-0.83-4.36-1.58-6.48-2.34
		c-0.66-0.83-1.4-1.75-2-2.51c-5.62-1.02-11.01-1.57-16.46-1.27c-2.52,0.14-5.04,0.35-7.57,0.51c-5.86,0.37-11.28,2.62-16.92,3.93
		c-2.75,0.64-5.56,1.09-8.26,1.9c-6.74,2.02-12.09,6.59-17.91,10.25c-3.28,2.06-6.27,4.41-10.25,5c-0.96,0.14-1.98,0.79-2.7,1.48
		c-2.33,2.25-4.81,4.43-6.73,7.01c-3.27,4.4-6.17,9.08-9.21,13.62c0.78,1.55,1.44,2.88,2.19,4.39c-0.63,1.68-0.79,3.35-0.42,5.39
		c0.41,2.23-0.27,5.02-2.38,6.87c-3.6,3.15-7,6.55-10.79,9.44c-4.52,3.45-8.44,7.15-9.58,13.01c-0.06,0.29-0.16,0.58-0.29,0.85
		c-3.33,7.02-6.05,14.23-7.12,22c-0.38,2.74-1.22,5.42-1.47,8.16c-0.2,2.19-0.15,4.5,0.33,6.63c0.99,4.43,1.24,9.19,4.66,12.76
		c0.14,0.14-0.14,0.63-0.03,0.86c1.38,2.87,2.59,5.86,4.27,8.55c1.94,3.12,4.3,5.98,6.93,9.58c0.28,0.15,1.33,0.7,1.91,1
		c0.89,5.51,5.46,6.53,8.76,9.02c0.83,1.01,1.53,2.67,2.72,3.18c5.31,2.27,9.6,6.59,15.52,7.6c0.7,0.12,1.52,0.49,1.96,1.01
		c2.85,3.38,6.66,4.13,10.79,4.15c1.65,0.01,3.31,0.03,4.93,0.29c4.43,0.71,8.81,1.01,13.26-0.06c2.88-0.7,5.68-0.31,7.47,2.24
		c7.59-1.98,14.49-5.48,22.45-5.76c0.61-0.82,1.3-1.75,1.98-2.67C886.46,823.03,887.02,823.19,887.71,823.38z M617.22,814.59
		c0.02,0.07,0.05,0.14,0.07,0.21c1.43-1.02,2.8-2.17,4.32-3.04c3.21-1.82,6.52-3.44,9.74-5.23c1.8-1,3.47-2.25,5.27-3.25
		c6.22-3.43,12.45-6.78,18.19-11.09c5.29-3.97,11.12-7.23,16.83-10.61c2.61-1.54,4.91-3.28,6.7-6.15c3.39-0.02,5.98-1.92,8.16-4.54
		c0.27-0.33,0.74-0.49,1.12-0.74c3.68-2.44,7.39-4.84,11.02-7.35c2.81-1.94,6.12-3.56,8.13-6.15c1.98-2.55,4.72-3.84,6.94-5.9
		c2.86-2.65,6.38-4.59,9.53-6.95c1.52-1.14,2.78-2.64,4.26-3.84c3.22-2.6,6.53-5.09,9.78-7.67c1.16-0.92,2.17-2.02,3.35-2.91
		c2.83-2.14,5.7-4.22,8.6-6.27c0.75-0.53,1.67-0.82,2.66-1.28c0.58-1.36,1.21-2.84,1.79-4.21c-0.98-1.4-1.8-2.58-2.58-3.7
		c4.67-5.6,11.26-9.09,14.6-15.74c-0.76-0.6-1.17-1.03-1.66-1.31c-3.36-1.93-6.87-3.64-10.08-5.78c-4.75-3.18-10.03-5.2-15.18-7.53
		c-3.74-1.69-7.52-3.27-11.25-4.96c-3.89-1.77-7.74-3.61-11.6-5.44c-1.71-0.81-3.36-1.8-5.12-2.48c-4.28-1.65-8.62-3.17-12.93-4.76
		c-0.7-0.26-1.53-0.47-2.01-0.97c-2.82-2.93-6.49-3.86-10.23-4.88c-2.16-0.59-4.08-2.03-6.45-3.26c-1.66,0.98-3.35-0.44-4.92-1.37
		c-3.32-1.96-6.86-3.28-10.49-4.49c-3.38-1.12-6.77-2.3-10.01-3.76c-5.03-2.27-9.91-4.86-14.9-7.21c-1.46-0.69-3.06-1.46-4.61-1.47
		c-5.06-0.05-9.4-2.49-14.04-3.9c-2.53-0.77-4.97-1.91-7.39-3c-3.45-1.56-7.07-2.53-10.65-3.7c-6.48-2.13-12.64-5.2-18.95-7.85
		c-0.18-0.08-0.52,0.22-0.99,0.43c0.2,0.75,0.4,1.53,0.62,2.37c-1.84,2.56-2.4,5.35-1.52,8.45c0.22,0.79-0.04,1.71-0.07,2.58
		c-0.05,1.32-0.16,2.63-0.13,3.95c0.04,1.46,0.29,2.91,0.32,4.36c0.13,6.44,0.16,12.88,0.35,19.32c0.05,1.6,0.72,3.17,0.87,4.77
		c0.38,3.85,0.58,7.73,0.95,11.58c0.42,4.4,1.62,8.84,1.26,13.16c-0.39,4.7,1.49,8.7,1.9,12.91c2.54,1.58,5.07,1.62,7.6,1.91
		c5.5,0.64,11.18,1.18,13.11,7.74c1.62,0.48,3.04,0.91,4.81,1.43c1.93,2.24,4.04,4.69,6.22,7.23c1.27,0.56,2.73,1.2,4.18,1.85
		c-0.01,3.12,1.56,5.84,0.17,8.39c-1.32,1.08-2.44,2-3.65,2.99c0.7,1.1,1.23,1.95,1.77,2.81c-0.44,1.18-0.85,2.28-1.14,3.07
		c-4.21,3.03-8.82,3.19-13.09,2.33c-4.17-0.84-8.16-1.37-12.58-0.45c-0.44,0.82-1,1.86-1.22,2.27c0.12,4.53,0.39,8.4,0.28,12.25
		c-0.11,3.96,0.09,7.72,2.8,10.95c0.81,0.96,1.35,2.15,1.96,3.15c-0.41,0.56-0.83,1.12-1.55,2.09c1.58,1.63,3.07,3.16,4.97,5.12
		c0.33,1.89,1.41,4.68,3.68,5.54c4.12,1.57,4.28,4.43,3.95,7.86c-0.07,0.74-0.14,1.48-0.11,2.22c0.32,7.38,0.65,14.77,1.03,22.14
		c0.02,0.3,0.6,0.57,0.7,0.66C612.99,816.47,615.1,815.53,617.22,814.59z M216.54,774.36c-1.18-2.4-2.12-4.43-3.16-6.41
		c-3.22-6.13-6.44-12.26-9.77-18.33c-0.77-1.4-1.98-2.54-2.99-3.81c-1.83-2.3-3.79-4.5-5.46-6.91c-3.47-5.02-6.79-10.16-10.17-15.24
		c-0.32-0.49-0.61-1.2-1.07-1.35c-2.26-0.78-3.03-2.87-3.97-4.63c-3.94-7.37-8.78-14.08-14.24-20.4c-3.21-3.72-6.16-7.67-9.12-11.59
		c-2.25-2.97-4.22-6.15-7.47-8.21c-0.61-0.39-1.17-0.97-1.57-1.58c-2.74-4.13-6.61-7.12-10.29-10.31c-1.57-1.36-3.32-2.51-4.88-3.89
		c-3.55-3.16-7.07-6.36-10.51-9.63c-0.7-0.66-1.03-1.7-1.48-2.49c-2.1,0.26-3.71-0.52-4.79-1.98c-1.02-1.38-2.37-1.77-3.84-2.03
		c-1.85-0.33-3.72-0.52-5.54-0.76c0.2,3.1-1.57,5.47-2.36,7.69c0.23,1.85,0.72,3.35,0.54,4.77c-0.72,5.88-1.47,11.74-1.05,17.68
		c0.05,0.74-0.16,1.49-0.12,2.23c0.23,3.95,0.22,7.95,1.95,11.35c0,2.62-0.26,5,0.05,7.31c0.72,5.37,1.59,10.73,2.62,16.05
		c0.82,4.23,2.06,8.37,2.98,12.58c1.66,7.56,3,15.19,4.89,22.68c2.03,8.05,4.48,15.99,6.89,23.93c0.4,1.31,1.52,2.41,2.01,3.15
		c0.44,1.62,0.63,2.81,1.07,3.89c3.29,8.1,6.25,16.37,11.31,23.64c0.66,0.95,1.56,2.09,1.5,3.1c-0.14,2.67,1.16,4.59,2.68,6.45
		c1.79,2.2,3.7,4.31,5.57,6.47c-0.16,0.81-0.32,1.64-0.52,2.71c0.94,0.09,1.6,0.15,2.28,0.22c2.23,3.37,5.63,6.06,6.21,10.43
		c2.21,0.22,3.36,0.56,3.47,1.76c0.26,3.01,2.63,3.6,4.7,4.65c-1.17,1.8-0.43,3.17,1.01,4.28c4.12,3.17,6.6,8.18,11.67,10.26
		c1.36,3.34,4.73,4.78,6.96,7.31c2.14,2.44,5.32,3.81,7.01,6.73c4.37,1.92,8.02,5.07,12.1,7.39c7.24,4.11,14.62,8.08,22.75,10.39
		c3.22,0.92,6.18,2.74,9.26,4.15c2.25,0.59,4.4,1.53,6.65,2.07c5.18,1.25,10.41,2.31,15.74,2.7c1.57,0.12,3.19,1.23,4.61-0.37
		c1.58,1.89,3.68-0.26,5.59,0.83c2.92,1.68,6.35,1.32,9.65,1.36c2.62,0.04,4.6-0.94,6.18-2.84c-0.58-2.31-1.13-4.47-1.63-6.46
		c-0.6-0.29-1.11-0.54-1.57-0.76c-0.5-3.66-1.48-6.89-4.16-9.48c-1.02-0.98-1.57-2.49-2.2-3.82c-0.55-1.18-0.92-2.44-1.35-3.67
		c-2.34-6.71-8.8-11.35-9.45-18.9c-0.99-0.82-1.98-1.64-2.98-2.46c0.58-0.88,1.02-1.54,1.56-2.37c-0.88,0-1.43,0-2.1,0
		c-0.17-0.75-0.07-1.9-0.57-2.28c-2.46-1.93-4.26-4.15-4.57-7.4c-0.05-0.53-0.54-1.06-0.94-1.49c-1.81-1.93-2.88-4.15-2.66-6.31
		c-0.93-1.22-1.56-1.98-2.12-2.8c-1.14-1.7-2.02-3.62-3.38-5.1c-3.38-3.68-5.9-7.88-8.39-12.18c-1.49-2.57-2.46-5.27-3.71-7.89
		c-2.8-5.88-5.89-11.65-9.27-17.21C221.06,778.67,220.26,775.23,216.54,774.36z M380.56,645.04c-2.9-4.68-5.38-8.91-8.09-12.97
		c-1.05-1.58-2.41-3.23-4.03-4.1c-3.48-1.86-6.93-3.87-10.84-4.86c-5.36-1.36-10.63-2.4-16.14-0.46c-2.29,0.81-4.88,0.89-7.34,1.05
		c-0.96,0.06-2.23-0.29-2.9-0.93c-2.54-2.44-5.66-4.4-6.79-8.07c-0.54-1.75-1.89-2.62-3.75-2.64c-5.21-0.05-10.2,1.41-15.27,2.29
		c-2.15,0.37-4.21,1.2-6.55,1.89c-0.1,0.18-0.37,0.65-0.44,0.78c-1.64,0.18-3.41-0.15-4.13,0.57c-1.45,1.44-3.24,1.42-4.87,2.05
		c-0.98,0.37-2.06,0.59-2.91,1.15c-5.85,3.85-12.68,6.32-17.24,12.01c-2.3-0.32-2.85,3.04-5.25,2.51c-0.2-0.84,1.2-2.34-1.18-2.3
		c-0.5,0.9-0.82,2.46-1.63,2.77c-3.4,1.3-3.86,5.27-6.72,6.96c-2.85,5.55-5.71,11.09-8.53,16.66c-0.47,0.93-1.17,2.03-1.02,2.92
		c0.42,2.47-1.46,3.77-2.24,5.59c-0.25,1.61-0.35,3.33-1.07,4.72c-1.9,3.64-2.69,7.47-3.41,11.49c-0.78,4.31,0.37,7.6,2.83,10.78
		c2.27,2.93,4.75,5.72,6.86,8.76c1.79,2.58,3.33,5.29,5.92,7.22c0.53,0.4,0.83,1.16,1.14,1.81c2.79,5.75,7.01,10.42,12.04,14.12
		c3.78,2.78,8.3,4.5,13.25,4.25c1.04-0.05,2.09-0.16,3.13-0.13c5,0.16,10,0.36,15.07,0.54c-0.06,0.63-0.14,1.45-0.27,2.85
		c3.97-0.35,7.67-0.68,11.38-1.01c1.53-0.65,3.12-1.31,4.76-1.51c4.21-0.5,8.06-1.67,11.2-4.71c0.59-0.58,1.53-0.87,2.37-1.11
		c4-1.17,8.01-2.28,11.94-3.38c3.28-4.01,8.82-5.25,11.34-9.96c0.06-0.12,0.23-0.19,0.36-0.25c2.61-1.26,5.22-2.52,8.46-4.09
		c2.34-2.65,5.16-5.85,8.42-9.55c0.26-0.06,1.26-0.31,2.51-0.62c2.46-3.94,5.24-7.84,7.41-12.05c1.87-3.65,3.04-7.66,4.52-11.51
		c0.05-0.14,0.05-0.29,0.08-0.44c-0.31-2.3-1.21-4.64,0.53-6.77c-0.43-5.42-0.15-10.96-2.16-16.12
		C380.39,648.9,379.86,646.71,380.56,645.04z M609.83,829.42c2.5-1.09,4.66-2.03,6.81-2.97c0.18-1.29,0.35-2.44,0.51-3.58
		c-0.22-0.04-0.45-0.09-0.67-0.13c-0.27,0.63-0.55,1.26-0.82,1.89c-0.36-0.23-0.72-0.47-1.13-0.74c-1.49,0.87-3.01,1.75-4.39,2.56
		c-0.14,0.48-0.27,0.76-0.3,1.05C609.8,827.93,609.83,828.37,609.83,829.42z M720.7,757.53c8.47-3.85,8.47-3.85,9.04-5.72
		c-1.4,0.45-2.75,0.88-3.23,1.04C724.11,754.78,722.41,756.15,720.7,757.53z"/>
</g>
</svg>
